SplineFontDB: 3.2
FontName: Untitled1
FullName: Untitled1
FamilyName: Untitled1
Weight: Regular
Copyright: Copyright (c) 2024, adam
UComments: "2024-2-16: Created with FontForge (http://fontforge.org)"
Version: 001.000
ItalicAngle: 0
UnderlinePosition: -204.8
UnderlineWidth: 102.4
Ascent: 1792
Descent: 256
InvalidEm: 0
LayerCount: 2
Layer: 0 0 "Back" 1
Layer: 1 0 "Fore" 0
XUID: [1021 406 1647531014 20631]
OS2Version: 0
OS2_WeightWidthSlopeOnly: 0
OS2_UseTypoMetrics: 1
CreationTime: 1708118385
ModificationTime: 1708118385
OS2TypoAscent: 0
OS2TypoAOffset: 1
OS2TypoDescent: 0
OS2TypoDOffset: 1
OS2TypoLinegap: 0
OS2WinAscent: 0
OS2WinAOffset: 1
OS2WinDescent: 0
OS2WinDOffset: 1
HheadAscent: 0
HheadAOffset: 1
HheadDescent: 0
HheadDOffset: 1
OS2Vendor: 'PfEd'
Lookup: 260 0 0 "mark-table" { "mark-subtable"  } ['mark' ('DFLT' <'dflt' > 'latn' <'dflt' > ) ]
Lookup: 262 0 0 "mkmk-table" { "mkmk-subtable"  } ['mkmk' ('DFLT' <'dflt' > 'latn' <'dflt' > ) ]
DEI: 91125
Encoding: ISO8859-1
Compacted: 1
UnicodeInterp: none
NameList: AGL For New Fonts
DisplaySize: -48
AntiAlias: 1
FitToEm: 0
WinInfo: 0 16 14
AnchorClass2: "mark" "mark-subtable" "mkmk" "mkmk-subtable"
BeginChars: 384 224

StartChar: exclam
Encoding: 33 33 2
Width: 1024
Flags: HW
LayerCount: 2
Fore
SplineSet
384 0 m 0
 384 256 l 0
 512 256 l 0
 512 0 l 0
 384 0 l 0
384 512 m 0
 384 768 l 0
 512 768 l 0
 512 512 l 0
 384 512 l 0
384 768 m 0
 384 1024 l 0
 512 1024 l 0
 512 768 l 0
 384 768 l 0
384 1024 m 0
 384 1280 l 0
 512 1280 l 0
 512 1024 l 0
 384 1024 l 0
384 1280 m 0
 384 1536 l 0
 512 1536 l 0
 512 1280 l 0
 384 1280 l 0
EndSplineSet
EndChar

StartChar: glyph3
Encoding: 257 65281 3
Width: 2048
VWidth: 0
Flags: HW
LayerCount: 2
Fore
SplineSet
768 0 m 0
 768 256 l 0
 1024 256 l 0
 1024 0 l 0
 768 0 l 0
768 512 m 0
 768 768 l 0
 1024 768 l 0
 1024 512 l 0
 768 512 l 0
768 768 m 0
 768 1024 l 0
 1024 1024 l 0
 1024 768 l 0
 768 768 l 0
768 1024 m 0
 768 1280 l 0
 1024 1280 l 0
 1024 1024 l 0
 768 1024 l 0
768 1280 m 0
 768 1536 l 0
 1024 1536 l 0
 1024 1280 l 0
 768 1280 l 0
EndSplineSet
EndChar

StartChar: quotedbl
Encoding: 34 34 4
Width: 1024
Flags: HW
LayerCount: 2
Fore
SplineSet
256 1024 m 0
 256 1280 l 0
 384 1280 l 0
 384 1024 l 0
 256 1024 l 0
640 1024 m 0
 640 1280 l 0
 768 1280 l 0
 768 1024 l 0
 640 1024 l 0
256 1280 m 0
 256 1536 l 0
 384 1536 l 0
 384 1280 l 0
 256 1280 l 0
640 1280 m 0
 640 1536 l 0
 768 1536 l 0
 768 1280 l 0
 640 1280 l 0
EndSplineSet
EndChar

StartChar: glyph5
Encoding: 258 65282 5
Width: 2048
VWidth: 0
Flags: HW
LayerCount: 2
Fore
SplineSet
512 1024 m 0
 512 1280 l 0
 768 1280 l 0
 768 1024 l 0
 512 1024 l 0
1280 1024 m 0
 1280 1280 l 0
 1536 1280 l 0
 1536 1024 l 0
 1280 1024 l 0
512 1280 m 0
 512 1536 l 0
 768 1536 l 0
 768 1280 l 0
 512 1280 l 0
1280 1280 m 0
 1280 1536 l 0
 1536 1536 l 0
 1536 1280 l 0
 1280 1280 l 0
EndSplineSet
EndChar

StartChar: numbersign
Encoding: 35 35 6
Width: 1024
Flags: HW
LayerCount: 2
Fore
SplineSet
256 0 m 0
 256 256 l 0
 384 256 l 0
 384 0 l 0
 256 0 l 0
640 0 m 0
 640 256 l 0
 768 256 l 0
 768 0 l 0
 640 0 l 0
128 256 m 0
 128 512 l 0
 256 512 l 0
 256 256 l 0
 128 256 l 0
256 256 m 0
 256 512 l 0
 384 512 l 0
 384 256 l 0
 256 256 l 0
384 256 m 0
 384 512 l 0
 512 512 l 0
 512 256 l 0
 384 256 l 0
512 256 m 0
 512 512 l 0
 640 512 l 0
 640 256 l 0
 512 256 l 0
640 256 m 0
 640 512 l 0
 768 512 l 0
 768 256 l 0
 640 256 l 0
768 256 m 0
 768 512 l 0
 896 512 l 0
 896 256 l 0
 768 256 l 0
256 512 m 0
 256 768 l 0
 384 768 l 0
 384 512 l 0
 256 512 l 0
640 512 m 0
 640 768 l 0
 768 768 l 0
 768 512 l 0
 640 512 l 0
256 768 m 0
 256 1024 l 0
 384 1024 l 0
 384 768 l 0
 256 768 l 0
640 768 m 0
 640 1024 l 0
 768 1024 l 0
 768 768 l 0
 640 768 l 0
128 1024 m 0
 128 1280 l 0
 256 1280 l 0
 256 1024 l 0
 128 1024 l 0
256 1024 m 0
 256 1280 l 0
 384 1280 l 0
 384 1024 l 0
 256 1024 l 0
384 1024 m 0
 384 1280 l 0
 512 1280 l 0
 512 1024 l 0
 384 1024 l 0
512 1024 m 0
 512 1280 l 0
 640 1280 l 0
 640 1024 l 0
 512 1024 l 0
640 1024 m 0
 640 1280 l 0
 768 1280 l 0
 768 1024 l 0
 640 1024 l 0
768 1024 m 0
 768 1280 l 0
 896 1280 l 0
 896 1024 l 0
 768 1024 l 0
256 1280 m 0
 256 1536 l 0
 384 1536 l 0
 384 1280 l 0
 256 1280 l 0
640 1280 m 0
 640 1536 l 0
 768 1536 l 0
 768 1280 l 0
 640 1280 l 0
EndSplineSet
EndChar

StartChar: glyph7
Encoding: 259 65283 7
Width: 2048
VWidth: 0
Flags: HW
LayerCount: 2
Fore
SplineSet
512 0 m 0
 512 256 l 0
 768 256 l 0
 768 0 l 0
 512 0 l 0
1280 0 m 0
 1280 256 l 0
 1536 256 l 0
 1536 0 l 0
 1280 0 l 0
256 256 m 0
 256 512 l 0
 512 512 l 0
 512 256 l 0
 256 256 l 0
512 256 m 0
 512 512 l 0
 768 512 l 0
 768 256 l 0
 512 256 l 0
768 256 m 0
 768 512 l 0
 1024 512 l 0
 1024 256 l 0
 768 256 l 0
1024 256 m 0
 1024 512 l 0
 1280 512 l 0
 1280 256 l 0
 1024 256 l 0
1280 256 m 0
 1280 512 l 0
 1536 512 l 0
 1536 256 l 0
 1280 256 l 0
1536 256 m 0
 1536 512 l 0
 1792 512 l 0
 1792 256 l 0
 1536 256 l 0
512 512 m 0
 512 768 l 0
 768 768 l 0
 768 512 l 0
 512 512 l 0
1280 512 m 0
 1280 768 l 0
 1536 768 l 0
 1536 512 l 0
 1280 512 l 0
512 768 m 0
 512 1024 l 0
 768 1024 l 0
 768 768 l 0
 512 768 l 0
1280 768 m 0
 1280 1024 l 0
 1536 1024 l 0
 1536 768 l 0
 1280 768 l 0
256 1024 m 0
 256 1280 l 0
 512 1280 l 0
 512 1024 l 0
 256 1024 l 0
512 1024 m 0
 512 1280 l 0
 768 1280 l 0
 768 1024 l 0
 512 1024 l 0
768 1024 m 0
 768 1280 l 0
 1024 1280 l 0
 1024 1024 l 0
 768 1024 l 0
1024 1024 m 0
 1024 1280 l 0
 1280 1280 l 0
 1280 1024 l 0
 1024 1024 l 0
1280 1024 m 0
 1280 1280 l 0
 1536 1280 l 0
 1536 1024 l 0
 1280 1024 l 0
1536 1024 m 0
 1536 1280 l 0
 1792 1280 l 0
 1792 1024 l 0
 1536 1024 l 0
512 1280 m 0
 512 1536 l 0
 768 1536 l 0
 768 1280 l 0
 512 1280 l 0
1280 1280 m 0
 1280 1536 l 0
 1536 1536 l 0
 1536 1280 l 0
 1280 1280 l 0
EndSplineSet
EndChar

StartChar: dollar
Encoding: 36 36 8
Width: 1024
Flags: HW
LayerCount: 2
Fore
SplineSet
512 -256 m 0
 512 0 l 0
 640 0 l 0
 640 -256 l 0
 512 -256 l 0
256 0 m 0
 256 256 l 0
 384 256 l 0
 384 0 l 0
 256 0 l 0
384 0 m 0
 384 256 l 0
 512 256 l 0
 512 0 l 0
 384 0 l 0
512 0 m 0
 512 256 l 0
 640 256 l 0
 640 0 l 0
 512 0 l 0
640 0 m 0
 640 256 l 0
 768 256 l 0
 768 0 l 0
 640 0 l 0
768 0 m 0
 768 256 l 0
 896 256 l 0
 896 0 l 0
 768 0 l 0
512 256 m 0
 512 512 l 0
 640 512 l 0
 640 256 l 0
 512 256 l 0
768 256 m 0
 768 512 l 0
 896 512 l 0
 896 256 l 0
 768 256 l 0
256 512 m 0
 256 768 l 0
 384 768 l 0
 384 512 l 0
 256 512 l 0
384 512 m 0
 384 768 l 0
 512 768 l 0
 512 512 l 0
 384 512 l 0
512 512 m 0
 512 768 l 0
 640 768 l 0
 640 512 l 0
 512 512 l 0
640 512 m 0
 640 768 l 0
 768 768 l 0
 768 512 l 0
 640 512 l 0
768 512 m 0
 768 768 l 0
 896 768 l 0
 896 512 l 0
 768 512 l 0
256 768 m 0
 256 1024 l 0
 384 1024 l 0
 384 768 l 0
 256 768 l 0
512 768 m 0
 512 1024 l 0
 640 1024 l 0
 640 768 l 0
 512 768 l 0
256 1024 m 0
 256 1280 l 0
 384 1280 l 0
 384 1024 l 0
 256 1024 l 0
384 1024 m 0
 384 1280 l 0
 512 1280 l 0
 512 1024 l 0
 384 1024 l 0
512 1024 m 0
 512 1280 l 0
 640 1280 l 0
 640 1024 l 0
 512 1024 l 0
640 1024 m 0
 640 1280 l 0
 768 1280 l 0
 768 1024 l 0
 640 1024 l 0
768 1024 m 0
 768 1280 l 0
 896 1280 l 0
 896 1024 l 0
 768 1024 l 0
512 1280 m 0
 512 1536 l 0
 640 1536 l 0
 640 1280 l 0
 512 1280 l 0
EndSplineSet
EndChar

StartChar: glyph9
Encoding: 260 65284 9
Width: 2048
VWidth: 0
Flags: HW
LayerCount: 2
Fore
SplineSet
1024 -256 m 0
 1024 0 l 0
 1280 0 l 0
 1280 -256 l 0
 1024 -256 l 0
512 0 m 0
 512 256 l 0
 768 256 l 0
 768 0 l 0
 512 0 l 0
768 0 m 0
 768 256 l 0
 1024 256 l 0
 1024 0 l 0
 768 0 l 0
1024 0 m 0
 1024 256 l 0
 1280 256 l 0
 1280 0 l 0
 1024 0 l 0
1280 0 m 0
 1280 256 l 0
 1536 256 l 0
 1536 0 l 0
 1280 0 l 0
1536 0 m 0
 1536 256 l 0
 1792 256 l 0
 1792 0 l 0
 1536 0 l 0
1024 256 m 0
 1024 512 l 0
 1280 512 l 0
 1280 256 l 0
 1024 256 l 0
1536 256 m 0
 1536 512 l 0
 1792 512 l 0
 1792 256 l 0
 1536 256 l 0
512 512 m 0
 512 768 l 0
 768 768 l 0
 768 512 l 0
 512 512 l 0
768 512 m 0
 768 768 l 0
 1024 768 l 0
 1024 512 l 0
 768 512 l 0
1024 512 m 0
 1024 768 l 0
 1280 768 l 0
 1280 512 l 0
 1024 512 l 0
1280 512 m 0
 1280 768 l 0
 1536 768 l 0
 1536 512 l 0
 1280 512 l 0
1536 512 m 0
 1536 768 l 0
 1792 768 l 0
 1792 512 l 0
 1536 512 l 0
512 768 m 0
 512 1024 l 0
 768 1024 l 0
 768 768 l 0
 512 768 l 0
1024 768 m 0
 1024 1024 l 0
 1280 1024 l 0
 1280 768 l 0
 1024 768 l 0
512 1024 m 0
 512 1280 l 0
 768 1280 l 0
 768 1024 l 0
 512 1024 l 0
768 1024 m 0
 768 1280 l 0
 1024 1280 l 0
 1024 1024 l 0
 768 1024 l 0
1024 1024 m 0
 1024 1280 l 0
 1280 1280 l 0
 1280 1024 l 0
 1024 1024 l 0
1280 1024 m 0
 1280 1280 l 0
 1536 1280 l 0
 1536 1024 l 0
 1280 1024 l 0
1536 1024 m 0
 1536 1280 l 0
 1792 1280 l 0
 1792 1024 l 0
 1536 1024 l 0
1024 1280 m 0
 1024 1536 l 0
 1280 1536 l 0
 1280 1280 l 0
 1024 1280 l 0
EndSplineSet
EndChar

StartChar: percent
Encoding: 37 37 10
Width: 1024
Flags: HW
LayerCount: 2
Fore
SplineSet
128 0 m 0
 128 256 l 0
 256 256 l 0
 256 0 l 0
 128 0 l 0
640 0 m 0
 640 256 l 0
 768 256 l 0
 768 0 l 0
 640 0 l 0
768 0 m 0
 768 256 l 0
 896 256 l 0
 896 0 l 0
 768 0 l 0
256 256 m 0
 256 512 l 0
 384 512 l 0
 384 256 l 0
 256 256 l 0
640 256 m 0
 640 512 l 0
 768 512 l 0
 768 256 l 0
 640 256 l 0
768 256 m 0
 768 512 l 0
 896 512 l 0
 896 256 l 0
 768 256 l 0
384 512 m 0
 384 768 l 0
 512 768 l 0
 512 512 l 0
 384 512 l 0
512 768 m 0
 512 1024 l 0
 640 1024 l 0
 640 768 l 0
 512 768 l 0
128 1024 m 0
 128 1280 l 0
 256 1280 l 0
 256 1024 l 0
 128 1024 l 0
256 1024 m 0
 256 1280 l 0
 384 1280 l 0
 384 1024 l 0
 256 1024 l 0
640 1024 m 0
 640 1280 l 0
 768 1280 l 0
 768 1024 l 0
 640 1024 l 0
128 1280 m 0
 128 1536 l 0
 256 1536 l 0
 256 1280 l 0
 128 1280 l 0
256 1280 m 0
 256 1536 l 0
 384 1536 l 0
 384 1280 l 0
 256 1280 l 0
768 1280 m 0
 768 1536 l 0
 896 1536 l 0
 896 1280 l 0
 768 1280 l 0
EndSplineSet
EndChar

StartChar: glyph11
Encoding: 261 65285 11
Width: 2048
VWidth: 0
Flags: HW
LayerCount: 2
Fore
SplineSet
256 0 m 0
 256 256 l 0
 512 256 l 0
 512 0 l 0
 256 0 l 0
1280 0 m 0
 1280 256 l 0
 1536 256 l 0
 1536 0 l 0
 1280 0 l 0
1536 0 m 0
 1536 256 l 0
 1792 256 l 0
 1792 0 l 0
 1536 0 l 0
512 256 m 0
 512 512 l 0
 768 512 l 0
 768 256 l 0
 512 256 l 0
1280 256 m 0
 1280 512 l 0
 1536 512 l 0
 1536 256 l 0
 1280 256 l 0
1536 256 m 0
 1536 512 l 0
 1792 512 l 0
 1792 256 l 0
 1536 256 l 0
768 512 m 0
 768 768 l 0
 1024 768 l 0
 1024 512 l 0
 768 512 l 0
1024 768 m 0
 1024 1024 l 0
 1280 1024 l 0
 1280 768 l 0
 1024 768 l 0
256 1024 m 0
 256 1280 l 0
 512 1280 l 0
 512 1024 l 0
 256 1024 l 0
512 1024 m 0
 512 1280 l 0
 768 1280 l 0
 768 1024 l 0
 512 1024 l 0
1280 1024 m 0
 1280 1280 l 0
 1536 1280 l 0
 1536 1024 l 0
 1280 1024 l 0
256 1280 m 0
 256 1536 l 0
 512 1536 l 0
 512 1280 l 0
 256 1280 l 0
512 1280 m 0
 512 1536 l 0
 768 1536 l 0
 768 1280 l 0
 512 1280 l 0
1536 1280 m 0
 1536 1536 l 0
 1792 1536 l 0
 1792 1280 l 0
 1536 1280 l 0
EndSplineSet
EndChar

StartChar: ampersand
Encoding: 38 38 12
Width: 1024
Flags: HW
LayerCount: 2
Fore
SplineSet
256 0 m 0
 256 256 l 0
 384 256 l 0
 384 0 l 0
 256 0 l 0
384 0 m 0
 384 256 l 0
 512 256 l 0
 512 0 l 0
 384 0 l 0
512 0 m 0
 512 256 l 0
 640 256 l 0
 640 0 l 0
 512 0 l 0
768 0 m 0
 768 256 l 0
 896 256 l 0
 896 0 l 0
 768 0 l 0
128 256 m 0
 128 512 l 0
 256 512 l 0
 256 256 l 0
 128 256 l 0
640 256 m 0
 640 512 l 0
 768 512 l 0
 768 256 l 0
 640 256 l 0
256 512 m 0
 256 768 l 0
 384 768 l 0
 384 512 l 0
 256 512 l 0
512 512 m 0
 512 768 l 0
 640 768 l 0
 640 512 l 0
 512 512 l 0
768 512 m 0
 768 768 l 0
 896 768 l 0
 896 512 l 0
 768 512 l 0
384 768 m 0
 384 1024 l 0
 512 1024 l 0
 512 768 l 0
 384 768 l 0
256 1024 m 0
 256 1280 l 0
 384 1280 l 0
 384 1024 l 0
 256 1024 l 0
512 1024 m 0
 512 1280 l 0
 640 1280 l 0
 640 1024 l 0
 512 1024 l 0
384 1280 m 0
 384 1536 l 0
 512 1536 l 0
 512 1280 l 0
 384 1280 l 0
EndSplineSet
EndChar

StartChar: glyph13
Encoding: 262 65286 13
Width: 2048
VWidth: 0
Flags: HW
LayerCount: 2
Fore
SplineSet
512 0 m 0
 512 256 l 0
 768 256 l 0
 768 0 l 0
 512 0 l 0
768 0 m 0
 768 256 l 0
 1024 256 l 0
 1024 0 l 0
 768 0 l 0
1024 0 m 0
 1024 256 l 0
 1280 256 l 0
 1280 0 l 0
 1024 0 l 0
1536 0 m 0
 1536 256 l 0
 1792 256 l 0
 1792 0 l 0
 1536 0 l 0
256 256 m 0
 256 512 l 0
 512 512 l 0
 512 256 l 0
 256 256 l 0
1280 256 m 0
 1280 512 l 0
 1536 512 l 0
 1536 256 l 0
 1280 256 l 0
512 512 m 0
 512 768 l 0
 768 768 l 0
 768 512 l 0
 512 512 l 0
1024 512 m 0
 1024 768 l 0
 1280 768 l 0
 1280 512 l 0
 1024 512 l 0
1536 512 m 0
 1536 768 l 0
 1792 768 l 0
 1792 512 l 0
 1536 512 l 0
768 768 m 0
 768 1024 l 0
 1024 1024 l 0
 1024 768 l 0
 768 768 l 0
512 1024 m 0
 512 1280 l 0
 768 1280 l 0
 768 1024 l 0
 512 1024 l 0
1024 1024 m 0
 1024 1280 l 0
 1280 1280 l 0
 1280 1024 l 0
 1024 1024 l 0
768 1280 m 0
 768 1536 l 0
 1024 1536 l 0
 1024 1280 l 0
 768 1280 l 0
EndSplineSet
EndChar

StartChar: quotesingle
Encoding: 39 39 14
Width: 1024
Flags: HW
LayerCount: 2
Fore
SplineSet
384 1024 m 0
 384 1280 l 0
 512 1280 l 0
 512 1024 l 0
 384 1024 l 0
512 1280 m 0
 512 1536 l 0
 640 1536 l 0
 640 1280 l 0
 512 1280 l 0
EndSplineSet
EndChar

StartChar: glyph15
Encoding: 263 65287 15
Width: 2048
VWidth: 0
Flags: HW
LayerCount: 2
Fore
SplineSet
768 1024 m 0
 768 1280 l 0
 1024 1280 l 0
 1024 1024 l 0
 768 1024 l 0
1024 1280 m 0
 1024 1536 l 0
 1280 1536 l 0
 1280 1280 l 0
 1024 1280 l 0
EndSplineSet
EndChar

StartChar: parenleft
Encoding: 40 40 16
Width: 1024
Flags: HW
LayerCount: 2
Fore
SplineSet
640 0 m 0
 640 256 l 0
 768 256 l 0
 768 0 l 0
 640 0 l 0
512 256 m 0
 512 512 l 0
 640 512 l 0
 640 256 l 0
 512 256 l 0
512 512 m 0
 512 768 l 0
 640 768 l 0
 640 512 l 0
 512 512 l 0
512 768 m 0
 512 1024 l 0
 640 1024 l 0
 640 768 l 0
 512 768 l 0
512 1024 m 0
 512 1280 l 0
 640 1280 l 0
 640 1024 l 0
 512 1024 l 0
640 1280 m 0
 640 1536 l 0
 768 1536 l 0
 768 1280 l 0
 640 1280 l 0
EndSplineSet
EndChar

StartChar: glyph17
Encoding: 264 65288 17
Width: 2048
VWidth: 0
Flags: HW
LayerCount: 2
Fore
SplineSet
1280 0 m 0
 1280 256 l 0
 1536 256 l 0
 1536 0 l 0
 1280 0 l 0
1024 256 m 0
 1024 512 l 0
 1280 512 l 0
 1280 256 l 0
 1024 256 l 0
1024 512 m 0
 1024 768 l 0
 1280 768 l 0
 1280 512 l 0
 1024 512 l 0
1024 768 m 0
 1024 1024 l 0
 1280 1024 l 0
 1280 768 l 0
 1024 768 l 0
1024 1024 m 0
 1024 1280 l 0
 1280 1280 l 0
 1280 1024 l 0
 1024 1024 l 0
1280 1280 m 0
 1280 1536 l 0
 1536 1536 l 0
 1536 1280 l 0
 1280 1280 l 0
EndSplineSet
EndChar

StartChar: parenright
Encoding: 41 41 18
Width: 1024
Flags: HW
LayerCount: 2
Fore
SplineSet
256 0 m 0
 256 256 l 0
 384 256 l 0
 384 0 l 0
 256 0 l 0
384 256 m 0
 384 512 l 0
 512 512 l 0
 512 256 l 0
 384 256 l 0
384 512 m 0
 384 768 l 0
 512 768 l 0
 512 512 l 0
 384 512 l 0
384 768 m 0
 384 1024 l 0
 512 1024 l 0
 512 768 l 0
 384 768 l 0
384 1024 m 0
 384 1280 l 0
 512 1280 l 0
 512 1024 l 0
 384 1024 l 0
256 1280 m 0
 256 1536 l 0
 384 1536 l 0
 384 1280 l 0
 256 1280 l 0
EndSplineSet
EndChar

StartChar: glyph19
Encoding: 265 65289 19
Width: 2048
VWidth: 0
Flags: HW
LayerCount: 2
Fore
SplineSet
512 0 m 0
 512 256 l 0
 768 256 l 0
 768 0 l 0
 512 0 l 0
768 256 m 0
 768 512 l 0
 1024 512 l 0
 1024 256 l 0
 768 256 l 0
768 512 m 0
 768 768 l 0
 1024 768 l 0
 1024 512 l 0
 768 512 l 0
768 768 m 0
 768 1024 l 0
 1024 1024 l 0
 1024 768 l 0
 768 768 l 0
768 1024 m 0
 768 1280 l 0
 1024 1280 l 0
 1024 1024 l 0
 768 1024 l 0
512 1280 m 0
 512 1536 l 0
 768 1536 l 0
 768 1280 l 0
 512 1280 l 0
EndSplineSet
EndChar

StartChar: asterisk
Encoding: 42 42 20
Width: 1024
Flags: HW
LayerCount: 2
Fore
SplineSet
384 0 m 0
 384 256 l 0
 512 256 l 0
 512 0 l 0
 384 0 l 0
640 0 m 0
 640 256 l 0
 768 256 l 0
 768 0 l 0
 640 0 l 0
512 256 m 0
 512 512 l 0
 640 512 l 0
 640 256 l 0
 512 256 l 0
256 512 m 0
 256 768 l 0
 384 768 l 0
 384 512 l 0
 256 512 l 0
384 512 m 0
 384 768 l 0
 512 768 l 0
 512 512 l 0
 384 512 l 0
512 512 m 0
 512 768 l 0
 640 768 l 0
 640 512 l 0
 512 512 l 0
640 512 m 0
 640 768 l 0
 768 768 l 0
 768 512 l 0
 640 512 l 0
768 512 m 0
 768 768 l 0
 896 768 l 0
 896 512 l 0
 768 512 l 0
512 768 m 0
 512 1024 l 0
 640 1024 l 0
 640 768 l 0
 512 768 l 0
384 1024 m 0
 384 1280 l 0
 512 1280 l 0
 512 1024 l 0
 384 1024 l 0
640 1024 m 0
 640 1280 l 0
 768 1280 l 0
 768 1024 l 0
 640 1024 l 0
EndSplineSet
EndChar

StartChar: glyph21
Encoding: 266 65290 21
Width: 2048
VWidth: 0
Flags: HW
LayerCount: 2
Fore
SplineSet
768 0 m 0
 768 256 l 0
 1024 256 l 0
 1024 0 l 0
 768 0 l 0
1280 0 m 0
 1280 256 l 0
 1536 256 l 0
 1536 0 l 0
 1280 0 l 0
1024 256 m 0
 1024 512 l 0
 1280 512 l 0
 1280 256 l 0
 1024 256 l 0
512 512 m 0
 512 768 l 0
 768 768 l 0
 768 512 l 0
 512 512 l 0
768 512 m 0
 768 768 l 0
 1024 768 l 0
 1024 512 l 0
 768 512 l 0
1024 512 m 0
 1024 768 l 0
 1280 768 l 0
 1280 512 l 0
 1024 512 l 0
1280 512 m 0
 1280 768 l 0
 1536 768 l 0
 1536 512 l 0
 1280 512 l 0
1536 512 m 0
 1536 768 l 0
 1792 768 l 0
 1792 512 l 0
 1536 512 l 0
1024 768 m 0
 1024 1024 l 0
 1280 1024 l 0
 1280 768 l 0
 1024 768 l 0
768 1024 m 0
 768 1280 l 0
 1024 1280 l 0
 1024 1024 l 0
 768 1024 l 0
1280 1024 m 0
 1280 1280 l 0
 1536 1280 l 0
 1536 1024 l 0
 1280 1024 l 0
EndSplineSet
EndChar

StartChar: plus
Encoding: 43 43 22
Width: 1024
Flags: HW
LayerCount: 2
Fore
SplineSet
512 0 m 0
 512 256 l 0
 640 256 l 0
 640 0 l 0
 512 0 l 0
512 256 m 0
 512 512 l 0
 640 512 l 0
 640 256 l 0
 512 256 l 0
256 512 m 0
 256 768 l 0
 384 768 l 0
 384 512 l 0
 256 512 l 0
384 512 m 0
 384 768 l 0
 512 768 l 0
 512 512 l 0
 384 512 l 0
512 512 m 0
 512 768 l 0
 640 768 l 0
 640 512 l 0
 512 512 l 0
640 512 m 0
 640 768 l 0
 768 768 l 0
 768 512 l 0
 640 512 l 0
768 512 m 0
 768 768 l 0
 896 768 l 0
 896 512 l 0
 768 512 l 0
512 768 m 0
 512 1024 l 0
 640 1024 l 0
 640 768 l 0
 512 768 l 0
512 1024 m 0
 512 1280 l 0
 640 1280 l 0
 640 1024 l 0
 512 1024 l 0
EndSplineSet
EndChar

StartChar: glyph23
Encoding: 267 65291 23
Width: 2048
VWidth: 0
Flags: HW
LayerCount: 2
Fore
SplineSet
1024 0 m 0
 1024 256 l 0
 1280 256 l 0
 1280 0 l 0
 1024 0 l 0
1024 256 m 0
 1024 512 l 0
 1280 512 l 0
 1280 256 l 0
 1024 256 l 0
512 512 m 0
 512 768 l 0
 768 768 l 0
 768 512 l 0
 512 512 l 0
768 512 m 0
 768 768 l 0
 1024 768 l 0
 1024 512 l 0
 768 512 l 0
1024 512 m 0
 1024 768 l 0
 1280 768 l 0
 1280 512 l 0
 1024 512 l 0
1280 512 m 0
 1280 768 l 0
 1536 768 l 0
 1536 512 l 0
 1280 512 l 0
1536 512 m 0
 1536 768 l 0
 1792 768 l 0
 1792 512 l 0
 1536 512 l 0
1024 768 m 0
 1024 1024 l 0
 1280 1024 l 0
 1280 768 l 0
 1024 768 l 0
1024 1024 m 0
 1024 1280 l 0
 1280 1280 l 0
 1280 1024 l 0
 1024 1024 l 0
EndSplineSet
EndChar

StartChar: comma
Encoding: 44 44 24
Width: 1024
Flags: HW
LayerCount: 2
Fore
SplineSet
384 -256 m 0
 384 0 l 0
 512 0 l 0
 512 -256 l 0
 384 -256 l 0
512 0 m 0
 512 256 l 0
 640 256 l 0
 640 0 l 0
 512 0 l 0
512 256 m 0
 512 512 l 0
 640 512 l 0
 640 256 l 0
 512 256 l 0
EndSplineSet
EndChar

StartChar: glyph25
Encoding: 268 65292 25
Width: 2048
VWidth: 0
Flags: HW
LayerCount: 2
Fore
SplineSet
768 -256 m 0
 768 0 l 0
 1024 0 l 0
 1024 -256 l 0
 768 -256 l 0
1024 0 m 0
 1024 256 l 0
 1280 256 l 0
 1280 0 l 0
 1024 0 l 0
1024 256 m 0
 1024 512 l 0
 1280 512 l 0
 1280 256 l 0
 1024 256 l 0
EndSplineSet
EndChar

StartChar: hyphen
Encoding: 45 45 26
Width: 1024
Flags: HW
LayerCount: 2
Fore
SplineSet
256 512 m 0
 256 768 l 0
 384 768 l 0
 384 512 l 0
 256 512 l 0
384 512 m 0
 384 768 l 0
 512 768 l 0
 512 512 l 0
 384 512 l 0
512 512 m 0
 512 768 l 0
 640 768 l 0
 640 512 l 0
 512 512 l 0
640 512 m 0
 640 768 l 0
 768 768 l 0
 768 512 l 0
 640 512 l 0
768 512 m 0
 768 768 l 0
 896 768 l 0
 896 512 l 0
 768 512 l 0
EndSplineSet
EndChar

StartChar: glyph27
Encoding: 269 65293 27
Width: 2048
VWidth: 0
Flags: HW
LayerCount: 2
Fore
SplineSet
512 512 m 0
 512 768 l 0
 768 768 l 0
 768 512 l 0
 512 512 l 0
768 512 m 0
 768 768 l 0
 1024 768 l 0
 1024 512 l 0
 768 512 l 0
1024 512 m 0
 1024 768 l 0
 1280 768 l 0
 1280 512 l 0
 1024 512 l 0
1280 512 m 0
 1280 768 l 0
 1536 768 l 0
 1536 512 l 0
 1280 512 l 0
1536 512 m 0
 1536 768 l 0
 1792 768 l 0
 1792 512 l 0
 1536 512 l 0
EndSplineSet
EndChar

StartChar: period
Encoding: 46 46 28
Width: 1024
Flags: HW
LayerCount: 2
Fore
SplineSet
384 0 m 0
 384 256 l 0
 512 256 l 0
 512 0 l 0
 384 0 l 0
512 0 m 0
 512 256 l 0
 640 256 l 0
 640 0 l 0
 512 0 l 0
384 256 m 0
 384 512 l 0
 512 512 l 0
 512 256 l 0
 384 256 l 0
512 256 m 0
 512 512 l 0
 640 512 l 0
 640 256 l 0
 512 256 l 0
EndSplineSet
EndChar

StartChar: glyph29
Encoding: 270 65294 29
Width: 2048
VWidth: 0
Flags: HW
LayerCount: 2
Fore
SplineSet
768 0 m 0
 768 256 l 0
 1024 256 l 0
 1024 0 l 0
 768 0 l 0
1024 0 m 0
 1024 256 l 0
 1280 256 l 0
 1280 0 l 0
 1024 0 l 0
768 256 m 0
 768 512 l 0
 1024 512 l 0
 1024 256 l 0
 768 256 l 0
1024 256 m 0
 1024 512 l 0
 1280 512 l 0
 1280 256 l 0
 1024 256 l 0
EndSplineSet
EndChar

StartChar: slash
Encoding: 47 47 30
Width: 1024
Flags: HW
LayerCount: 2
Fore
SplineSet
256 0 m 0
 256 256 l 0
 384 256 l 0
 384 0 l 0
 256 0 l 0
384 256 m 0
 384 512 l 0
 512 512 l 0
 512 256 l 0
 384 256 l 0
512 512 m 0
 512 768 l 0
 640 768 l 0
 640 512 l 0
 512 512 l 0
640 768 m 0
 640 1024 l 0
 768 1024 l 0
 768 768 l 0
 640 768 l 0
768 1024 m 0
 768 1280 l 0
 896 1280 l 0
 896 1024 l 0
 768 1024 l 0
EndSplineSet
EndChar

StartChar: glyph31
Encoding: 271 65295 31
Width: 2048
VWidth: 0
Flags: HW
LayerCount: 2
Fore
SplineSet
512 0 m 0
 512 256 l 0
 768 256 l 0
 768 0 l 0
 512 0 l 0
768 256 m 0
 768 512 l 0
 1024 512 l 0
 1024 256 l 0
 768 256 l 0
1024 512 m 0
 1024 768 l 0
 1280 768 l 0
 1280 512 l 0
 1024 512 l 0
1280 768 m 0
 1280 1024 l 0
 1536 1024 l 0
 1536 768 l 0
 1280 768 l 0
1536 1024 m 0
 1536 1280 l 0
 1792 1280 l 0
 1792 1024 l 0
 1536 1024 l 0
EndSplineSet
EndChar

StartChar: zero
Encoding: 48 48 32
Width: 1024
Flags: HW
LayerCount: 2
Fore
SplineSet
256 0 m 0
 256 256 l 0
 384 256 l 0
 384 0 l 0
 256 0 l 0
384 0 m 0
 384 256 l 0
 512 256 l 0
 512 0 l 0
 384 0 l 0
512 0 m 0
 512 256 l 0
 640 256 l 0
 640 0 l 0
 512 0 l 0
640 0 m 0
 640 256 l 0
 768 256 l 0
 768 0 l 0
 640 0 l 0
128 256 m 0
 128 512 l 0
 256 512 l 0
 256 256 l 0
 128 256 l 0
256 256 m 0
 256 512 l 0
 384 512 l 0
 384 256 l 0
 256 256 l 0
768 256 m 0
 768 512 l 0
 896 512 l 0
 896 256 l 0
 768 256 l 0
128 512 m 0
 128 768 l 0
 256 768 l 0
 256 512 l 0
 128 512 l 0
384 512 m 0
 384 768 l 0
 512 768 l 0
 512 512 l 0
 384 512 l 0
768 512 m 0
 768 768 l 0
 896 768 l 0
 896 512 l 0
 768 512 l 0
128 768 m 0
 128 1024 l 0
 256 1024 l 0
 256 768 l 0
 128 768 l 0
512 768 m 0
 512 1024 l 0
 640 1024 l 0
 640 768 l 0
 512 768 l 0
768 768 m 0
 768 1024 l 0
 896 1024 l 0
 896 768 l 0
 768 768 l 0
128 1024 m 0
 128 1280 l 0
 256 1280 l 0
 256 1024 l 0
 128 1024 l 0
640 1024 m 0
 640 1280 l 0
 768 1280 l 0
 768 1024 l 0
 640 1024 l 0
768 1024 m 0
 768 1280 l 0
 896 1280 l 0
 896 1024 l 0
 768 1024 l 0
256 1280 m 0
 256 1536 l 0
 384 1536 l 0
 384 1280 l 0
 256 1280 l 0
384 1280 m 0
 384 1536 l 0
 512 1536 l 0
 512 1280 l 0
 384 1280 l 0
512 1280 m 0
 512 1536 l 0
 640 1536 l 0
 640 1280 l 0
 512 1280 l 0
640 1280 m 0
 640 1536 l 0
 768 1536 l 0
 768 1280 l 0
 640 1280 l 0
EndSplineSet
EndChar

StartChar: glyph33
Encoding: 272 65296 33
Width: 2048
VWidth: 0
Flags: HW
LayerCount: 2
Fore
SplineSet
512 0 m 0
 512 256 l 0
 768 256 l 0
 768 0 l 0
 512 0 l 0
768 0 m 0
 768 256 l 0
 1024 256 l 0
 1024 0 l 0
 768 0 l 0
1024 0 m 0
 1024 256 l 0
 1280 256 l 0
 1280 0 l 0
 1024 0 l 0
1280 0 m 0
 1280 256 l 0
 1536 256 l 0
 1536 0 l 0
 1280 0 l 0
256 256 m 0
 256 512 l 0
 512 512 l 0
 512 256 l 0
 256 256 l 0
512 256 m 0
 512 512 l 0
 768 512 l 0
 768 256 l 0
 512 256 l 0
1536 256 m 0
 1536 512 l 0
 1792 512 l 0
 1792 256 l 0
 1536 256 l 0
256 512 m 0
 256 768 l 0
 512 768 l 0
 512 512 l 0
 256 512 l 0
768 512 m 0
 768 768 l 0
 1024 768 l 0
 1024 512 l 0
 768 512 l 0
1536 512 m 0
 1536 768 l 0
 1792 768 l 0
 1792 512 l 0
 1536 512 l 0
256 768 m 0
 256 1024 l 0
 512 1024 l 0
 512 768 l 0
 256 768 l 0
1024 768 m 0
 1024 1024 l 0
 1280 1024 l 0
 1280 768 l 0
 1024 768 l 0
1536 768 m 0
 1536 1024 l 0
 1792 1024 l 0
 1792 768 l 0
 1536 768 l 0
256 1024 m 0
 256 1280 l 0
 512 1280 l 0
 512 1024 l 0
 256 1024 l 0
1280 1024 m 0
 1280 1280 l 0
 1536 1280 l 0
 1536 1024 l 0
 1280 1024 l 0
1536 1024 m 0
 1536 1280 l 0
 1792 1280 l 0
 1792 1024 l 0
 1536 1024 l 0
512 1280 m 0
 512 1536 l 0
 768 1536 l 0
 768 1280 l 0
 512 1280 l 0
768 1280 m 0
 768 1536 l 0
 1024 1536 l 0
 1024 1280 l 0
 768 1280 l 0
1024 1280 m 0
 1024 1536 l 0
 1280 1536 l 0
 1280 1280 l 0
 1024 1280 l 0
1280 1280 m 0
 1280 1536 l 0
 1536 1536 l 0
 1536 1280 l 0
 1280 1280 l 0
EndSplineSet
EndChar

StartChar: one
Encoding: 49 49 34
Width: 1024
Flags: HW
LayerCount: 2
Fore
SplineSet
256 0 m 0
 256 256 l 0
 384 256 l 0
 384 0 l 0
 256 0 l 0
384 0 m 0
 384 256 l 0
 512 256 l 0
 512 0 l 0
 384 0 l 0
512 0 m 0
 512 256 l 0
 640 256 l 0
 640 0 l 0
 512 0 l 0
640 0 m 0
 640 256 l 0
 768 256 l 0
 768 0 l 0
 640 0 l 0
768 0 m 0
 768 256 l 0
 896 256 l 0
 896 0 l 0
 768 0 l 0
512 256 m 0
 512 512 l 0
 640 512 l 0
 640 256 l 0
 512 256 l 0
512 512 m 0
 512 768 l 0
 640 768 l 0
 640 512 l 0
 512 512 l 0
512 768 m 0
 512 1024 l 0
 640 1024 l 0
 640 768 l 0
 512 768 l 0
256 1024 m 0
 256 1280 l 0
 384 1280 l 0
 384 1024 l 0
 256 1024 l 0
512 1024 m 0
 512 1280 l 0
 640 1280 l 0
 640 1024 l 0
 512 1024 l 0
384 1280 m 0
 384 1536 l 0
 512 1536 l 0
 512 1280 l 0
 384 1280 l 0
512 1280 m 0
 512 1536 l 0
 640 1536 l 0
 640 1280 l 0
 512 1280 l 0
EndSplineSet
EndChar

StartChar: glyph35
Encoding: 273 65297 35
Width: 2048
VWidth: 0
Flags: HW
LayerCount: 2
Fore
SplineSet
512 0 m 0
 512 256 l 0
 768 256 l 0
 768 0 l 0
 512 0 l 0
768 0 m 0
 768 256 l 0
 1024 256 l 0
 1024 0 l 0
 768 0 l 0
1024 0 m 0
 1024 256 l 0
 1280 256 l 0
 1280 0 l 0
 1024 0 l 0
1280 0 m 0
 1280 256 l 0
 1536 256 l 0
 1536 0 l 0
 1280 0 l 0
1536 0 m 0
 1536 256 l 0
 1792 256 l 0
 1792 0 l 0
 1536 0 l 0
1024 256 m 0
 1024 512 l 0
 1280 512 l 0
 1280 256 l 0
 1024 256 l 0
1024 512 m 0
 1024 768 l 0
 1280 768 l 0
 1280 512 l 0
 1024 512 l 0
1024 768 m 0
 1024 1024 l 0
 1280 1024 l 0
 1280 768 l 0
 1024 768 l 0
512 1024 m 0
 512 1280 l 0
 768 1280 l 0
 768 1024 l 0
 512 1024 l 0
1024 1024 m 0
 1024 1280 l 0
 1280 1280 l 0
 1280 1024 l 0
 1024 1024 l 0
768 1280 m 0
 768 1536 l 0
 1024 1536 l 0
 1024 1280 l 0
 768 1280 l 0
1024 1280 m 0
 1024 1536 l 0
 1280 1536 l 0
 1280 1280 l 0
 1024 1280 l 0
EndSplineSet
EndChar

StartChar: two
Encoding: 50 50 36
Width: 1024
Flags: HW
LayerCount: 2
Fore
SplineSet
128 0 m 0
 128 256 l 0
 256 256 l 0
 256 0 l 0
 128 0 l 0
256 0 m 0
 256 256 l 0
 384 256 l 0
 384 0 l 0
 256 0 l 0
384 0 m 0
 384 256 l 0
 512 256 l 0
 512 0 l 0
 384 0 l 0
512 0 m 0
 512 256 l 0
 640 256 l 0
 640 0 l 0
 512 0 l 0
640 0 m 0
 640 256 l 0
 768 256 l 0
 768 0 l 0
 640 0 l 0
768 0 m 0
 768 256 l 0
 896 256 l 0
 896 0 l 0
 768 0 l 0
128 256 m 0
 128 512 l 0
 256 512 l 0
 256 256 l 0
 128 256 l 0
256 512 m 0
 256 768 l 0
 384 768 l 0
 384 512 l 0
 256 512 l 0
384 512 m 0
 384 768 l 0
 512 768 l 0
 512 512 l 0
 384 512 l 0
512 512 m 0
 512 768 l 0
 640 768 l 0
 640 512 l 0
 512 512 l 0
640 512 m 0
 640 768 l 0
 768 768 l 0
 768 512 l 0
 640 512 l 0
768 768 m 0
 768 1024 l 0
 896 1024 l 0
 896 768 l 0
 768 768 l 0
128 1024 m 0
 128 1280 l 0
 256 1280 l 0
 256 1024 l 0
 128 1024 l 0
768 1024 m 0
 768 1280 l 0
 896 1280 l 0
 896 1024 l 0
 768 1024 l 0
256 1280 m 0
 256 1536 l 0
 384 1536 l 0
 384 1280 l 0
 256 1280 l 0
384 1280 m 0
 384 1536 l 0
 512 1536 l 0
 512 1280 l 0
 384 1280 l 0
512 1280 m 0
 512 1536 l 0
 640 1536 l 0
 640 1280 l 0
 512 1280 l 0
640 1280 m 0
 640 1536 l 0
 768 1536 l 0
 768 1280 l 0
 640 1280 l 0
EndSplineSet
EndChar

StartChar: glyph37
Encoding: 274 65298 37
Width: 2048
VWidth: 0
Flags: HW
LayerCount: 2
Fore
SplineSet
256 0 m 0
 256 256 l 0
 512 256 l 0
 512 0 l 0
 256 0 l 0
512 0 m 0
 512 256 l 0
 768 256 l 0
 768 0 l 0
 512 0 l 0
768 0 m 0
 768 256 l 0
 1024 256 l 0
 1024 0 l 0
 768 0 l 0
1024 0 m 0
 1024 256 l 0
 1280 256 l 0
 1280 0 l 0
 1024 0 l 0
1280 0 m 0
 1280 256 l 0
 1536 256 l 0
 1536 0 l 0
 1280 0 l 0
1536 0 m 0
 1536 256 l 0
 1792 256 l 0
 1792 0 l 0
 1536 0 l 0
256 256 m 0
 256 512 l 0
 512 512 l 0
 512 256 l 0
 256 256 l 0
512 512 m 0
 512 768 l 0
 768 768 l 0
 768 512 l 0
 512 512 l 0
768 512 m 0
 768 768 l 0
 1024 768 l 0
 1024 512 l 0
 768 512 l 0
1024 512 m 0
 1024 768 l 0
 1280 768 l 0
 1280 512 l 0
 1024 512 l 0
1280 512 m 0
 1280 768 l 0
 1536 768 l 0
 1536 512 l 0
 1280 512 l 0
1536 768 m 0
 1536 1024 l 0
 1792 1024 l 0
 1792 768 l 0
 1536 768 l 0
256 1024 m 0
 256 1280 l 0
 512 1280 l 0
 512 1024 l 0
 256 1024 l 0
1536 1024 m 0
 1536 1280 l 0
 1792 1280 l 0
 1792 1024 l 0
 1536 1024 l 0
512 1280 m 0
 512 1536 l 0
 768 1536 l 0
 768 1280 l 0
 512 1280 l 0
768 1280 m 0
 768 1536 l 0
 1024 1536 l 0
 1024 1280 l 0
 768 1280 l 0
1024 1280 m 0
 1024 1536 l 0
 1280 1536 l 0
 1280 1280 l 0
 1024 1280 l 0
1280 1280 m 0
 1280 1536 l 0
 1536 1536 l 0
 1536 1280 l 0
 1280 1280 l 0
EndSplineSet
EndChar

StartChar: three
Encoding: 51 51 38
Width: 1024
Flags: HW
LayerCount: 2
Fore
SplineSet
256 0 m 0
 256 256 l 0
 384 256 l 0
 384 0 l 0
 256 0 l 0
384 0 m 0
 384 256 l 0
 512 256 l 0
 512 0 l 0
 384 0 l 0
512 0 m 0
 512 256 l 0
 640 256 l 0
 640 0 l 0
 512 0 l 0
640 0 m 0
 640 256 l 0
 768 256 l 0
 768 0 l 0
 640 0 l 0
128 256 m 0
 128 512 l 0
 256 512 l 0
 256 256 l 0
 128 256 l 0
768 256 m 0
 768 512 l 0
 896 512 l 0
 896 256 l 0
 768 256 l 0
768 512 m 0
 768 768 l 0
 896 768 l 0
 896 512 l 0
 768 512 l 0
512 768 m 0
 512 1024 l 0
 640 1024 l 0
 640 768 l 0
 512 768 l 0
640 768 m 0
 640 1024 l 0
 768 1024 l 0
 768 768 l 0
 640 768 l 0
128 1024 m 0
 128 1280 l 0
 256 1280 l 0
 256 1024 l 0
 128 1024 l 0
768 1024 m 0
 768 1280 l 0
 896 1280 l 0
 896 1024 l 0
 768 1024 l 0
256 1280 m 0
 256 1536 l 0
 384 1536 l 0
 384 1280 l 0
 256 1280 l 0
384 1280 m 0
 384 1536 l 0
 512 1536 l 0
 512 1280 l 0
 384 1280 l 0
512 1280 m 0
 512 1536 l 0
 640 1536 l 0
 640 1280 l 0
 512 1280 l 0
640 1280 m 0
 640 1536 l 0
 768 1536 l 0
 768 1280 l 0
 640 1280 l 0
EndSplineSet
EndChar

StartChar: glyph39
Encoding: 275 65299 39
Width: 2048
VWidth: 0
Flags: HW
LayerCount: 2
Fore
SplineSet
512 0 m 0
 512 256 l 0
 768 256 l 0
 768 0 l 0
 512 0 l 0
768 0 m 0
 768 256 l 0
 1024 256 l 0
 1024 0 l 0
 768 0 l 0
1024 0 m 0
 1024 256 l 0
 1280 256 l 0
 1280 0 l 0
 1024 0 l 0
1280 0 m 0
 1280 256 l 0
 1536 256 l 0
 1536 0 l 0
 1280 0 l 0
256 256 m 0
 256 512 l 0
 512 512 l 0
 512 256 l 0
 256 256 l 0
1536 256 m 0
 1536 512 l 0
 1792 512 l 0
 1792 256 l 0
 1536 256 l 0
1536 512 m 0
 1536 768 l 0
 1792 768 l 0
 1792 512 l 0
 1536 512 l 0
1024 768 m 0
 1024 1024 l 0
 1280 1024 l 0
 1280 768 l 0
 1024 768 l 0
1280 768 m 0
 1280 1024 l 0
 1536 1024 l 0
 1536 768 l 0
 1280 768 l 0
256 1024 m 0
 256 1280 l 0
 512 1280 l 0
 512 1024 l 0
 256 1024 l 0
1536 1024 m 0
 1536 1280 l 0
 1792 1280 l 0
 1792 1024 l 0
 1536 1024 l 0
512 1280 m 0
 512 1536 l 0
 768 1536 l 0
 768 1280 l 0
 512 1280 l 0
768 1280 m 0
 768 1536 l 0
 1024 1536 l 0
 1024 1280 l 0
 768 1280 l 0
1024 1280 m 0
 1024 1536 l 0
 1280 1536 l 0
 1280 1280 l 0
 1024 1280 l 0
1280 1280 m 0
 1280 1536 l 0
 1536 1536 l 0
 1536 1280 l 0
 1280 1280 l 0
EndSplineSet
EndChar

StartChar: four
Encoding: 52 52 40
Width: 1024
Flags: HW
LayerCount: 2
Fore
SplineSet
512 0 m 0
 512 256 l 0
 640 256 l 0
 640 0 l 0
 512 0 l 0
128 256 m 0
 128 512 l 0
 256 512 l 0
 256 256 l 0
 128 256 l 0
256 256 m 0
 256 512 l 0
 384 512 l 0
 384 256 l 0
 256 256 l 0
384 256 m 0
 384 512 l 0
 512 512 l 0
 512 256 l 0
 384 256 l 0
512 256 m 0
 512 512 l 0
 640 512 l 0
 640 256 l 0
 512 256 l 0
640 256 m 0
 640 512 l 0
 768 512 l 0
 768 256 l 0
 640 256 l 0
768 256 m 0
 768 512 l 0
 896 512 l 0
 896 256 l 0
 768 256 l 0
128 512 m 0
 128 768 l 0
 256 768 l 0
 256 512 l 0
 128 512 l 0
512 512 m 0
 512 768 l 0
 640 768 l 0
 640 512 l 0
 512 512 l 0
256 768 m 0
 256 1024 l 0
 384 1024 l 0
 384 768 l 0
 256 768 l 0
512 768 m 0
 512 1024 l 0
 640 1024 l 0
 640 768 l 0
 512 768 l 0
384 1024 m 0
 384 1280 l 0
 512 1280 l 0
 512 1024 l 0
 384 1024 l 0
512 1024 m 0
 512 1280 l 0
 640 1280 l 0
 640 1024 l 0
 512 1024 l 0
512 1280 m 0
 512 1536 l 0
 640 1536 l 0
 640 1280 l 0
 512 1280 l 0
EndSplineSet
EndChar

StartChar: glyph41
Encoding: 276 65300 41
Width: 2048
VWidth: 0
Flags: HW
LayerCount: 2
Fore
SplineSet
1024 0 m 0
 1024 256 l 0
 1280 256 l 0
 1280 0 l 0
 1024 0 l 0
256 256 m 0
 256 512 l 0
 512 512 l 0
 512 256 l 0
 256 256 l 0
512 256 m 0
 512 512 l 0
 768 512 l 0
 768 256 l 0
 512 256 l 0
768 256 m 0
 768 512 l 0
 1024 512 l 0
 1024 256 l 0
 768 256 l 0
1024 256 m 0
 1024 512 l 0
 1280 512 l 0
 1280 256 l 0
 1024 256 l 0
1280 256 m 0
 1280 512 l 0
 1536 512 l 0
 1536 256 l 0
 1280 256 l 0
1536 256 m 0
 1536 512 l 0
 1792 512 l 0
 1792 256 l 0
 1536 256 l 0
256 512 m 0
 256 768 l 0
 512 768 l 0
 512 512 l 0
 256 512 l 0
1024 512 m 0
 1024 768 l 0
 1280 768 l 0
 1280 512 l 0
 1024 512 l 0
512 768 m 0
 512 1024 l 0
 768 1024 l 0
 768 768 l 0
 512 768 l 0
1024 768 m 0
 1024 1024 l 0
 1280 1024 l 0
 1280 768 l 0
 1024 768 l 0
768 1024 m 0
 768 1280 l 0
 1024 1280 l 0
 1024 1024 l 0
 768 1024 l 0
1024 1024 m 0
 1024 1280 l 0
 1280 1280 l 0
 1280 1024 l 0
 1024 1024 l 0
1024 1280 m 0
 1024 1536 l 0
 1280 1536 l 0
 1280 1280 l 0
 1024 1280 l 0
EndSplineSet
EndChar

StartChar: five
Encoding: 53 53 42
Width: 1024
Flags: HW
LayerCount: 2
Fore
SplineSet
256 0 m 0
 256 256 l 0
 384 256 l 0
 384 0 l 0
 256 0 l 0
384 0 m 0
 384 256 l 0
 512 256 l 0
 512 0 l 0
 384 0 l 0
512 0 m 0
 512 256 l 0
 640 256 l 0
 640 0 l 0
 512 0 l 0
640 0 m 0
 640 256 l 0
 768 256 l 0
 768 0 l 0
 640 0 l 0
128 256 m 0
 128 512 l 0
 256 512 l 0
 256 256 l 0
 128 256 l 0
768 256 m 0
 768 512 l 0
 896 512 l 0
 896 256 l 0
 768 256 l 0
768 512 m 0
 768 768 l 0
 896 768 l 0
 896 512 l 0
 768 512 l 0
128 768 m 0
 128 1024 l 0
 256 1024 l 0
 256 768 l 0
 128 768 l 0
256 768 m 0
 256 1024 l 0
 384 1024 l 0
 384 768 l 0
 256 768 l 0
384 768 m 0
 384 1024 l 0
 512 1024 l 0
 512 768 l 0
 384 768 l 0
512 768 m 0
 512 1024 l 0
 640 1024 l 0
 640 768 l 0
 512 768 l 0
640 768 m 0
 640 1024 l 0
 768 1024 l 0
 768 768 l 0
 640 768 l 0
128 1024 m 0
 128 1280 l 0
 256 1280 l 0
 256 1024 l 0
 128 1024 l 0
128 1280 m 0
 128 1536 l 0
 256 1536 l 0
 256 1280 l 0
 128 1280 l 0
256 1280 m 0
 256 1536 l 0
 384 1536 l 0
 384 1280 l 0
 256 1280 l 0
384 1280 m 0
 384 1536 l 0
 512 1536 l 0
 512 1280 l 0
 384 1280 l 0
512 1280 m 0
 512 1536 l 0
 640 1536 l 0
 640 1280 l 0
 512 1280 l 0
640 1280 m 0
 640 1536 l 0
 768 1536 l 0
 768 1280 l 0
 640 1280 l 0
768 1280 m 0
 768 1536 l 0
 896 1536 l 0
 896 1280 l 0
 768 1280 l 0
EndSplineSet
EndChar

StartChar: glyph43
Encoding: 277 65301 43
Width: 2048
VWidth: 0
Flags: HW
LayerCount: 2
Fore
SplineSet
512 0 m 0
 512 256 l 0
 768 256 l 0
 768 0 l 0
 512 0 l 0
768 0 m 0
 768 256 l 0
 1024 256 l 0
 1024 0 l 0
 768 0 l 0
1024 0 m 0
 1024 256 l 0
 1280 256 l 0
 1280 0 l 0
 1024 0 l 0
1280 0 m 0
 1280 256 l 0
 1536 256 l 0
 1536 0 l 0
 1280 0 l 0
256 256 m 0
 256 512 l 0
 512 512 l 0
 512 256 l 0
 256 256 l 0
1536 256 m 0
 1536 512 l 0
 1792 512 l 0
 1792 256 l 0
 1536 256 l 0
1536 512 m 0
 1536 768 l 0
 1792 768 l 0
 1792 512 l 0
 1536 512 l 0
256 768 m 0
 256 1024 l 0
 512 1024 l 0
 512 768 l 0
 256 768 l 0
512 768 m 0
 512 1024 l 0
 768 1024 l 0
 768 768 l 0
 512 768 l 0
768 768 m 0
 768 1024 l 0
 1024 1024 l 0
 1024 768 l 0
 768 768 l 0
1024 768 m 0
 1024 1024 l 0
 1280 1024 l 0
 1280 768 l 0
 1024 768 l 0
1280 768 m 0
 1280 1024 l 0
 1536 1024 l 0
 1536 768 l 0
 1280 768 l 0
256 1024 m 0
 256 1280 l 0
 512 1280 l 0
 512 1024 l 0
 256 1024 l 0
256 1280 m 0
 256 1536 l 0
 512 1536 l 0
 512 1280 l 0
 256 1280 l 0
512 1280 m 0
 512 1536 l 0
 768 1536 l 0
 768 1280 l 0
 512 1280 l 0
768 1280 m 0
 768 1536 l 0
 1024 1536 l 0
 1024 1280 l 0
 768 1280 l 0
1024 1280 m 0
 1024 1536 l 0
 1280 1536 l 0
 1280 1280 l 0
 1024 1280 l 0
1280 1280 m 0
 1280 1536 l 0
 1536 1536 l 0
 1536 1280 l 0
 1280 1280 l 0
1536 1280 m 0
 1536 1536 l 0
 1792 1536 l 0
 1792 1280 l 0
 1536 1280 l 0
EndSplineSet
EndChar

StartChar: six
Encoding: 54 54 44
Width: 1024
Flags: HW
LayerCount: 2
Fore
SplineSet
256 0 m 0
 256 256 l 0
 384 256 l 0
 384 0 l 0
 256 0 l 0
384 0 m 0
 384 256 l 0
 512 256 l 0
 512 0 l 0
 384 0 l 0
512 0 m 0
 512 256 l 0
 640 256 l 0
 640 0 l 0
 512 0 l 0
640 0 m 0
 640 256 l 0
 768 256 l 0
 768 0 l 0
 640 0 l 0
128 256 m 0
 128 512 l 0
 256 512 l 0
 256 256 l 0
 128 256 l 0
768 256 m 0
 768 512 l 0
 896 512 l 0
 896 256 l 0
 768 256 l 0
128 512 m 0
 128 768 l 0
 256 768 l 0
 256 512 l 0
 128 512 l 0
768 512 m 0
 768 768 l 0
 896 768 l 0
 896 512 l 0
 768 512 l 0
128 768 m 0
 128 1024 l 0
 256 1024 l 0
 256 768 l 0
 128 768 l 0
256 768 m 0
 256 1024 l 0
 384 1024 l 0
 384 768 l 0
 256 768 l 0
384 768 m 0
 384 1024 l 0
 512 1024 l 0
 512 768 l 0
 384 768 l 0
512 768 m 0
 512 1024 l 0
 640 1024 l 0
 640 768 l 0
 512 768 l 0
640 768 m 0
 640 1024 l 0
 768 1024 l 0
 768 768 l 0
 640 768 l 0
128 1024 m 0
 128 1280 l 0
 256 1280 l 0
 256 1024 l 0
 128 1024 l 0
256 1280 m 0
 256 1536 l 0
 384 1536 l 0
 384 1280 l 0
 256 1280 l 0
384 1280 m 0
 384 1536 l 0
 512 1536 l 0
 512 1280 l 0
 384 1280 l 0
512 1280 m 0
 512 1536 l 0
 640 1536 l 0
 640 1280 l 0
 512 1280 l 0
640 1280 m 0
 640 1536 l 0
 768 1536 l 0
 768 1280 l 0
 640 1280 l 0
EndSplineSet
EndChar

StartChar: glyph45
Encoding: 278 65302 45
Width: 2048
VWidth: 0
Flags: HW
LayerCount: 2
Fore
SplineSet
512 0 m 0
 512 256 l 0
 768 256 l 0
 768 0 l 0
 512 0 l 0
768 0 m 0
 768 256 l 0
 1024 256 l 0
 1024 0 l 0
 768 0 l 0
1024 0 m 0
 1024 256 l 0
 1280 256 l 0
 1280 0 l 0
 1024 0 l 0
1280 0 m 0
 1280 256 l 0
 1536 256 l 0
 1536 0 l 0
 1280 0 l 0
256 256 m 0
 256 512 l 0
 512 512 l 0
 512 256 l 0
 256 256 l 0
1536 256 m 0
 1536 512 l 0
 1792 512 l 0
 1792 256 l 0
 1536 256 l 0
256 512 m 0
 256 768 l 0
 512 768 l 0
 512 512 l 0
 256 512 l 0
1536 512 m 0
 1536 768 l 0
 1792 768 l 0
 1792 512 l 0
 1536 512 l 0
256 768 m 0
 256 1024 l 0
 512 1024 l 0
 512 768 l 0
 256 768 l 0
512 768 m 0
 512 1024 l 0
 768 1024 l 0
 768 768 l 0
 512 768 l 0
768 768 m 0
 768 1024 l 0
 1024 1024 l 0
 1024 768 l 0
 768 768 l 0
1024 768 m 0
 1024 1024 l 0
 1280 1024 l 0
 1280 768 l 0
 1024 768 l 0
1280 768 m 0
 1280 1024 l 0
 1536 1024 l 0
 1536 768 l 0
 1280 768 l 0
256 1024 m 0
 256 1280 l 0
 512 1280 l 0
 512 1024 l 0
 256 1024 l 0
512 1280 m 0
 512 1536 l 0
 768 1536 l 0
 768 1280 l 0
 512 1280 l 0
768 1280 m 0
 768 1536 l 0
 1024 1536 l 0
 1024 1280 l 0
 768 1280 l 0
1024 1280 m 0
 1024 1536 l 0
 1280 1536 l 0
 1280 1280 l 0
 1024 1280 l 0
1280 1280 m 0
 1280 1536 l 0
 1536 1536 l 0
 1536 1280 l 0
 1280 1280 l 0
EndSplineSet
EndChar

StartChar: seven
Encoding: 55 55 46
Width: 1024
Flags: HW
LayerCount: 2
Fore
SplineSet
384 0 m 0
 384 256 l 0
 512 256 l 0
 512 0 l 0
 384 0 l 0
384 256 m 0
 384 512 l 0
 512 512 l 0
 512 256 l 0
 384 256 l 0
512 512 m 0
 512 768 l 0
 640 768 l 0
 640 512 l 0
 512 512 l 0
640 768 m 0
 640 1024 l 0
 768 1024 l 0
 768 768 l 0
 640 768 l 0
768 1024 m 0
 768 1280 l 0
 896 1280 l 0
 896 1024 l 0
 768 1024 l 0
128 1280 m 0
 128 1536 l 0
 256 1536 l 0
 256 1280 l 0
 128 1280 l 0
256 1280 m 0
 256 1536 l 0
 384 1536 l 0
 384 1280 l 0
 256 1280 l 0
384 1280 m 0
 384 1536 l 0
 512 1536 l 0
 512 1280 l 0
 384 1280 l 0
512 1280 m 0
 512 1536 l 0
 640 1536 l 0
 640 1280 l 0
 512 1280 l 0
640 1280 m 0
 640 1536 l 0
 768 1536 l 0
 768 1280 l 0
 640 1280 l 0
768 1280 m 0
 768 1536 l 0
 896 1536 l 0
 896 1280 l 0
 768 1280 l 0
EndSplineSet
EndChar

StartChar: glyph47
Encoding: 279 65303 47
Width: 2048
VWidth: 0
Flags: HW
LayerCount: 2
Fore
SplineSet
768 0 m 0
 768 256 l 0
 1024 256 l 0
 1024 0 l 0
 768 0 l 0
768 256 m 0
 768 512 l 0
 1024 512 l 0
 1024 256 l 0
 768 256 l 0
1024 512 m 0
 1024 768 l 0
 1280 768 l 0
 1280 512 l 0
 1024 512 l 0
1280 768 m 0
 1280 1024 l 0
 1536 1024 l 0
 1536 768 l 0
 1280 768 l 0
1536 1024 m 0
 1536 1280 l 0
 1792 1280 l 0
 1792 1024 l 0
 1536 1024 l 0
256 1280 m 0
 256 1536 l 0
 512 1536 l 0
 512 1280 l 0
 256 1280 l 0
512 1280 m 0
 512 1536 l 0
 768 1536 l 0
 768 1280 l 0
 512 1280 l 0
768 1280 m 0
 768 1536 l 0
 1024 1536 l 0
 1024 1280 l 0
 768 1280 l 0
1024 1280 m 0
 1024 1536 l 0
 1280 1536 l 0
 1280 1280 l 0
 1024 1280 l 0
1280 1280 m 0
 1280 1536 l 0
 1536 1536 l 0
 1536 1280 l 0
 1280 1280 l 0
1536 1280 m 0
 1536 1536 l 0
 1792 1536 l 0
 1792 1280 l 0
 1536 1280 l 0
EndSplineSet
EndChar

StartChar: eight
Encoding: 56 56 48
Width: 1024
Flags: HW
LayerCount: 2
Fore
SplineSet
256 0 m 0
 256 256 l 0
 384 256 l 0
 384 0 l 0
 256 0 l 0
384 0 m 0
 384 256 l 0
 512 256 l 0
 512 0 l 0
 384 0 l 0
512 0 m 0
 512 256 l 0
 640 256 l 0
 640 0 l 0
 512 0 l 0
640 0 m 0
 640 256 l 0
 768 256 l 0
 768 0 l 0
 640 0 l 0
128 256 m 0
 128 512 l 0
 256 512 l 0
 256 256 l 0
 128 256 l 0
768 256 m 0
 768 512 l 0
 896 512 l 0
 896 256 l 0
 768 256 l 0
128 512 m 0
 128 768 l 0
 256 768 l 0
 256 512 l 0
 128 512 l 0
768 512 m 0
 768 768 l 0
 896 768 l 0
 896 512 l 0
 768 512 l 0
256 768 m 0
 256 1024 l 0
 384 1024 l 0
 384 768 l 0
 256 768 l 0
384 768 m 0
 384 1024 l 0
 512 1024 l 0
 512 768 l 0
 384 768 l 0
512 768 m 0
 512 1024 l 0
 640 1024 l 0
 640 768 l 0
 512 768 l 0
640 768 m 0
 640 1024 l 0
 768 1024 l 0
 768 768 l 0
 640 768 l 0
128 1024 m 0
 128 1280 l 0
 256 1280 l 0
 256 1024 l 0
 128 1024 l 0
768 1024 m 0
 768 1280 l 0
 896 1280 l 0
 896 1024 l 0
 768 1024 l 0
256 1280 m 0
 256 1536 l 0
 384 1536 l 0
 384 1280 l 0
 256 1280 l 0
384 1280 m 0
 384 1536 l 0
 512 1536 l 0
 512 1280 l 0
 384 1280 l 0
512 1280 m 0
 512 1536 l 0
 640 1536 l 0
 640 1280 l 0
 512 1280 l 0
640 1280 m 0
 640 1536 l 0
 768 1536 l 0
 768 1280 l 0
 640 1280 l 0
EndSplineSet
EndChar

StartChar: glyph49
Encoding: 280 65304 49
Width: 2048
VWidth: 0
Flags: HW
LayerCount: 2
Fore
SplineSet
512 0 m 0
 512 256 l 0
 768 256 l 0
 768 0 l 0
 512 0 l 0
768 0 m 0
 768 256 l 0
 1024 256 l 0
 1024 0 l 0
 768 0 l 0
1024 0 m 0
 1024 256 l 0
 1280 256 l 0
 1280 0 l 0
 1024 0 l 0
1280 0 m 0
 1280 256 l 0
 1536 256 l 0
 1536 0 l 0
 1280 0 l 0
256 256 m 0
 256 512 l 0
 512 512 l 0
 512 256 l 0
 256 256 l 0
1536 256 m 0
 1536 512 l 0
 1792 512 l 0
 1792 256 l 0
 1536 256 l 0
256 512 m 0
 256 768 l 0
 512 768 l 0
 512 512 l 0
 256 512 l 0
1536 512 m 0
 1536 768 l 0
 1792 768 l 0
 1792 512 l 0
 1536 512 l 0
512 768 m 0
 512 1024 l 0
 768 1024 l 0
 768 768 l 0
 512 768 l 0
768 768 m 0
 768 1024 l 0
 1024 1024 l 0
 1024 768 l 0
 768 768 l 0
1024 768 m 0
 1024 1024 l 0
 1280 1024 l 0
 1280 768 l 0
 1024 768 l 0
1280 768 m 0
 1280 1024 l 0
 1536 1024 l 0
 1536 768 l 0
 1280 768 l 0
256 1024 m 0
 256 1280 l 0
 512 1280 l 0
 512 1024 l 0
 256 1024 l 0
1536 1024 m 0
 1536 1280 l 0
 1792 1280 l 0
 1792 1024 l 0
 1536 1024 l 0
512 1280 m 0
 512 1536 l 0
 768 1536 l 0
 768 1280 l 0
 512 1280 l 0
768 1280 m 0
 768 1536 l 0
 1024 1536 l 0
 1024 1280 l 0
 768 1280 l 0
1024 1280 m 0
 1024 1536 l 0
 1280 1536 l 0
 1280 1280 l 0
 1024 1280 l 0
1280 1280 m 0
 1280 1536 l 0
 1536 1536 l 0
 1536 1280 l 0
 1280 1280 l 0
EndSplineSet
EndChar

StartChar: nine
Encoding: 57 57 50
Width: 1024
Flags: HW
LayerCount: 2
Fore
SplineSet
256 0 m 0
 256 256 l 0
 384 256 l 0
 384 0 l 0
 256 0 l 0
384 0 m 0
 384 256 l 0
 512 256 l 0
 512 0 l 0
 384 0 l 0
512 0 m 0
 512 256 l 0
 640 256 l 0
 640 0 l 0
 512 0 l 0
640 0 m 0
 640 256 l 0
 768 256 l 0
 768 0 l 0
 640 0 l 0
768 256 m 0
 768 512 l 0
 896 512 l 0
 896 256 l 0
 768 256 l 0
256 512 m 0
 256 768 l 0
 384 768 l 0
 384 512 l 0
 256 512 l 0
384 512 m 0
 384 768 l 0
 512 768 l 0
 512 512 l 0
 384 512 l 0
512 512 m 0
 512 768 l 0
 640 768 l 0
 640 512 l 0
 512 512 l 0
640 512 m 0
 640 768 l 0
 768 768 l 0
 768 512 l 0
 640 512 l 0
768 512 m 0
 768 768 l 0
 896 768 l 0
 896 512 l 0
 768 512 l 0
128 768 m 0
 128 1024 l 0
 256 1024 l 0
 256 768 l 0
 128 768 l 0
768 768 m 0
 768 1024 l 0
 896 1024 l 0
 896 768 l 0
 768 768 l 0
128 1024 m 0
 128 1280 l 0
 256 1280 l 0
 256 1024 l 0
 128 1024 l 0
768 1024 m 0
 768 1280 l 0
 896 1280 l 0
 896 1024 l 0
 768 1024 l 0
256 1280 m 0
 256 1536 l 0
 384 1536 l 0
 384 1280 l 0
 256 1280 l 0
384 1280 m 0
 384 1536 l 0
 512 1536 l 0
 512 1280 l 0
 384 1280 l 0
512 1280 m 0
 512 1536 l 0
 640 1536 l 0
 640 1280 l 0
 512 1280 l 0
640 1280 m 0
 640 1536 l 0
 768 1536 l 0
 768 1280 l 0
 640 1280 l 0
EndSplineSet
EndChar

StartChar: glyph51
Encoding: 281 65305 51
Width: 2048
VWidth: 0
Flags: HW
LayerCount: 2
Fore
SplineSet
512 0 m 0
 512 256 l 0
 768 256 l 0
 768 0 l 0
 512 0 l 0
768 0 m 0
 768 256 l 0
 1024 256 l 0
 1024 0 l 0
 768 0 l 0
1024 0 m 0
 1024 256 l 0
 1280 256 l 0
 1280 0 l 0
 1024 0 l 0
1280 0 m 0
 1280 256 l 0
 1536 256 l 0
 1536 0 l 0
 1280 0 l 0
1536 256 m 0
 1536 512 l 0
 1792 512 l 0
 1792 256 l 0
 1536 256 l 0
512 512 m 0
 512 768 l 0
 768 768 l 0
 768 512 l 0
 512 512 l 0
768 512 m 0
 768 768 l 0
 1024 768 l 0
 1024 512 l 0
 768 512 l 0
1024 512 m 0
 1024 768 l 0
 1280 768 l 0
 1280 512 l 0
 1024 512 l 0
1280 512 m 0
 1280 768 l 0
 1536 768 l 0
 1536 512 l 0
 1280 512 l 0
1536 512 m 0
 1536 768 l 0
 1792 768 l 0
 1792 512 l 0
 1536 512 l 0
256 768 m 0
 256 1024 l 0
 512 1024 l 0
 512 768 l 0
 256 768 l 0
1536 768 m 0
 1536 1024 l 0
 1792 1024 l 0
 1792 768 l 0
 1536 768 l 0
256 1024 m 0
 256 1280 l 0
 512 1280 l 0
 512 1024 l 0
 256 1024 l 0
1536 1024 m 0
 1536 1280 l 0
 1792 1280 l 0
 1792 1024 l 0
 1536 1024 l 0
512 1280 m 0
 512 1536 l 0
 768 1536 l 0
 768 1280 l 0
 512 1280 l 0
768 1280 m 0
 768 1536 l 0
 1024 1536 l 0
 1024 1280 l 0
 768 1280 l 0
1024 1280 m 0
 1024 1536 l 0
 1280 1536 l 0
 1280 1280 l 0
 1024 1280 l 0
1280 1280 m 0
 1280 1536 l 0
 1536 1536 l 0
 1536 1280 l 0
 1280 1280 l 0
EndSplineSet
EndChar

StartChar: colon
Encoding: 58 58 52
Width: 1024
Flags: HW
LayerCount: 2
Fore
SplineSet
384 0 m 0
 384 256 l 0
 512 256 l 0
 512 0 l 0
 384 0 l 0
384 768 m 0
 384 1024 l 0
 512 1024 l 0
 512 768 l 0
 384 768 l 0
EndSplineSet
EndChar

StartChar: glyph53
Encoding: 282 65306 53
Width: 2048
VWidth: 0
Flags: HW
LayerCount: 2
Fore
SplineSet
768 0 m 0
 768 256 l 0
 1024 256 l 0
 1024 0 l 0
 768 0 l 0
768 768 m 0
 768 1024 l 0
 1024 1024 l 0
 1024 768 l 0
 768 768 l 0
EndSplineSet
EndChar

StartChar: semicolon
Encoding: 59 59 54
Width: 1024
Flags: HW
LayerCount: 2
Fore
SplineSet
256 -256 m 0
 256 0 l 0
 384 0 l 0
 384 -256 l 0
 256 -256 l 0
384 0 m 0
 384 256 l 0
 512 256 l 0
 512 0 l 0
 384 0 l 0
384 256 m 0
 384 512 l 0
 512 512 l 0
 512 256 l 0
 384 256 l 0
384 1024 m 0
 384 1280 l 0
 512 1280 l 0
 512 1024 l 0
 384 1024 l 0
EndSplineSet
EndChar

StartChar: glyph55
Encoding: 283 65307 55
Width: 2048
VWidth: 0
Flags: HW
LayerCount: 2
Fore
SplineSet
512 -256 m 0
 512 0 l 0
 768 0 l 0
 768 -256 l 0
 512 -256 l 0
768 0 m 0
 768 256 l 0
 1024 256 l 0
 1024 0 l 0
 768 0 l 0
768 256 m 0
 768 512 l 0
 1024 512 l 0
 1024 256 l 0
 768 256 l 0
768 1024 m 0
 768 1280 l 0
 1024 1280 l 0
 1024 1024 l 0
 768 1024 l 0
EndSplineSet
EndChar

StartChar: less
Encoding: 60 60 56
Width: 1024
Flags: HW
LayerCount: 2
Fore
SplineSet
640 0 m 0
 640 256 l 0
 768 256 l 0
 768 0 l 0
 640 0 l 0
512 256 m 0
 512 512 l 0
 640 512 l 0
 640 256 l 0
 512 256 l 0
384 512 m 0
 384 768 l 0
 512 768 l 0
 512 512 l 0
 384 512 l 0
512 768 m 0
 512 1024 l 0
 640 1024 l 0
 640 768 l 0
 512 768 l 0
640 1024 m 0
 640 1280 l 0
 768 1280 l 0
 768 1024 l 0
 640 1024 l 0
EndSplineSet
EndChar

StartChar: glyph57
Encoding: 284 65308 57
Width: 2048
VWidth: 0
Flags: HW
LayerCount: 2
Fore
SplineSet
1280 0 m 0
 1280 256 l 0
 1536 256 l 0
 1536 0 l 0
 1280 0 l 0
1024 256 m 0
 1024 512 l 0
 1280 512 l 0
 1280 256 l 0
 1024 256 l 0
768 512 m 0
 768 768 l 0
 1024 768 l 0
 1024 512 l 0
 768 512 l 0
1024 768 m 0
 1024 1024 l 0
 1280 1024 l 0
 1280 768 l 0
 1024 768 l 0
1280 1024 m 0
 1280 1280 l 0
 1536 1280 l 0
 1536 1024 l 0
 1280 1024 l 0
EndSplineSet
EndChar

StartChar: equal
Encoding: 61 61 58
Width: 1024
Flags: HW
LayerCount: 2
Fore
SplineSet
256 256 m 0
 256 512 l 0
 384 512 l 0
 384 256 l 0
 256 256 l 0
384 256 m 0
 384 512 l 0
 512 512 l 0
 512 256 l 0
 384 256 l 0
512 256 m 0
 512 512 l 0
 640 512 l 0
 640 256 l 0
 512 256 l 0
640 256 m 0
 640 512 l 0
 768 512 l 0
 768 256 l 0
 640 256 l 0
768 256 m 0
 768 512 l 0
 896 512 l 0
 896 256 l 0
 768 256 l 0
256 768 m 0
 256 1024 l 0
 384 1024 l 0
 384 768 l 0
 256 768 l 0
384 768 m 0
 384 1024 l 0
 512 1024 l 0
 512 768 l 0
 384 768 l 0
512 768 m 0
 512 1024 l 0
 640 1024 l 0
 640 768 l 0
 512 768 l 0
640 768 m 0
 640 1024 l 0
 768 1024 l 0
 768 768 l 0
 640 768 l 0
768 768 m 0
 768 1024 l 0
 896 1024 l 0
 896 768 l 0
 768 768 l 0
EndSplineSet
EndChar

StartChar: glyph59
Encoding: 285 65309 59
Width: 2048
VWidth: 0
Flags: HW
LayerCount: 2
Fore
SplineSet
512 256 m 0
 512 512 l 0
 768 512 l 0
 768 256 l 0
 512 256 l 0
768 256 m 0
 768 512 l 0
 1024 512 l 0
 1024 256 l 0
 768 256 l 0
1024 256 m 0
 1024 512 l 0
 1280 512 l 0
 1280 256 l 0
 1024 256 l 0
1280 256 m 0
 1280 512 l 0
 1536 512 l 0
 1536 256 l 0
 1280 256 l 0
1536 256 m 0
 1536 512 l 0
 1792 512 l 0
 1792 256 l 0
 1536 256 l 0
512 768 m 0
 512 1024 l 0
 768 1024 l 0
 768 768 l 0
 512 768 l 0
768 768 m 0
 768 1024 l 0
 1024 1024 l 0
 1024 768 l 0
 768 768 l 0
1024 768 m 0
 1024 1024 l 0
 1280 1024 l 0
 1280 768 l 0
 1024 768 l 0
1280 768 m 0
 1280 1024 l 0
 1536 1024 l 0
 1536 768 l 0
 1280 768 l 0
1536 768 m 0
 1536 1024 l 0
 1792 1024 l 0
 1792 768 l 0
 1536 768 l 0
EndSplineSet
EndChar

StartChar: greater
Encoding: 62 62 60
Width: 1024
Flags: HW
LayerCount: 2
Fore
SplineSet
384 0 m 0
 384 256 l 0
 512 256 l 0
 512 0 l 0
 384 0 l 0
512 256 m 0
 512 512 l 0
 640 512 l 0
 640 256 l 0
 512 256 l 0
640 512 m 0
 640 768 l 0
 768 768 l 0
 768 512 l 0
 640 512 l 0
512 768 m 0
 512 1024 l 0
 640 1024 l 0
 640 768 l 0
 512 768 l 0
384 1024 m 0
 384 1280 l 0
 512 1280 l 0
 512 1024 l 0
 384 1024 l 0
EndSplineSet
EndChar

StartChar: glyph61
Encoding: 286 65310 61
Width: 2048
VWidth: 0
Flags: HW
LayerCount: 2
Fore
SplineSet
768 0 m 0
 768 256 l 0
 1024 256 l 0
 1024 0 l 0
 768 0 l 0
1024 256 m 0
 1024 512 l 0
 1280 512 l 0
 1280 256 l 0
 1024 256 l 0
1280 512 m 0
 1280 768 l 0
 1536 768 l 0
 1536 512 l 0
 1280 512 l 0
1024 768 m 0
 1024 1024 l 0
 1280 1024 l 0
 1280 768 l 0
 1024 768 l 0
768 1024 m 0
 768 1280 l 0
 1024 1280 l 0
 1024 1024 l 0
 768 1024 l 0
EndSplineSet
EndChar

StartChar: question
Encoding: 63 63 62
Width: 1024
Flags: HW
LayerCount: 2
Fore
SplineSet
512 0 m 0
 512 256 l 0
 640 256 l 0
 640 0 l 0
 512 0 l 0
512 512 m 0
 512 768 l 0
 640 768 l 0
 640 512 l 0
 512 512 l 0
640 768 m 0
 640 1024 l 0
 768 1024 l 0
 768 768 l 0
 640 768 l 0
128 1024 m 0
 128 1280 l 0
 256 1280 l 0
 256 1024 l 0
 128 1024 l 0
768 1024 m 0
 768 1280 l 0
 896 1280 l 0
 896 1024 l 0
 768 1024 l 0
256 1280 m 0
 256 1536 l 0
 384 1536 l 0
 384 1280 l 0
 256 1280 l 0
384 1280 m 0
 384 1536 l 0
 512 1536 l 0
 512 1280 l 0
 384 1280 l 0
512 1280 m 0
 512 1536 l 0
 640 1536 l 0
 640 1280 l 0
 512 1280 l 0
640 1280 m 0
 640 1536 l 0
 768 1536 l 0
 768 1280 l 0
 640 1280 l 0
EndSplineSet
EndChar

StartChar: glyph63
Encoding: 287 65311 63
Width: 2048
VWidth: 0
Flags: HW
LayerCount: 2
Fore
SplineSet
1024 0 m 0
 1024 256 l 0
 1280 256 l 0
 1280 0 l 0
 1024 0 l 0
1024 512 m 0
 1024 768 l 0
 1280 768 l 0
 1280 512 l 0
 1024 512 l 0
1280 768 m 0
 1280 1024 l 0
 1536 1024 l 0
 1536 768 l 0
 1280 768 l 0
256 1024 m 0
 256 1280 l 0
 512 1280 l 0
 512 1024 l 0
 256 1024 l 0
1536 1024 m 0
 1536 1280 l 0
 1792 1280 l 0
 1792 1024 l 0
 1536 1024 l 0
512 1280 m 0
 512 1536 l 0
 768 1536 l 0
 768 1280 l 0
 512 1280 l 0
768 1280 m 0
 768 1536 l 0
 1024 1536 l 0
 1024 1280 l 0
 768 1280 l 0
1024 1280 m 0
 1024 1536 l 0
 1280 1536 l 0
 1280 1280 l 0
 1024 1280 l 0
1280 1280 m 0
 1280 1536 l 0
 1536 1536 l 0
 1536 1280 l 0
 1280 1280 l 0
EndSplineSet
EndChar

StartChar: at
Encoding: 64 64 64
Width: 1024
Flags: HW
LayerCount: 2
Fore
SplineSet
256 0 m 0
 256 256 l 0
 384 256 l 0
 384 0 l 0
 256 0 l 0
384 0 m 0
 384 256 l 0
 512 256 l 0
 512 0 l 0
 384 0 l 0
512 0 m 0
 512 256 l 0
 640 256 l 0
 640 0 l 0
 512 0 l 0
640 0 m 0
 640 256 l 0
 768 256 l 0
 768 0 l 0
 640 0 l 0
128 256 m 0
 128 512 l 0
 256 512 l 0
 256 256 l 0
 128 256 l 0
128 512 m 0
 128 768 l 0
 256 768 l 0
 256 512 l 0
 128 512 l 0
384 512 m 0
 384 768 l 0
 512 768 l 0
 512 512 l 0
 384 512 l 0
512 512 m 0
 512 768 l 0
 640 768 l 0
 640 512 l 0
 512 512 l 0
640 512 m 0
 640 768 l 0
 768 768 l 0
 768 512 l 0
 640 512 l 0
768 512 m 0
 768 768 l 0
 896 768 l 0
 896 512 l 0
 768 512 l 0
128 768 m 0
 128 1024 l 0
 256 1024 l 0
 256 768 l 0
 128 768 l 0
384 768 m 0
 384 1024 l 0
 512 1024 l 0
 512 768 l 0
 384 768 l 0
640 768 m 0
 640 1024 l 0
 768 1024 l 0
 768 768 l 0
 640 768 l 0
768 768 m 0
 768 1024 l 0
 896 1024 l 0
 896 768 l 0
 768 768 l 0
128 1024 m 0
 128 1280 l 0
 256 1280 l 0
 256 1024 l 0
 128 1024 l 0
512 1024 m 0
 512 1280 l 0
 640 1280 l 0
 640 1024 l 0
 512 1024 l 0
768 1024 m 0
 768 1280 l 0
 896 1280 l 0
 896 1024 l 0
 768 1024 l 0
256 1280 m 0
 256 1536 l 0
 384 1536 l 0
 384 1280 l 0
 256 1280 l 0
384 1280 m 0
 384 1536 l 0
 512 1536 l 0
 512 1280 l 0
 384 1280 l 0
512 1280 m 0
 512 1536 l 0
 640 1536 l 0
 640 1280 l 0
 512 1280 l 0
640 1280 m 0
 640 1536 l 0
 768 1536 l 0
 768 1280 l 0
 640 1280 l 0
EndSplineSet
EndChar

StartChar: glyph65
Encoding: 288 65312 65
Width: 2048
VWidth: 0
Flags: HW
LayerCount: 2
Fore
SplineSet
512 0 m 0
 512 256 l 0
 768 256 l 0
 768 0 l 0
 512 0 l 0
768 0 m 0
 768 256 l 0
 1024 256 l 0
 1024 0 l 0
 768 0 l 0
1024 0 m 0
 1024 256 l 0
 1280 256 l 0
 1280 0 l 0
 1024 0 l 0
1280 0 m 0
 1280 256 l 0
 1536 256 l 0
 1536 0 l 0
 1280 0 l 0
256 256 m 0
 256 512 l 0
 512 512 l 0
 512 256 l 0
 256 256 l 0
256 512 m 0
 256 768 l 0
 512 768 l 0
 512 512 l 0
 256 512 l 0
768 512 m 0
 768 768 l 0
 1024 768 l 0
 1024 512 l 0
 768 512 l 0
1024 512 m 0
 1024 768 l 0
 1280 768 l 0
 1280 512 l 0
 1024 512 l 0
1280 512 m 0
 1280 768 l 0
 1536 768 l 0
 1536 512 l 0
 1280 512 l 0
1536 512 m 0
 1536 768 l 0
 1792 768 l 0
 1792 512 l 0
 1536 512 l 0
256 768 m 0
 256 1024 l 0
 512 1024 l 0
 512 768 l 0
 256 768 l 0
768 768 m 0
 768 1024 l 0
 1024 1024 l 0
 1024 768 l 0
 768 768 l 0
1280 768 m 0
 1280 1024 l 0
 1536 1024 l 0
 1536 768 l 0
 1280 768 l 0
1536 768 m 0
 1536 1024 l 0
 1792 1024 l 0
 1792 768 l 0
 1536 768 l 0
256 1024 m 0
 256 1280 l 0
 512 1280 l 0
 512 1024 l 0
 256 1024 l 0
1024 1024 m 0
 1024 1280 l 0
 1280 1280 l 0
 1280 1024 l 0
 1024 1024 l 0
1536 1024 m 0
 1536 1280 l 0
 1792 1280 l 0
 1792 1024 l 0
 1536 1024 l 0
512 1280 m 0
 512 1536 l 0
 768 1536 l 0
 768 1280 l 0
 512 1280 l 0
768 1280 m 0
 768 1536 l 0
 1024 1536 l 0
 1024 1280 l 0
 768 1280 l 0
1024 1280 m 0
 1024 1536 l 0
 1280 1536 l 0
 1280 1280 l 0
 1024 1280 l 0
1280 1280 m 0
 1280 1536 l 0
 1536 1536 l 0
 1536 1280 l 0
 1280 1280 l 0
EndSplineSet
EndChar

StartChar: A
Encoding: 65 65 66
Width: 1024
Flags: HW
LayerCount: 2
Fore
SplineSet
128 0 m 0
 128 256 l 0
 256 256 l 0
 256 0 l 0
 128 0 l 0
768 0 m 0
 768 256 l 0
 896 256 l 0
 896 0 l 0
 768 0 l 0
128 256 m 0
 128 512 l 0
 256 512 l 0
 256 256 l 0
 128 256 l 0
768 256 m 0
 768 512 l 0
 896 512 l 0
 896 256 l 0
 768 256 l 0
128 512 m 0
 128 768 l 0
 256 768 l 0
 256 512 l 0
 128 512 l 0
256 512 m 0
 256 768 l 0
 384 768 l 0
 384 512 l 0
 256 512 l 0
384 512 m 0
 384 768 l 0
 512 768 l 0
 512 512 l 0
 384 512 l 0
512 512 m 0
 512 768 l 0
 640 768 l 0
 640 512 l 0
 512 512 l 0
640 512 m 0
 640 768 l 0
 768 768 l 0
 768 512 l 0
 640 512 l 0
768 512 m 0
 768 768 l 0
 896 768 l 0
 896 512 l 0
 768 512 l 0
128 768 m 0
 128 1024 l 0
 256 1024 l 0
 256 768 l 0
 128 768 l 0
768 768 m 0
 768 1024 l 0
 896 1024 l 0
 896 768 l 0
 768 768 l 0
128 1024 m 0
 128 1280 l 0
 256 1280 l 0
 256 1024 l 0
 128 1024 l 0
768 1024 m 0
 768 1280 l 0
 896 1280 l 0
 896 1024 l 0
 768 1024 l 0
256 1280 m 0
 256 1536 l 0
 384 1536 l 0
 384 1280 l 0
 256 1280 l 0
384 1280 m 0
 384 1536 l 0
 512 1536 l 0
 512 1280 l 0
 384 1280 l 0
512 1280 m 0
 512 1536 l 0
 640 1536 l 0
 640 1280 l 0
 512 1280 l 0
640 1280 m 0
 640 1536 l 0
 768 1536 l 0
 768 1280 l 0
 640 1280 l 0
EndSplineSet
EndChar

StartChar: glyph67
Encoding: 289 65313 67
Width: 2048
VWidth: 0
Flags: HW
LayerCount: 2
Fore
SplineSet
256 0 m 0
 256 256 l 0
 512 256 l 0
 512 0 l 0
 256 0 l 0
1536 0 m 0
 1536 256 l 0
 1792 256 l 0
 1792 0 l 0
 1536 0 l 0
256 256 m 0
 256 512 l 0
 512 512 l 0
 512 256 l 0
 256 256 l 0
1536 256 m 0
 1536 512 l 0
 1792 512 l 0
 1792 256 l 0
 1536 256 l 0
256 512 m 0
 256 768 l 0
 512 768 l 0
 512 512 l 0
 256 512 l 0
512 512 m 0
 512 768 l 0
 768 768 l 0
 768 512 l 0
 512 512 l 0
768 512 m 0
 768 768 l 0
 1024 768 l 0
 1024 512 l 0
 768 512 l 0
1024 512 m 0
 1024 768 l 0
 1280 768 l 0
 1280 512 l 0
 1024 512 l 0
1280 512 m 0
 1280 768 l 0
 1536 768 l 0
 1536 512 l 0
 1280 512 l 0
1536 512 m 0
 1536 768 l 0
 1792 768 l 0
 1792 512 l 0
 1536 512 l 0
256 768 m 0
 256 1024 l 0
 512 1024 l 0
 512 768 l 0
 256 768 l 0
1536 768 m 0
 1536 1024 l 0
 1792 1024 l 0
 1792 768 l 0
 1536 768 l 0
256 1024 m 0
 256 1280 l 0
 512 1280 l 0
 512 1024 l 0
 256 1024 l 0
1536 1024 m 0
 1536 1280 l 0
 1792 1280 l 0
 1792 1024 l 0
 1536 1024 l 0
512 1280 m 0
 512 1536 l 0
 768 1536 l 0
 768 1280 l 0
 512 1280 l 0
768 1280 m 0
 768 1536 l 0
 1024 1536 l 0
 1024 1280 l 0
 768 1280 l 0
1024 1280 m 0
 1024 1536 l 0
 1280 1536 l 0
 1280 1280 l 0
 1024 1280 l 0
1280 1280 m 0
 1280 1536 l 0
 1536 1536 l 0
 1536 1280 l 0
 1280 1280 l 0
EndSplineSet
EndChar

StartChar: B
Encoding: 66 66 68
Width: 1024
Flags: HW
LayerCount: 2
Fore
SplineSet
128 0 m 0
 128 256 l 0
 256 256 l 0
 256 0 l 0
 128 0 l 0
256 0 m 0
 256 256 l 0
 384 256 l 0
 384 0 l 0
 256 0 l 0
384 0 m 0
 384 256 l 0
 512 256 l 0
 512 0 l 0
 384 0 l 0
512 0 m 0
 512 256 l 0
 640 256 l 0
 640 0 l 0
 512 0 l 0
640 0 m 0
 640 256 l 0
 768 256 l 0
 768 0 l 0
 640 0 l 0
128 256 m 0
 128 512 l 0
 256 512 l 0
 256 256 l 0
 128 256 l 0
768 256 m 0
 768 512 l 0
 896 512 l 0
 896 256 l 0
 768 256 l 0
128 512 m 0
 128 768 l 0
 256 768 l 0
 256 512 l 0
 128 512 l 0
768 512 m 0
 768 768 l 0
 896 768 l 0
 896 512 l 0
 768 512 l 0
128 768 m 0
 128 1024 l 0
 256 1024 l 0
 256 768 l 0
 128 768 l 0
256 768 m 0
 256 1024 l 0
 384 1024 l 0
 384 768 l 0
 256 768 l 0
384 768 m 0
 384 1024 l 0
 512 1024 l 0
 512 768 l 0
 384 768 l 0
512 768 m 0
 512 1024 l 0
 640 1024 l 0
 640 768 l 0
 512 768 l 0
640 768 m 0
 640 1024 l 0
 768 1024 l 0
 768 768 l 0
 640 768 l 0
128 1024 m 0
 128 1280 l 0
 256 1280 l 0
 256 1024 l 0
 128 1024 l 0
768 1024 m 0
 768 1280 l 0
 896 1280 l 0
 896 1024 l 0
 768 1024 l 0
128 1280 m 0
 128 1536 l 0
 256 1536 l 0
 256 1280 l 0
 128 1280 l 0
256 1280 m 0
 256 1536 l 0
 384 1536 l 0
 384 1280 l 0
 256 1280 l 0
384 1280 m 0
 384 1536 l 0
 512 1536 l 0
 512 1280 l 0
 384 1280 l 0
512 1280 m 0
 512 1536 l 0
 640 1536 l 0
 640 1280 l 0
 512 1280 l 0
640 1280 m 0
 640 1536 l 0
 768 1536 l 0
 768 1280 l 0
 640 1280 l 0
EndSplineSet
EndChar

StartChar: glyph69
Encoding: 290 65314 69
Width: 2048
VWidth: 0
Flags: HW
LayerCount: 2
Fore
SplineSet
256 0 m 0
 256 256 l 0
 512 256 l 0
 512 0 l 0
 256 0 l 0
512 0 m 0
 512 256 l 0
 768 256 l 0
 768 0 l 0
 512 0 l 0
768 0 m 0
 768 256 l 0
 1024 256 l 0
 1024 0 l 0
 768 0 l 0
1024 0 m 0
 1024 256 l 0
 1280 256 l 0
 1280 0 l 0
 1024 0 l 0
1280 0 m 0
 1280 256 l 0
 1536 256 l 0
 1536 0 l 0
 1280 0 l 0
256 256 m 0
 256 512 l 0
 512 512 l 0
 512 256 l 0
 256 256 l 0
1536 256 m 0
 1536 512 l 0
 1792 512 l 0
 1792 256 l 0
 1536 256 l 0
256 512 m 0
 256 768 l 0
 512 768 l 0
 512 512 l 0
 256 512 l 0
1536 512 m 0
 1536 768 l 0
 1792 768 l 0
 1792 512 l 0
 1536 512 l 0
256 768 m 0
 256 1024 l 0
 512 1024 l 0
 512 768 l 0
 256 768 l 0
512 768 m 0
 512 1024 l 0
 768 1024 l 0
 768 768 l 0
 512 768 l 0
768 768 m 0
 768 1024 l 0
 1024 1024 l 0
 1024 768 l 0
 768 768 l 0
1024 768 m 0
 1024 1024 l 0
 1280 1024 l 0
 1280 768 l 0
 1024 768 l 0
1280 768 m 0
 1280 1024 l 0
 1536 1024 l 0
 1536 768 l 0
 1280 768 l 0
256 1024 m 0
 256 1280 l 0
 512 1280 l 0
 512 1024 l 0
 256 1024 l 0
1536 1024 m 0
 1536 1280 l 0
 1792 1280 l 0
 1792 1024 l 0
 1536 1024 l 0
256 1280 m 0
 256 1536 l 0
 512 1536 l 0
 512 1280 l 0
 256 1280 l 0
512 1280 m 0
 512 1536 l 0
 768 1536 l 0
 768 1280 l 0
 512 1280 l 0
768 1280 m 0
 768 1536 l 0
 1024 1536 l 0
 1024 1280 l 0
 768 1280 l 0
1024 1280 m 0
 1024 1536 l 0
 1280 1536 l 0
 1280 1280 l 0
 1024 1280 l 0
1280 1280 m 0
 1280 1536 l 0
 1536 1536 l 0
 1536 1280 l 0
 1280 1280 l 0
EndSplineSet
EndChar

StartChar: C
Encoding: 67 67 70
Width: 1024
Flags: HW
LayerCount: 2
Fore
SplineSet
256 0 m 0
 256 256 l 0
 384 256 l 0
 384 0 l 0
 256 0 l 0
384 0 m 0
 384 256 l 0
 512 256 l 0
 512 0 l 0
 384 0 l 0
512 0 m 0
 512 256 l 0
 640 256 l 0
 640 0 l 0
 512 0 l 0
640 0 m 0
 640 256 l 0
 768 256 l 0
 768 0 l 0
 640 0 l 0
128 256 m 0
 128 512 l 0
 256 512 l 0
 256 256 l 0
 128 256 l 0
768 256 m 0
 768 512 l 0
 896 512 l 0
 896 256 l 0
 768 256 l 0
128 512 m 0
 128 768 l 0
 256 768 l 0
 256 512 l 0
 128 512 l 0
128 768 m 0
 128 1024 l 0
 256 1024 l 0
 256 768 l 0
 128 768 l 0
128 1024 m 0
 128 1280 l 0
 256 1280 l 0
 256 1024 l 0
 128 1024 l 0
768 1024 m 0
 768 1280 l 0
 896 1280 l 0
 896 1024 l 0
 768 1024 l 0
256 1280 m 0
 256 1536 l 0
 384 1536 l 0
 384 1280 l 0
 256 1280 l 0
384 1280 m 0
 384 1536 l 0
 512 1536 l 0
 512 1280 l 0
 384 1280 l 0
512 1280 m 0
 512 1536 l 0
 640 1536 l 0
 640 1280 l 0
 512 1280 l 0
640 1280 m 0
 640 1536 l 0
 768 1536 l 0
 768 1280 l 0
 640 1280 l 0
EndSplineSet
EndChar

StartChar: glyph71
Encoding: 291 65315 71
Width: 2048
VWidth: 0
Flags: HW
LayerCount: 2
Fore
SplineSet
512 0 m 0
 512 256 l 0
 768 256 l 0
 768 0 l 0
 512 0 l 0
768 0 m 0
 768 256 l 0
 1024 256 l 0
 1024 0 l 0
 768 0 l 0
1024 0 m 0
 1024 256 l 0
 1280 256 l 0
 1280 0 l 0
 1024 0 l 0
1280 0 m 0
 1280 256 l 0
 1536 256 l 0
 1536 0 l 0
 1280 0 l 0
256 256 m 0
 256 512 l 0
 512 512 l 0
 512 256 l 0
 256 256 l 0
1536 256 m 0
 1536 512 l 0
 1792 512 l 0
 1792 256 l 0
 1536 256 l 0
256 512 m 0
 256 768 l 0
 512 768 l 0
 512 512 l 0
 256 512 l 0
256 768 m 0
 256 1024 l 0
 512 1024 l 0
 512 768 l 0
 256 768 l 0
256 1024 m 0
 256 1280 l 0
 512 1280 l 0
 512 1024 l 0
 256 1024 l 0
1536 1024 m 0
 1536 1280 l 0
 1792 1280 l 0
 1792 1024 l 0
 1536 1024 l 0
512 1280 m 0
 512 1536 l 0
 768 1536 l 0
 768 1280 l 0
 512 1280 l 0
768 1280 m 0
 768 1536 l 0
 1024 1536 l 0
 1024 1280 l 0
 768 1280 l 0
1024 1280 m 0
 1024 1536 l 0
 1280 1536 l 0
 1280 1280 l 0
 1024 1280 l 0
1280 1280 m 0
 1280 1536 l 0
 1536 1536 l 0
 1536 1280 l 0
 1280 1280 l 0
EndSplineSet
EndChar

StartChar: D
Encoding: 68 68 72
Width: 1024
Flags: HW
LayerCount: 2
Fore
SplineSet
128 0 m 0
 128 256 l 0
 256 256 l 0
 256 0 l 0
 128 0 l 0
256 0 m 0
 256 256 l 0
 384 256 l 0
 384 0 l 0
 256 0 l 0
384 0 m 0
 384 256 l 0
 512 256 l 0
 512 0 l 0
 384 0 l 0
512 0 m 0
 512 256 l 0
 640 256 l 0
 640 0 l 0
 512 0 l 0
128 256 m 0
 128 512 l 0
 256 512 l 0
 256 256 l 0
 128 256 l 0
640 256 m 0
 640 512 l 0
 768 512 l 0
 768 256 l 0
 640 256 l 0
128 512 m 0
 128 768 l 0
 256 768 l 0
 256 512 l 0
 128 512 l 0
768 512 m 0
 768 768 l 0
 896 768 l 0
 896 512 l 0
 768 512 l 0
128 768 m 0
 128 1024 l 0
 256 1024 l 0
 256 768 l 0
 128 768 l 0
768 768 m 0
 768 1024 l 0
 896 1024 l 0
 896 768 l 0
 768 768 l 0
128 1024 m 0
 128 1280 l 0
 256 1280 l 0
 256 1024 l 0
 128 1024 l 0
640 1024 m 0
 640 1280 l 0
 768 1280 l 0
 768 1024 l 0
 640 1024 l 0
128 1280 m 0
 128 1536 l 0
 256 1536 l 0
 256 1280 l 0
 128 1280 l 0
256 1280 m 0
 256 1536 l 0
 384 1536 l 0
 384 1280 l 0
 256 1280 l 0
384 1280 m 0
 384 1536 l 0
 512 1536 l 0
 512 1280 l 0
 384 1280 l 0
512 1280 m 0
 512 1536 l 0
 640 1536 l 0
 640 1280 l 0
 512 1280 l 0
EndSplineSet
EndChar

StartChar: glyph73
Encoding: 292 65316 73
Width: 2048
VWidth: 0
Flags: HW
LayerCount: 2
Fore
SplineSet
256 0 m 0
 256 256 l 0
 512 256 l 0
 512 0 l 0
 256 0 l 0
512 0 m 0
 512 256 l 0
 768 256 l 0
 768 0 l 0
 512 0 l 0
768 0 m 0
 768 256 l 0
 1024 256 l 0
 1024 0 l 0
 768 0 l 0
1024 0 m 0
 1024 256 l 0
 1280 256 l 0
 1280 0 l 0
 1024 0 l 0
256 256 m 0
 256 512 l 0
 512 512 l 0
 512 256 l 0
 256 256 l 0
1280 256 m 0
 1280 512 l 0
 1536 512 l 0
 1536 256 l 0
 1280 256 l 0
256 512 m 0
 256 768 l 0
 512 768 l 0
 512 512 l 0
 256 512 l 0
1536 512 m 0
 1536 768 l 0
 1792 768 l 0
 1792 512 l 0
 1536 512 l 0
256 768 m 0
 256 1024 l 0
 512 1024 l 0
 512 768 l 0
 256 768 l 0
1536 768 m 0
 1536 1024 l 0
 1792 1024 l 0
 1792 768 l 0
 1536 768 l 0
256 1024 m 0
 256 1280 l 0
 512 1280 l 0
 512 1024 l 0
 256 1024 l 0
1280 1024 m 0
 1280 1280 l 0
 1536 1280 l 0
 1536 1024 l 0
 1280 1024 l 0
256 1280 m 0
 256 1536 l 0
 512 1536 l 0
 512 1280 l 0
 256 1280 l 0
512 1280 m 0
 512 1536 l 0
 768 1536 l 0
 768 1280 l 0
 512 1280 l 0
768 1280 m 0
 768 1536 l 0
 1024 1536 l 0
 1024 1280 l 0
 768 1280 l 0
1024 1280 m 0
 1024 1536 l 0
 1280 1536 l 0
 1280 1280 l 0
 1024 1280 l 0
EndSplineSet
EndChar

StartChar: E
Encoding: 69 69 74
Width: 1024
Flags: HW
LayerCount: 2
Fore
SplineSet
128 0 m 0
 128 256 l 0
 256 256 l 0
 256 0 l 0
 128 0 l 0
256 0 m 0
 256 256 l 0
 384 256 l 0
 384 0 l 0
 256 0 l 0
384 0 m 0
 384 256 l 0
 512 256 l 0
 512 0 l 0
 384 0 l 0
512 0 m 0
 512 256 l 0
 640 256 l 0
 640 0 l 0
 512 0 l 0
640 0 m 0
 640 256 l 0
 768 256 l 0
 768 0 l 0
 640 0 l 0
768 0 m 0
 768 256 l 0
 896 256 l 0
 896 0 l 0
 768 0 l 0
128 256 m 0
 128 512 l 0
 256 512 l 0
 256 256 l 0
 128 256 l 0
128 512 m 0
 128 768 l 0
 256 768 l 0
 256 512 l 0
 128 512 l 0
128 768 m 0
 128 1024 l 0
 256 1024 l 0
 256 768 l 0
 128 768 l 0
256 768 m 0
 256 1024 l 0
 384 1024 l 0
 384 768 l 0
 256 768 l 0
384 768 m 0
 384 1024 l 0
 512 1024 l 0
 512 768 l 0
 384 768 l 0
512 768 m 0
 512 1024 l 0
 640 1024 l 0
 640 768 l 0
 512 768 l 0
640 768 m 0
 640 1024 l 0
 768 1024 l 0
 768 768 l 0
 640 768 l 0
128 1024 m 0
 128 1280 l 0
 256 1280 l 0
 256 1024 l 0
 128 1024 l 0
128 1280 m 0
 128 1536 l 0
 256 1536 l 0
 256 1280 l 0
 128 1280 l 0
256 1280 m 0
 256 1536 l 0
 384 1536 l 0
 384 1280 l 0
 256 1280 l 0
384 1280 m 0
 384 1536 l 0
 512 1536 l 0
 512 1280 l 0
 384 1280 l 0
512 1280 m 0
 512 1536 l 0
 640 1536 l 0
 640 1280 l 0
 512 1280 l 0
640 1280 m 0
 640 1536 l 0
 768 1536 l 0
 768 1280 l 0
 640 1280 l 0
768 1280 m 0
 768 1536 l 0
 896 1536 l 0
 896 1280 l 0
 768 1280 l 0
EndSplineSet
EndChar

StartChar: glyph75
Encoding: 293 65317 75
Width: 2048
VWidth: 0
Flags: HW
LayerCount: 2
Fore
SplineSet
256 0 m 0
 256 256 l 0
 512 256 l 0
 512 0 l 0
 256 0 l 0
512 0 m 0
 512 256 l 0
 768 256 l 0
 768 0 l 0
 512 0 l 0
768 0 m 0
 768 256 l 0
 1024 256 l 0
 1024 0 l 0
 768 0 l 0
1024 0 m 0
 1024 256 l 0
 1280 256 l 0
 1280 0 l 0
 1024 0 l 0
1280 0 m 0
 1280 256 l 0
 1536 256 l 0
 1536 0 l 0
 1280 0 l 0
1536 0 m 0
 1536 256 l 0
 1792 256 l 0
 1792 0 l 0
 1536 0 l 0
256 256 m 0
 256 512 l 0
 512 512 l 0
 512 256 l 0
 256 256 l 0
256 512 m 0
 256 768 l 0
 512 768 l 0
 512 512 l 0
 256 512 l 0
256 768 m 0
 256 1024 l 0
 512 1024 l 0
 512 768 l 0
 256 768 l 0
512 768 m 0
 512 1024 l 0
 768 1024 l 0
 768 768 l 0
 512 768 l 0
768 768 m 0
 768 1024 l 0
 1024 1024 l 0
 1024 768 l 0
 768 768 l 0
1024 768 m 0
 1024 1024 l 0
 1280 1024 l 0
 1280 768 l 0
 1024 768 l 0
1280 768 m 0
 1280 1024 l 0
 1536 1024 l 0
 1536 768 l 0
 1280 768 l 0
256 1024 m 0
 256 1280 l 0
 512 1280 l 0
 512 1024 l 0
 256 1024 l 0
256 1280 m 0
 256 1536 l 0
 512 1536 l 0
 512 1280 l 0
 256 1280 l 0
512 1280 m 0
 512 1536 l 0
 768 1536 l 0
 768 1280 l 0
 512 1280 l 0
768 1280 m 0
 768 1536 l 0
 1024 1536 l 0
 1024 1280 l 0
 768 1280 l 0
1024 1280 m 0
 1024 1536 l 0
 1280 1536 l 0
 1280 1280 l 0
 1024 1280 l 0
1280 1280 m 0
 1280 1536 l 0
 1536 1536 l 0
 1536 1280 l 0
 1280 1280 l 0
1536 1280 m 0
 1536 1536 l 0
 1792 1536 l 0
 1792 1280 l 0
 1536 1280 l 0
EndSplineSet
EndChar

StartChar: F
Encoding: 70 70 76
Width: 1024
Flags: HW
LayerCount: 2
Fore
SplineSet
128 0 m 0
 128 256 l 0
 256 256 l 0
 256 0 l 0
 128 0 l 0
128 256 m 0
 128 512 l 0
 256 512 l 0
 256 256 l 0
 128 256 l 0
128 512 m 0
 128 768 l 0
 256 768 l 0
 256 512 l 0
 128 512 l 0
128 768 m 0
 128 1024 l 0
 256 1024 l 0
 256 768 l 0
 128 768 l 0
256 768 m 0
 256 1024 l 0
 384 1024 l 0
 384 768 l 0
 256 768 l 0
384 768 m 0
 384 1024 l 0
 512 1024 l 0
 512 768 l 0
 384 768 l 0
512 768 m 0
 512 1024 l 0
 640 1024 l 0
 640 768 l 0
 512 768 l 0
640 768 m 0
 640 1024 l 0
 768 1024 l 0
 768 768 l 0
 640 768 l 0
128 1024 m 0
 128 1280 l 0
 256 1280 l 0
 256 1024 l 0
 128 1024 l 0
128 1280 m 0
 128 1536 l 0
 256 1536 l 0
 256 1280 l 0
 128 1280 l 0
256 1280 m 0
 256 1536 l 0
 384 1536 l 0
 384 1280 l 0
 256 1280 l 0
384 1280 m 0
 384 1536 l 0
 512 1536 l 0
 512 1280 l 0
 384 1280 l 0
512 1280 m 0
 512 1536 l 0
 640 1536 l 0
 640 1280 l 0
 512 1280 l 0
640 1280 m 0
 640 1536 l 0
 768 1536 l 0
 768 1280 l 0
 640 1280 l 0
768 1280 m 0
 768 1536 l 0
 896 1536 l 0
 896 1280 l 0
 768 1280 l 0
EndSplineSet
EndChar

StartChar: glyph77
Encoding: 294 65318 77
Width: 2048
VWidth: 0
Flags: HW
LayerCount: 2
Fore
SplineSet
256 0 m 0
 256 256 l 0
 512 256 l 0
 512 0 l 0
 256 0 l 0
256 256 m 0
 256 512 l 0
 512 512 l 0
 512 256 l 0
 256 256 l 0
256 512 m 0
 256 768 l 0
 512 768 l 0
 512 512 l 0
 256 512 l 0
256 768 m 0
 256 1024 l 0
 512 1024 l 0
 512 768 l 0
 256 768 l 0
512 768 m 0
 512 1024 l 0
 768 1024 l 0
 768 768 l 0
 512 768 l 0
768 768 m 0
 768 1024 l 0
 1024 1024 l 0
 1024 768 l 0
 768 768 l 0
1024 768 m 0
 1024 1024 l 0
 1280 1024 l 0
 1280 768 l 0
 1024 768 l 0
1280 768 m 0
 1280 1024 l 0
 1536 1024 l 0
 1536 768 l 0
 1280 768 l 0
256 1024 m 0
 256 1280 l 0
 512 1280 l 0
 512 1024 l 0
 256 1024 l 0
256 1280 m 0
 256 1536 l 0
 512 1536 l 0
 512 1280 l 0
 256 1280 l 0
512 1280 m 0
 512 1536 l 0
 768 1536 l 0
 768 1280 l 0
 512 1280 l 0
768 1280 m 0
 768 1536 l 0
 1024 1536 l 0
 1024 1280 l 0
 768 1280 l 0
1024 1280 m 0
 1024 1536 l 0
 1280 1536 l 0
 1280 1280 l 0
 1024 1280 l 0
1280 1280 m 0
 1280 1536 l 0
 1536 1536 l 0
 1536 1280 l 0
 1280 1280 l 0
1536 1280 m 0
 1536 1536 l 0
 1792 1536 l 0
 1792 1280 l 0
 1536 1280 l 0
EndSplineSet
EndChar

StartChar: G
Encoding: 71 71 78
Width: 1024
Flags: HW
LayerCount: 2
Fore
SplineSet
256 0 m 0
 256 256 l 0
 384 256 l 0
 384 0 l 0
 256 0 l 0
384 0 m 0
 384 256 l 0
 512 256 l 0
 512 0 l 0
 384 0 l 0
512 0 m 0
 512 256 l 0
 640 256 l 0
 640 0 l 0
 512 0 l 0
640 0 m 0
 640 256 l 0
 768 256 l 0
 768 0 l 0
 640 0 l 0
128 256 m 0
 128 512 l 0
 256 512 l 0
 256 256 l 0
 128 256 l 0
768 256 m 0
 768 512 l 0
 896 512 l 0
 896 256 l 0
 768 256 l 0
128 512 m 0
 128 768 l 0
 256 768 l 0
 256 512 l 0
 128 512 l 0
512 512 m 0
 512 768 l 0
 640 768 l 0
 640 512 l 0
 512 512 l 0
640 512 m 0
 640 768 l 0
 768 768 l 0
 768 512 l 0
 640 512 l 0
768 512 m 0
 768 768 l 0
 896 768 l 0
 896 512 l 0
 768 512 l 0
128 768 m 0
 128 1024 l 0
 256 1024 l 0
 256 768 l 0
 128 768 l 0
128 1024 m 0
 128 1280 l 0
 256 1280 l 0
 256 1024 l 0
 128 1024 l 0
768 1024 m 0
 768 1280 l 0
 896 1280 l 0
 896 1024 l 0
 768 1024 l 0
256 1280 m 0
 256 1536 l 0
 384 1536 l 0
 384 1280 l 0
 256 1280 l 0
384 1280 m 0
 384 1536 l 0
 512 1536 l 0
 512 1280 l 0
 384 1280 l 0
512 1280 m 0
 512 1536 l 0
 640 1536 l 0
 640 1280 l 0
 512 1280 l 0
640 1280 m 0
 640 1536 l 0
 768 1536 l 0
 768 1280 l 0
 640 1280 l 0
EndSplineSet
EndChar

StartChar: glyph79
Encoding: 295 65319 79
Width: 2048
VWidth: 0
Flags: HW
LayerCount: 2
Fore
SplineSet
512 0 m 0
 512 256 l 0
 768 256 l 0
 768 0 l 0
 512 0 l 0
768 0 m 0
 768 256 l 0
 1024 256 l 0
 1024 0 l 0
 768 0 l 0
1024 0 m 0
 1024 256 l 0
 1280 256 l 0
 1280 0 l 0
 1024 0 l 0
1280 0 m 0
 1280 256 l 0
 1536 256 l 0
 1536 0 l 0
 1280 0 l 0
256 256 m 0
 256 512 l 0
 512 512 l 0
 512 256 l 0
 256 256 l 0
1536 256 m 0
 1536 512 l 0
 1792 512 l 0
 1792 256 l 0
 1536 256 l 0
256 512 m 0
 256 768 l 0
 512 768 l 0
 512 512 l 0
 256 512 l 0
1024 512 m 0
 1024 768 l 0
 1280 768 l 0
 1280 512 l 0
 1024 512 l 0
1280 512 m 0
 1280 768 l 0
 1536 768 l 0
 1536 512 l 0
 1280 512 l 0
1536 512 m 0
 1536 768 l 0
 1792 768 l 0
 1792 512 l 0
 1536 512 l 0
256 768 m 0
 256 1024 l 0
 512 1024 l 0
 512 768 l 0
 256 768 l 0
256 1024 m 0
 256 1280 l 0
 512 1280 l 0
 512 1024 l 0
 256 1024 l 0
1536 1024 m 0
 1536 1280 l 0
 1792 1280 l 0
 1792 1024 l 0
 1536 1024 l 0
512 1280 m 0
 512 1536 l 0
 768 1536 l 0
 768 1280 l 0
 512 1280 l 0
768 1280 m 0
 768 1536 l 0
 1024 1536 l 0
 1024 1280 l 0
 768 1280 l 0
1024 1280 m 0
 1024 1536 l 0
 1280 1536 l 0
 1280 1280 l 0
 1024 1280 l 0
1280 1280 m 0
 1280 1536 l 0
 1536 1536 l 0
 1536 1280 l 0
 1280 1280 l 0
EndSplineSet
EndChar

StartChar: H
Encoding: 72 72 80
Width: 1024
Flags: HW
LayerCount: 2
Fore
SplineSet
128 0 m 0
 128 256 l 0
 256 256 l 0
 256 0 l 0
 128 0 l 0
768 0 m 0
 768 256 l 0
 896 256 l 0
 896 0 l 0
 768 0 l 0
128 256 m 0
 128 512 l 0
 256 512 l 0
 256 256 l 0
 128 256 l 0
768 256 m 0
 768 512 l 0
 896 512 l 0
 896 256 l 0
 768 256 l 0
128 512 m 0
 128 768 l 0
 256 768 l 0
 256 512 l 0
 128 512 l 0
768 512 m 0
 768 768 l 0
 896 768 l 0
 896 512 l 0
 768 512 l 0
128 768 m 0
 128 1024 l 0
 256 1024 l 0
 256 768 l 0
 128 768 l 0
256 768 m 0
 256 1024 l 0
 384 1024 l 0
 384 768 l 0
 256 768 l 0
384 768 m 0
 384 1024 l 0
 512 1024 l 0
 512 768 l 0
 384 768 l 0
512 768 m 0
 512 1024 l 0
 640 1024 l 0
 640 768 l 0
 512 768 l 0
640 768 m 0
 640 1024 l 0
 768 1024 l 0
 768 768 l 0
 640 768 l 0
768 768 m 0
 768 1024 l 0
 896 1024 l 0
 896 768 l 0
 768 768 l 0
128 1024 m 0
 128 1280 l 0
 256 1280 l 0
 256 1024 l 0
 128 1024 l 0
768 1024 m 0
 768 1280 l 0
 896 1280 l 0
 896 1024 l 0
 768 1024 l 0
128 1280 m 0
 128 1536 l 0
 256 1536 l 0
 256 1280 l 0
 128 1280 l 0
768 1280 m 0
 768 1536 l 0
 896 1536 l 0
 896 1280 l 0
 768 1280 l 0
EndSplineSet
EndChar

StartChar: glyph81
Encoding: 296 65320 81
Width: 2048
VWidth: 0
Flags: HW
LayerCount: 2
Fore
SplineSet
256 0 m 0
 256 256 l 0
 512 256 l 0
 512 0 l 0
 256 0 l 0
1536 0 m 0
 1536 256 l 0
 1792 256 l 0
 1792 0 l 0
 1536 0 l 0
256 256 m 0
 256 512 l 0
 512 512 l 0
 512 256 l 0
 256 256 l 0
1536 256 m 0
 1536 512 l 0
 1792 512 l 0
 1792 256 l 0
 1536 256 l 0
256 512 m 0
 256 768 l 0
 512 768 l 0
 512 512 l 0
 256 512 l 0
1536 512 m 0
 1536 768 l 0
 1792 768 l 0
 1792 512 l 0
 1536 512 l 0
256 768 m 0
 256 1024 l 0
 512 1024 l 0
 512 768 l 0
 256 768 l 0
512 768 m 0
 512 1024 l 0
 768 1024 l 0
 768 768 l 0
 512 768 l 0
768 768 m 0
 768 1024 l 0
 1024 1024 l 0
 1024 768 l 0
 768 768 l 0
1024 768 m 0
 1024 1024 l 0
 1280 1024 l 0
 1280 768 l 0
 1024 768 l 0
1280 768 m 0
 1280 1024 l 0
 1536 1024 l 0
 1536 768 l 0
 1280 768 l 0
1536 768 m 0
 1536 1024 l 0
 1792 1024 l 0
 1792 768 l 0
 1536 768 l 0
256 1024 m 0
 256 1280 l 0
 512 1280 l 0
 512 1024 l 0
 256 1024 l 0
1536 1024 m 0
 1536 1280 l 0
 1792 1280 l 0
 1792 1024 l 0
 1536 1024 l 0
256 1280 m 0
 256 1536 l 0
 512 1536 l 0
 512 1280 l 0
 256 1280 l 0
1536 1280 m 0
 1536 1536 l 0
 1792 1536 l 0
 1792 1280 l 0
 1536 1280 l 0
EndSplineSet
EndChar

StartChar: I
Encoding: 73 73 82
Width: 1024
Flags: HW
LayerCount: 2
Fore
SplineSet
256 0 m 0
 256 256 l 0
 384 256 l 0
 384 0 l 0
 256 0 l 0
384 0 m 0
 384 256 l 0
 512 256 l 0
 512 0 l 0
 384 0 l 0
512 0 m 0
 512 256 l 0
 640 256 l 0
 640 0 l 0
 512 0 l 0
640 0 m 0
 640 256 l 0
 768 256 l 0
 768 0 l 0
 640 0 l 0
768 0 m 0
 768 256 l 0
 896 256 l 0
 896 0 l 0
 768 0 l 0
512 256 m 0
 512 512 l 0
 640 512 l 0
 640 256 l 0
 512 256 l 0
512 512 m 0
 512 768 l 0
 640 768 l 0
 640 512 l 0
 512 512 l 0
512 768 m 0
 512 1024 l 0
 640 1024 l 0
 640 768 l 0
 512 768 l 0
512 1024 m 0
 512 1280 l 0
 640 1280 l 0
 640 1024 l 0
 512 1024 l 0
256 1280 m 0
 256 1536 l 0
 384 1536 l 0
 384 1280 l 0
 256 1280 l 0
384 1280 m 0
 384 1536 l 0
 512 1536 l 0
 512 1280 l 0
 384 1280 l 0
512 1280 m 0
 512 1536 l 0
 640 1536 l 0
 640 1280 l 0
 512 1280 l 0
640 1280 m 0
 640 1536 l 0
 768 1536 l 0
 768 1280 l 0
 640 1280 l 0
768 1280 m 0
 768 1536 l 0
 896 1536 l 0
 896 1280 l 0
 768 1280 l 0
EndSplineSet
EndChar

StartChar: glyph83
Encoding: 297 65321 83
Width: 2048
VWidth: 0
Flags: HW
LayerCount: 2
Fore
SplineSet
512 0 m 0
 512 256 l 0
 768 256 l 0
 768 0 l 0
 512 0 l 0
768 0 m 0
 768 256 l 0
 1024 256 l 0
 1024 0 l 0
 768 0 l 0
1024 0 m 0
 1024 256 l 0
 1280 256 l 0
 1280 0 l 0
 1024 0 l 0
1280 0 m 0
 1280 256 l 0
 1536 256 l 0
 1536 0 l 0
 1280 0 l 0
1536 0 m 0
 1536 256 l 0
 1792 256 l 0
 1792 0 l 0
 1536 0 l 0
1024 256 m 0
 1024 512 l 0
 1280 512 l 0
 1280 256 l 0
 1024 256 l 0
1024 512 m 0
 1024 768 l 0
 1280 768 l 0
 1280 512 l 0
 1024 512 l 0
1024 768 m 0
 1024 1024 l 0
 1280 1024 l 0
 1280 768 l 0
 1024 768 l 0
1024 1024 m 0
 1024 1280 l 0
 1280 1280 l 0
 1280 1024 l 0
 1024 1024 l 0
512 1280 m 0
 512 1536 l 0
 768 1536 l 0
 768 1280 l 0
 512 1280 l 0
768 1280 m 0
 768 1536 l 0
 1024 1536 l 0
 1024 1280 l 0
 768 1280 l 0
1024 1280 m 0
 1024 1536 l 0
 1280 1536 l 0
 1280 1280 l 0
 1024 1280 l 0
1280 1280 m 0
 1280 1536 l 0
 1536 1536 l 0
 1536 1280 l 0
 1280 1280 l 0
1536 1280 m 0
 1536 1536 l 0
 1792 1536 l 0
 1792 1280 l 0
 1536 1280 l 0
EndSplineSet
EndChar

StartChar: J
Encoding: 74 74 84
Width: 1024
Flags: HW
LayerCount: 2
Fore
SplineSet
256 0 m 0
 256 256 l 0
 384 256 l 0
 384 0 l 0
 256 0 l 0
384 0 m 0
 384 256 l 0
 512 256 l 0
 512 0 l 0
 384 0 l 0
512 0 m 0
 512 256 l 0
 640 256 l 0
 640 0 l 0
 512 0 l 0
640 0 m 0
 640 256 l 0
 768 256 l 0
 768 0 l 0
 640 0 l 0
128 256 m 0
 128 512 l 0
 256 512 l 0
 256 256 l 0
 128 256 l 0
768 256 m 0
 768 512 l 0
 896 512 l 0
 896 256 l 0
 768 256 l 0
128 512 m 0
 128 768 l 0
 256 768 l 0
 256 512 l 0
 128 512 l 0
768 512 m 0
 768 768 l 0
 896 768 l 0
 896 512 l 0
 768 512 l 0
768 768 m 0
 768 1024 l 0
 896 1024 l 0
 896 768 l 0
 768 768 l 0
768 1024 m 0
 768 1280 l 0
 896 1280 l 0
 896 1024 l 0
 768 1024 l 0
768 1280 m 0
 768 1536 l 0
 896 1536 l 0
 896 1280 l 0
 768 1280 l 0
EndSplineSet
EndChar

StartChar: glyph85
Encoding: 298 65322 85
Width: 2048
VWidth: 0
Flags: HW
LayerCount: 2
Fore
SplineSet
512 0 m 0
 512 256 l 0
 768 256 l 0
 768 0 l 0
 512 0 l 0
768 0 m 0
 768 256 l 0
 1024 256 l 0
 1024 0 l 0
 768 0 l 0
1024 0 m 0
 1024 256 l 0
 1280 256 l 0
 1280 0 l 0
 1024 0 l 0
1280 0 m 0
 1280 256 l 0
 1536 256 l 0
 1536 0 l 0
 1280 0 l 0
256 256 m 0
 256 512 l 0
 512 512 l 0
 512 256 l 0
 256 256 l 0
1536 256 m 0
 1536 512 l 0
 1792 512 l 0
 1792 256 l 0
 1536 256 l 0
256 512 m 0
 256 768 l 0
 512 768 l 0
 512 512 l 0
 256 512 l 0
1536 512 m 0
 1536 768 l 0
 1792 768 l 0
 1792 512 l 0
 1536 512 l 0
1536 768 m 0
 1536 1024 l 0
 1792 1024 l 0
 1792 768 l 0
 1536 768 l 0
1536 1024 m 0
 1536 1280 l 0
 1792 1280 l 0
 1792 1024 l 0
 1536 1024 l 0
1536 1280 m 0
 1536 1536 l 0
 1792 1536 l 0
 1792 1280 l 0
 1536 1280 l 0
EndSplineSet
EndChar

StartChar: K
Encoding: 75 75 86
Width: 1024
Flags: HW
LayerCount: 2
Fore
SplineSet
128 0 m 0
 128 256 l 0
 256 256 l 0
 256 0 l 0
 128 0 l 0
768 0 m 0
 768 256 l 0
 896 256 l 0
 896 0 l 0
 768 0 l 0
128 256 m 0
 128 512 l 0
 256 512 l 0
 256 256 l 0
 128 256 l 0
640 256 m 0
 640 512 l 0
 768 512 l 0
 768 256 l 0
 640 256 l 0
128 512 m 0
 128 768 l 0
 256 768 l 0
 256 512 l 0
 128 512 l 0
512 512 m 0
 512 768 l 0
 640 768 l 0
 640 512 l 0
 512 512 l 0
128 768 m 0
 128 1024 l 0
 256 1024 l 0
 256 768 l 0
 128 768 l 0
256 768 m 0
 256 1024 l 0
 384 1024 l 0
 384 768 l 0
 256 768 l 0
384 768 m 0
 384 1024 l 0
 512 1024 l 0
 512 768 l 0
 384 768 l 0
128 1024 m 0
 128 1280 l 0
 256 1280 l 0
 256 1024 l 0
 128 1024 l 0
512 1024 m 0
 512 1280 l 0
 640 1280 l 0
 640 1024 l 0
 512 1024 l 0
128 1280 m 0
 128 1536 l 0
 256 1536 l 0
 256 1280 l 0
 128 1280 l 0
640 1280 m 0
 640 1536 l 0
 768 1536 l 0
 768 1280 l 0
 640 1280 l 0
EndSplineSet
EndChar

StartChar: glyph87
Encoding: 299 65323 87
Width: 2048
VWidth: 0
Flags: HW
LayerCount: 2
Fore
SplineSet
256 0 m 0
 256 256 l 0
 512 256 l 0
 512 0 l 0
 256 0 l 0
1536 0 m 0
 1536 256 l 0
 1792 256 l 0
 1792 0 l 0
 1536 0 l 0
256 256 m 0
 256 512 l 0
 512 512 l 0
 512 256 l 0
 256 256 l 0
1280 256 m 0
 1280 512 l 0
 1536 512 l 0
 1536 256 l 0
 1280 256 l 0
256 512 m 0
 256 768 l 0
 512 768 l 0
 512 512 l 0
 256 512 l 0
1024 512 m 0
 1024 768 l 0
 1280 768 l 0
 1280 512 l 0
 1024 512 l 0
256 768 m 0
 256 1024 l 0
 512 1024 l 0
 512 768 l 0
 256 768 l 0
512 768 m 0
 512 1024 l 0
 768 1024 l 0
 768 768 l 0
 512 768 l 0
768 768 m 0
 768 1024 l 0
 1024 1024 l 0
 1024 768 l 0
 768 768 l 0
256 1024 m 0
 256 1280 l 0
 512 1280 l 0
 512 1024 l 0
 256 1024 l 0
1024 1024 m 0
 1024 1280 l 0
 1280 1280 l 0
 1280 1024 l 0
 1024 1024 l 0
256 1280 m 0
 256 1536 l 0
 512 1536 l 0
 512 1280 l 0
 256 1280 l 0
1280 1280 m 0
 1280 1536 l 0
 1536 1536 l 0
 1536 1280 l 0
 1280 1280 l 0
EndSplineSet
EndChar

StartChar: L
Encoding: 76 76 88
Width: 1024
Flags: HW
LayerCount: 2
Fore
SplineSet
128 0 m 0
 128 256 l 0
 256 256 l 0
 256 0 l 0
 128 0 l 0
256 0 m 0
 256 256 l 0
 384 256 l 0
 384 0 l 0
 256 0 l 0
384 0 m 0
 384 256 l 0
 512 256 l 0
 512 0 l 0
 384 0 l 0
512 0 m 0
 512 256 l 0
 640 256 l 0
 640 0 l 0
 512 0 l 0
640 0 m 0
 640 256 l 0
 768 256 l 0
 768 0 l 0
 640 0 l 0
768 0 m 0
 768 256 l 0
 896 256 l 0
 896 0 l 0
 768 0 l 0
128 256 m 0
 128 512 l 0
 256 512 l 0
 256 256 l 0
 128 256 l 0
128 512 m 0
 128 768 l 0
 256 768 l 0
 256 512 l 0
 128 512 l 0
128 768 m 0
 128 1024 l 0
 256 1024 l 0
 256 768 l 0
 128 768 l 0
128 1024 m 0
 128 1280 l 0
 256 1280 l 0
 256 1024 l 0
 128 1024 l 0
128 1280 m 0
 128 1536 l 0
 256 1536 l 0
 256 1280 l 0
 128 1280 l 0
EndSplineSet
EndChar

StartChar: glyph89
Encoding: 300 65324 89
Width: 2048
VWidth: 0
Flags: HW
LayerCount: 2
Fore
SplineSet
256 0 m 0
 256 256 l 0
 512 256 l 0
 512 0 l 0
 256 0 l 0
512 0 m 0
 512 256 l 0
 768 256 l 0
 768 0 l 0
 512 0 l 0
768 0 m 0
 768 256 l 0
 1024 256 l 0
 1024 0 l 0
 768 0 l 0
1024 0 m 0
 1024 256 l 0
 1280 256 l 0
 1280 0 l 0
 1024 0 l 0
1280 0 m 0
 1280 256 l 0
 1536 256 l 0
 1536 0 l 0
 1280 0 l 0
1536 0 m 0
 1536 256 l 0
 1792 256 l 0
 1792 0 l 0
 1536 0 l 0
256 256 m 0
 256 512 l 0
 512 512 l 0
 512 256 l 0
 256 256 l 0
256 512 m 0
 256 768 l 0
 512 768 l 0
 512 512 l 0
 256 512 l 0
256 768 m 0
 256 1024 l 0
 512 1024 l 0
 512 768 l 0
 256 768 l 0
256 1024 m 0
 256 1280 l 0
 512 1280 l 0
 512 1024 l 0
 256 1024 l 0
256 1280 m 0
 256 1536 l 0
 512 1536 l 0
 512 1280 l 0
 256 1280 l 0
EndSplineSet
EndChar

StartChar: M
Encoding: 77 77 90
Width: 1024
Flags: HW
LayerCount: 2
Fore
SplineSet
128 0 m 0
 128 256 l 0
 256 256 l 0
 256 0 l 0
 128 0 l 0
768 0 m 0
 768 256 l 0
 896 256 l 0
 896 0 l 0
 768 0 l 0
128 256 m 0
 128 512 l 0
 256 512 l 0
 256 256 l 0
 128 256 l 0
768 256 m 0
 768 512 l 0
 896 512 l 0
 896 256 l 0
 768 256 l 0
128 512 m 0
 128 768 l 0
 256 768 l 0
 256 512 l 0
 128 512 l 0
768 512 m 0
 768 768 l 0
 896 768 l 0
 896 512 l 0
 768 512 l 0
128 768 m 0
 128 1024 l 0
 256 1024 l 0
 256 768 l 0
 128 768 l 0
384 768 m 0
 384 1024 l 0
 512 1024 l 0
 512 768 l 0
 384 768 l 0
512 768 m 0
 512 1024 l 0
 640 1024 l 0
 640 768 l 0
 512 768 l 0
768 768 m 0
 768 1024 l 0
 896 1024 l 0
 896 768 l 0
 768 768 l 0
128 1024 m 0
 128 1280 l 0
 256 1280 l 0
 256 1024 l 0
 128 1024 l 0
256 1024 m 0
 256 1280 l 0
 384 1280 l 0
 384 1024 l 0
 256 1024 l 0
640 1024 m 0
 640 1280 l 0
 768 1280 l 0
 768 1024 l 0
 640 1024 l 0
768 1024 m 0
 768 1280 l 0
 896 1280 l 0
 896 1024 l 0
 768 1024 l 0
128 1280 m 0
 128 1536 l 0
 256 1536 l 0
 256 1280 l 0
 128 1280 l 0
768 1280 m 0
 768 1536 l 0
 896 1536 l 0
 896 1280 l 0
 768 1280 l 0
EndSplineSet
EndChar

StartChar: glyph91
Encoding: 301 65325 91
Width: 2048
VWidth: 0
Flags: HW
LayerCount: 2
Fore
SplineSet
256 0 m 0
 256 256 l 0
 512 256 l 0
 512 0 l 0
 256 0 l 0
1536 0 m 0
 1536 256 l 0
 1792 256 l 0
 1792 0 l 0
 1536 0 l 0
256 256 m 0
 256 512 l 0
 512 512 l 0
 512 256 l 0
 256 256 l 0
1536 256 m 0
 1536 512 l 0
 1792 512 l 0
 1792 256 l 0
 1536 256 l 0
256 512 m 0
 256 768 l 0
 512 768 l 0
 512 512 l 0
 256 512 l 0
1536 512 m 0
 1536 768 l 0
 1792 768 l 0
 1792 512 l 0
 1536 512 l 0
256 768 m 0
 256 1024 l 0
 512 1024 l 0
 512 768 l 0
 256 768 l 0
768 768 m 0
 768 1024 l 0
 1024 1024 l 0
 1024 768 l 0
 768 768 l 0
1024 768 m 0
 1024 1024 l 0
 1280 1024 l 0
 1280 768 l 0
 1024 768 l 0
1536 768 m 0
 1536 1024 l 0
 1792 1024 l 0
 1792 768 l 0
 1536 768 l 0
256 1024 m 0
 256 1280 l 0
 512 1280 l 0
 512 1024 l 0
 256 1024 l 0
512 1024 m 0
 512 1280 l 0
 768 1280 l 0
 768 1024 l 0
 512 1024 l 0
1280 1024 m 0
 1280 1280 l 0
 1536 1280 l 0
 1536 1024 l 0
 1280 1024 l 0
1536 1024 m 0
 1536 1280 l 0
 1792 1280 l 0
 1792 1024 l 0
 1536 1024 l 0
256 1280 m 0
 256 1536 l 0
 512 1536 l 0
 512 1280 l 0
 256 1280 l 0
1536 1280 m 0
 1536 1536 l 0
 1792 1536 l 0
 1792 1280 l 0
 1536 1280 l 0
EndSplineSet
EndChar

StartChar: N
Encoding: 78 78 92
Width: 1024
Flags: HW
LayerCount: 2
Fore
SplineSet
128 0 m 0
 128 256 l 0
 256 256 l 0
 256 0 l 0
 128 0 l 0
768 0 m 0
 768 256 l 0
 896 256 l 0
 896 0 l 0
 768 0 l 0
128 256 m 0
 128 512 l 0
 256 512 l 0
 256 256 l 0
 128 256 l 0
640 256 m 0
 640 512 l 0
 768 512 l 0
 768 256 l 0
 640 256 l 0
768 256 m 0
 768 512 l 0
 896 512 l 0
 896 256 l 0
 768 256 l 0
128 512 m 0
 128 768 l 0
 256 768 l 0
 256 512 l 0
 128 512 l 0
512 512 m 0
 512 768 l 0
 640 768 l 0
 640 512 l 0
 512 512 l 0
768 512 m 0
 768 768 l 0
 896 768 l 0
 896 512 l 0
 768 512 l 0
128 768 m 0
 128 1024 l 0
 256 1024 l 0
 256 768 l 0
 128 768 l 0
384 768 m 0
 384 1024 l 0
 512 1024 l 0
 512 768 l 0
 384 768 l 0
768 768 m 0
 768 1024 l 0
 896 1024 l 0
 896 768 l 0
 768 768 l 0
128 1024 m 0
 128 1280 l 0
 256 1280 l 0
 256 1024 l 0
 128 1024 l 0
256 1024 m 0
 256 1280 l 0
 384 1280 l 0
 384 1024 l 0
 256 1024 l 0
768 1024 m 0
 768 1280 l 0
 896 1280 l 0
 896 1024 l 0
 768 1024 l 0
128 1280 m 0
 128 1536 l 0
 256 1536 l 0
 256 1280 l 0
 128 1280 l 0
768 1280 m 0
 768 1536 l 0
 896 1536 l 0
 896 1280 l 0
 768 1280 l 0
EndSplineSet
EndChar

StartChar: glyph93
Encoding: 302 65326 93
Width: 2048
VWidth: 0
Flags: HW
LayerCount: 2
Fore
SplineSet
256 0 m 0
 256 256 l 0
 512 256 l 0
 512 0 l 0
 256 0 l 0
1536 0 m 0
 1536 256 l 0
 1792 256 l 0
 1792 0 l 0
 1536 0 l 0
256 256 m 0
 256 512 l 0
 512 512 l 0
 512 256 l 0
 256 256 l 0
1280 256 m 0
 1280 512 l 0
 1536 512 l 0
 1536 256 l 0
 1280 256 l 0
1536 256 m 0
 1536 512 l 0
 1792 512 l 0
 1792 256 l 0
 1536 256 l 0
256 512 m 0
 256 768 l 0
 512 768 l 0
 512 512 l 0
 256 512 l 0
1024 512 m 0
 1024 768 l 0
 1280 768 l 0
 1280 512 l 0
 1024 512 l 0
1536 512 m 0
 1536 768 l 0
 1792 768 l 0
 1792 512 l 0
 1536 512 l 0
256 768 m 0
 256 1024 l 0
 512 1024 l 0
 512 768 l 0
 256 768 l 0
768 768 m 0
 768 1024 l 0
 1024 1024 l 0
 1024 768 l 0
 768 768 l 0
1536 768 m 0
 1536 1024 l 0
 1792 1024 l 0
 1792 768 l 0
 1536 768 l 0
256 1024 m 0
 256 1280 l 0
 512 1280 l 0
 512 1024 l 0
 256 1024 l 0
512 1024 m 0
 512 1280 l 0
 768 1280 l 0
 768 1024 l 0
 512 1024 l 0
1536 1024 m 0
 1536 1280 l 0
 1792 1280 l 0
 1792 1024 l 0
 1536 1024 l 0
256 1280 m 0
 256 1536 l 0
 512 1536 l 0
 512 1280 l 0
 256 1280 l 0
1536 1280 m 0
 1536 1536 l 0
 1792 1536 l 0
 1792 1280 l 0
 1536 1280 l 0
EndSplineSet
EndChar

StartChar: O
Encoding: 79 79 94
Width: 1024
Flags: HW
LayerCount: 2
Fore
SplineSet
256 0 m 0
 256 256 l 0
 384 256 l 0
 384 0 l 0
 256 0 l 0
384 0 m 0
 384 256 l 0
 512 256 l 0
 512 0 l 0
 384 0 l 0
512 0 m 0
 512 256 l 0
 640 256 l 0
 640 0 l 0
 512 0 l 0
640 0 m 0
 640 256 l 0
 768 256 l 0
 768 0 l 0
 640 0 l 0
128 256 m 0
 128 512 l 0
 256 512 l 0
 256 256 l 0
 128 256 l 0
768 256 m 0
 768 512 l 0
 896 512 l 0
 896 256 l 0
 768 256 l 0
128 512 m 0
 128 768 l 0
 256 768 l 0
 256 512 l 0
 128 512 l 0
768 512 m 0
 768 768 l 0
 896 768 l 0
 896 512 l 0
 768 512 l 0
128 768 m 0
 128 1024 l 0
 256 1024 l 0
 256 768 l 0
 128 768 l 0
768 768 m 0
 768 1024 l 0
 896 1024 l 0
 896 768 l 0
 768 768 l 0
128 1024 m 0
 128 1280 l 0
 256 1280 l 0
 256 1024 l 0
 128 1024 l 0
768 1024 m 0
 768 1280 l 0
 896 1280 l 0
 896 1024 l 0
 768 1024 l 0
256 1280 m 0
 256 1536 l 0
 384 1536 l 0
 384 1280 l 0
 256 1280 l 0
384 1280 m 0
 384 1536 l 0
 512 1536 l 0
 512 1280 l 0
 384 1280 l 0
512 1280 m 0
 512 1536 l 0
 640 1536 l 0
 640 1280 l 0
 512 1280 l 0
640 1280 m 0
 640 1536 l 0
 768 1536 l 0
 768 1280 l 0
 640 1280 l 0
EndSplineSet
EndChar

StartChar: glyph95
Encoding: 303 65327 95
Width: 2048
VWidth: 0
Flags: HW
LayerCount: 2
Fore
SplineSet
512 0 m 0
 512 256 l 0
 768 256 l 0
 768 0 l 0
 512 0 l 0
768 0 m 0
 768 256 l 0
 1024 256 l 0
 1024 0 l 0
 768 0 l 0
1024 0 m 0
 1024 256 l 0
 1280 256 l 0
 1280 0 l 0
 1024 0 l 0
1280 0 m 0
 1280 256 l 0
 1536 256 l 0
 1536 0 l 0
 1280 0 l 0
256 256 m 0
 256 512 l 0
 512 512 l 0
 512 256 l 0
 256 256 l 0
1536 256 m 0
 1536 512 l 0
 1792 512 l 0
 1792 256 l 0
 1536 256 l 0
256 512 m 0
 256 768 l 0
 512 768 l 0
 512 512 l 0
 256 512 l 0
1536 512 m 0
 1536 768 l 0
 1792 768 l 0
 1792 512 l 0
 1536 512 l 0
256 768 m 0
 256 1024 l 0
 512 1024 l 0
 512 768 l 0
 256 768 l 0
1536 768 m 0
 1536 1024 l 0
 1792 1024 l 0
 1792 768 l 0
 1536 768 l 0
256 1024 m 0
 256 1280 l 0
 512 1280 l 0
 512 1024 l 0
 256 1024 l 0
1536 1024 m 0
 1536 1280 l 0
 1792 1280 l 0
 1792 1024 l 0
 1536 1024 l 0
512 1280 m 0
 512 1536 l 0
 768 1536 l 0
 768 1280 l 0
 512 1280 l 0
768 1280 m 0
 768 1536 l 0
 1024 1536 l 0
 1024 1280 l 0
 768 1280 l 0
1024 1280 m 0
 1024 1536 l 0
 1280 1536 l 0
 1280 1280 l 0
 1024 1280 l 0
1280 1280 m 0
 1280 1536 l 0
 1536 1536 l 0
 1536 1280 l 0
 1280 1280 l 0
EndSplineSet
EndChar

StartChar: P
Encoding: 80 80 96
Width: 1024
Flags: HW
LayerCount: 2
Fore
SplineSet
128 0 m 0
 128 256 l 0
 256 256 l 0
 256 0 l 0
 128 0 l 0
128 256 m 0
 128 512 l 0
 256 512 l 0
 256 256 l 0
 128 256 l 0
128 512 m 0
 128 768 l 0
 256 768 l 0
 256 512 l 0
 128 512 l 0
256 512 m 0
 256 768 l 0
 384 768 l 0
 384 512 l 0
 256 512 l 0
384 512 m 0
 384 768 l 0
 512 768 l 0
 512 512 l 0
 384 512 l 0
512 512 m 0
 512 768 l 0
 640 768 l 0
 640 512 l 0
 512 512 l 0
640 512 m 0
 640 768 l 0
 768 768 l 0
 768 512 l 0
 640 512 l 0
128 768 m 0
 128 1024 l 0
 256 1024 l 0
 256 768 l 0
 128 768 l 0
768 768 m 0
 768 1024 l 0
 896 1024 l 0
 896 768 l 0
 768 768 l 0
128 1024 m 0
 128 1280 l 0
 256 1280 l 0
 256 1024 l 0
 128 1024 l 0
768 1024 m 0
 768 1280 l 0
 896 1280 l 0
 896 1024 l 0
 768 1024 l 0
128 1280 m 0
 128 1536 l 0
 256 1536 l 0
 256 1280 l 0
 128 1280 l 0
256 1280 m 0
 256 1536 l 0
 384 1536 l 0
 384 1280 l 0
 256 1280 l 0
384 1280 m 0
 384 1536 l 0
 512 1536 l 0
 512 1280 l 0
 384 1280 l 0
512 1280 m 0
 512 1536 l 0
 640 1536 l 0
 640 1280 l 0
 512 1280 l 0
640 1280 m 0
 640 1536 l 0
 768 1536 l 0
 768 1280 l 0
 640 1280 l 0
EndSplineSet
EndChar

StartChar: glyph97
Encoding: 304 65328 97
Width: 2048
VWidth: 0
Flags: HW
LayerCount: 2
Fore
SplineSet
256 0 m 0
 256 256 l 0
 512 256 l 0
 512 0 l 0
 256 0 l 0
256 256 m 0
 256 512 l 0
 512 512 l 0
 512 256 l 0
 256 256 l 0
256 512 m 0
 256 768 l 0
 512 768 l 0
 512 512 l 0
 256 512 l 0
512 512 m 0
 512 768 l 0
 768 768 l 0
 768 512 l 0
 512 512 l 0
768 512 m 0
 768 768 l 0
 1024 768 l 0
 1024 512 l 0
 768 512 l 0
1024 512 m 0
 1024 768 l 0
 1280 768 l 0
 1280 512 l 0
 1024 512 l 0
1280 512 m 0
 1280 768 l 0
 1536 768 l 0
 1536 512 l 0
 1280 512 l 0
256 768 m 0
 256 1024 l 0
 512 1024 l 0
 512 768 l 0
 256 768 l 0
1536 768 m 0
 1536 1024 l 0
 1792 1024 l 0
 1792 768 l 0
 1536 768 l 0
256 1024 m 0
 256 1280 l 0
 512 1280 l 0
 512 1024 l 0
 256 1024 l 0
1536 1024 m 0
 1536 1280 l 0
 1792 1280 l 0
 1792 1024 l 0
 1536 1024 l 0
256 1280 m 0
 256 1536 l 0
 512 1536 l 0
 512 1280 l 0
 256 1280 l 0
512 1280 m 0
 512 1536 l 0
 768 1536 l 0
 768 1280 l 0
 512 1280 l 0
768 1280 m 0
 768 1536 l 0
 1024 1536 l 0
 1024 1280 l 0
 768 1280 l 0
1024 1280 m 0
 1024 1536 l 0
 1280 1536 l 0
 1280 1280 l 0
 1024 1280 l 0
1280 1280 m 0
 1280 1536 l 0
 1536 1536 l 0
 1536 1280 l 0
 1280 1280 l 0
EndSplineSet
EndChar

StartChar: Q
Encoding: 81 81 98
Width: 1024
Flags: HW
LayerCount: 2
Fore
SplineSet
256 0 m 0
 256 256 l 0
 384 256 l 0
 384 0 l 0
 256 0 l 0
384 0 m 0
 384 256 l 0
 512 256 l 0
 512 0 l 0
 384 0 l 0
512 0 m 0
 512 256 l 0
 640 256 l 0
 640 0 l 0
 512 0 l 0
640 0 m 0
 640 256 l 0
 768 256 l 0
 768 0 l 0
 640 0 l 0
128 256 m 0
 128 512 l 0
 256 512 l 0
 256 256 l 0
 128 256 l 0
512 256 m 0
 512 512 l 0
 640 512 l 0
 640 256 l 0
 512 256 l 0
768 256 m 0
 768 512 l 0
 896 512 l 0
 896 256 l 0
 768 256 l 0
128 512 m 0
 128 768 l 0
 256 768 l 0
 256 512 l 0
 128 512 l 0
384 512 m 0
 384 768 l 0
 512 768 l 0
 512 512 l 0
 384 512 l 0
768 512 m 0
 768 768 l 0
 896 768 l 0
 896 512 l 0
 768 512 l 0
128 768 m 0
 128 1024 l 0
 256 1024 l 0
 256 768 l 0
 128 768 l 0
768 768 m 0
 768 1024 l 0
 896 1024 l 0
 896 768 l 0
 768 768 l 0
128 1024 m 0
 128 1280 l 0
 256 1280 l 0
 256 1024 l 0
 128 1024 l 0
768 1024 m 0
 768 1280 l 0
 896 1280 l 0
 896 1024 l 0
 768 1024 l 0
256 1280 m 0
 256 1536 l 0
 384 1536 l 0
 384 1280 l 0
 256 1280 l 0
384 1280 m 0
 384 1536 l 0
 512 1536 l 0
 512 1280 l 0
 384 1280 l 0
512 1280 m 0
 512 1536 l 0
 640 1536 l 0
 640 1280 l 0
 512 1280 l 0
640 1280 m 0
 640 1536 l 0
 768 1536 l 0
 768 1280 l 0
 640 1280 l 0
EndSplineSet
EndChar

StartChar: glyph99
Encoding: 305 65329 99
Width: 2048
VWidth: 0
Flags: HW
LayerCount: 2
Fore
SplineSet
512 0 m 0
 512 256 l 0
 768 256 l 0
 768 0 l 0
 512 0 l 0
768 0 m 0
 768 256 l 0
 1024 256 l 0
 1024 0 l 0
 768 0 l 0
1024 0 m 0
 1024 256 l 0
 1280 256 l 0
 1280 0 l 0
 1024 0 l 0
1280 0 m 0
 1280 256 l 0
 1536 256 l 0
 1536 0 l 0
 1280 0 l 0
256 256 m 0
 256 512 l 0
 512 512 l 0
 512 256 l 0
 256 256 l 0
1024 256 m 0
 1024 512 l 0
 1280 512 l 0
 1280 256 l 0
 1024 256 l 0
1536 256 m 0
 1536 512 l 0
 1792 512 l 0
 1792 256 l 0
 1536 256 l 0
256 512 m 0
 256 768 l 0
 512 768 l 0
 512 512 l 0
 256 512 l 0
768 512 m 0
 768 768 l 0
 1024 768 l 0
 1024 512 l 0
 768 512 l 0
1536 512 m 0
 1536 768 l 0
 1792 768 l 0
 1792 512 l 0
 1536 512 l 0
256 768 m 0
 256 1024 l 0
 512 1024 l 0
 512 768 l 0
 256 768 l 0
1536 768 m 0
 1536 1024 l 0
 1792 1024 l 0
 1792 768 l 0
 1536 768 l 0
256 1024 m 0
 256 1280 l 0
 512 1280 l 0
 512 1024 l 0
 256 1024 l 0
1536 1024 m 0
 1536 1280 l 0
 1792 1280 l 0
 1792 1024 l 0
 1536 1024 l 0
512 1280 m 0
 512 1536 l 0
 768 1536 l 0
 768 1280 l 0
 512 1280 l 0
768 1280 m 0
 768 1536 l 0
 1024 1536 l 0
 1024 1280 l 0
 768 1280 l 0
1024 1280 m 0
 1024 1536 l 0
 1280 1536 l 0
 1280 1280 l 0
 1024 1280 l 0
1280 1280 m 0
 1280 1536 l 0
 1536 1536 l 0
 1536 1280 l 0
 1280 1280 l 0
EndSplineSet
EndChar

StartChar: R
Encoding: 82 82 100
Width: 1024
Flags: HW
LayerCount: 2
Fore
SplineSet
128 0 m 0
 128 256 l 0
 256 256 l 0
 256 0 l 0
 128 0 l 0
768 0 m 0
 768 256 l 0
 896 256 l 0
 896 0 l 0
 768 0 l 0
128 256 m 0
 128 512 l 0
 256 512 l 0
 256 256 l 0
 128 256 l 0
640 256 m 0
 640 512 l 0
 768 512 l 0
 768 256 l 0
 640 256 l 0
128 512 m 0
 128 768 l 0
 256 768 l 0
 256 512 l 0
 128 512 l 0
256 512 m 0
 256 768 l 0
 384 768 l 0
 384 512 l 0
 256 512 l 0
384 512 m 0
 384 768 l 0
 512 768 l 0
 512 512 l 0
 384 512 l 0
512 512 m 0
 512 768 l 0
 640 768 l 0
 640 512 l 0
 512 512 l 0
640 512 m 0
 640 768 l 0
 768 768 l 0
 768 512 l 0
 640 512 l 0
128 768 m 0
 128 1024 l 0
 256 1024 l 0
 256 768 l 0
 128 768 l 0
768 768 m 0
 768 1024 l 0
 896 1024 l 0
 896 768 l 0
 768 768 l 0
128 1024 m 0
 128 1280 l 0
 256 1280 l 0
 256 1024 l 0
 128 1024 l 0
768 1024 m 0
 768 1280 l 0
 896 1280 l 0
 896 1024 l 0
 768 1024 l 0
128 1280 m 0
 128 1536 l 0
 256 1536 l 0
 256 1280 l 0
 128 1280 l 0
256 1280 m 0
 256 1536 l 0
 384 1536 l 0
 384 1280 l 0
 256 1280 l 0
384 1280 m 0
 384 1536 l 0
 512 1536 l 0
 512 1280 l 0
 384 1280 l 0
512 1280 m 0
 512 1536 l 0
 640 1536 l 0
 640 1280 l 0
 512 1280 l 0
640 1280 m 0
 640 1536 l 0
 768 1536 l 0
 768 1280 l 0
 640 1280 l 0
EndSplineSet
EndChar

StartChar: glyph101
Encoding: 306 65330 101
Width: 2048
VWidth: 0
Flags: HW
LayerCount: 2
Fore
SplineSet
256 0 m 0
 256 256 l 0
 512 256 l 0
 512 0 l 0
 256 0 l 0
1536 0 m 0
 1536 256 l 0
 1792 256 l 0
 1792 0 l 0
 1536 0 l 0
256 256 m 0
 256 512 l 0
 512 512 l 0
 512 256 l 0
 256 256 l 0
1280 256 m 0
 1280 512 l 0
 1536 512 l 0
 1536 256 l 0
 1280 256 l 0
256 512 m 0
 256 768 l 0
 512 768 l 0
 512 512 l 0
 256 512 l 0
512 512 m 0
 512 768 l 0
 768 768 l 0
 768 512 l 0
 512 512 l 0
768 512 m 0
 768 768 l 0
 1024 768 l 0
 1024 512 l 0
 768 512 l 0
1024 512 m 0
 1024 768 l 0
 1280 768 l 0
 1280 512 l 0
 1024 512 l 0
1280 512 m 0
 1280 768 l 0
 1536 768 l 0
 1536 512 l 0
 1280 512 l 0
256 768 m 0
 256 1024 l 0
 512 1024 l 0
 512 768 l 0
 256 768 l 0
1536 768 m 0
 1536 1024 l 0
 1792 1024 l 0
 1792 768 l 0
 1536 768 l 0
256 1024 m 0
 256 1280 l 0
 512 1280 l 0
 512 1024 l 0
 256 1024 l 0
1536 1024 m 0
 1536 1280 l 0
 1792 1280 l 0
 1792 1024 l 0
 1536 1024 l 0
256 1280 m 0
 256 1536 l 0
 512 1536 l 0
 512 1280 l 0
 256 1280 l 0
512 1280 m 0
 512 1536 l 0
 768 1536 l 0
 768 1280 l 0
 512 1280 l 0
768 1280 m 0
 768 1536 l 0
 1024 1536 l 0
 1024 1280 l 0
 768 1280 l 0
1024 1280 m 0
 1024 1536 l 0
 1280 1536 l 0
 1280 1280 l 0
 1024 1280 l 0
1280 1280 m 0
 1280 1536 l 0
 1536 1536 l 0
 1536 1280 l 0
 1280 1280 l 0
EndSplineSet
EndChar

StartChar: S
Encoding: 83 83 102
Width: 1024
Flags: HW
LayerCount: 2
Fore
SplineSet
256 0 m 0
 256 256 l 0
 384 256 l 0
 384 0 l 0
 256 0 l 0
384 0 m 0
 384 256 l 0
 512 256 l 0
 512 0 l 0
 384 0 l 0
512 0 m 0
 512 256 l 0
 640 256 l 0
 640 0 l 0
 512 0 l 0
640 0 m 0
 640 256 l 0
 768 256 l 0
 768 0 l 0
 640 0 l 0
128 256 m 0
 128 512 l 0
 256 512 l 0
 256 256 l 0
 128 256 l 0
768 256 m 0
 768 512 l 0
 896 512 l 0
 896 256 l 0
 768 256 l 0
768 512 m 0
 768 768 l 0
 896 768 l 0
 896 512 l 0
 768 512 l 0
256 768 m 0
 256 1024 l 0
 384 1024 l 0
 384 768 l 0
 256 768 l 0
384 768 m 0
 384 1024 l 0
 512 1024 l 0
 512 768 l 0
 384 768 l 0
512 768 m 0
 512 1024 l 0
 640 1024 l 0
 640 768 l 0
 512 768 l 0
640 768 m 0
 640 1024 l 0
 768 1024 l 0
 768 768 l 0
 640 768 l 0
128 1024 m 0
 128 1280 l 0
 256 1280 l 0
 256 1024 l 0
 128 1024 l 0
256 1280 m 0
 256 1536 l 0
 384 1536 l 0
 384 1280 l 0
 256 1280 l 0
384 1280 m 0
 384 1536 l 0
 512 1536 l 0
 512 1280 l 0
 384 1280 l 0
512 1280 m 0
 512 1536 l 0
 640 1536 l 0
 640 1280 l 0
 512 1280 l 0
640 1280 m 0
 640 1536 l 0
 768 1536 l 0
 768 1280 l 0
 640 1280 l 0
EndSplineSet
EndChar

StartChar: glyph103
Encoding: 307 65331 103
Width: 2048
VWidth: 0
Flags: HW
LayerCount: 2
Fore
SplineSet
512 0 m 0
 512 256 l 0
 768 256 l 0
 768 0 l 0
 512 0 l 0
768 0 m 0
 768 256 l 0
 1024 256 l 0
 1024 0 l 0
 768 0 l 0
1024 0 m 0
 1024 256 l 0
 1280 256 l 0
 1280 0 l 0
 1024 0 l 0
1280 0 m 0
 1280 256 l 0
 1536 256 l 0
 1536 0 l 0
 1280 0 l 0
256 256 m 0
 256 512 l 0
 512 512 l 0
 512 256 l 0
 256 256 l 0
1536 256 m 0
 1536 512 l 0
 1792 512 l 0
 1792 256 l 0
 1536 256 l 0
1536 512 m 0
 1536 768 l 0
 1792 768 l 0
 1792 512 l 0
 1536 512 l 0
512 768 m 0
 512 1024 l 0
 768 1024 l 0
 768 768 l 0
 512 768 l 0
768 768 m 0
 768 1024 l 0
 1024 1024 l 0
 1024 768 l 0
 768 768 l 0
1024 768 m 0
 1024 1024 l 0
 1280 1024 l 0
 1280 768 l 0
 1024 768 l 0
1280 768 m 0
 1280 1024 l 0
 1536 1024 l 0
 1536 768 l 0
 1280 768 l 0
256 1024 m 0
 256 1280 l 0
 512 1280 l 0
 512 1024 l 0
 256 1024 l 0
512 1280 m 0
 512 1536 l 0
 768 1536 l 0
 768 1280 l 0
 512 1280 l 0
768 1280 m 0
 768 1536 l 0
 1024 1536 l 0
 1024 1280 l 0
 768 1280 l 0
1024 1280 m 0
 1024 1536 l 0
 1280 1536 l 0
 1280 1280 l 0
 1024 1280 l 0
1280 1280 m 0
 1280 1536 l 0
 1536 1536 l 0
 1536 1280 l 0
 1280 1280 l 0
EndSplineSet
EndChar

StartChar: T
Encoding: 84 84 104
Width: 1024
Flags: HW
LayerCount: 2
Fore
SplineSet
384 0 m 0
 384 256 l 0
 512 256 l 0
 512 0 l 0
 384 0 l 0
384 256 m 0
 384 512 l 0
 512 512 l 0
 512 256 l 0
 384 256 l 0
384 512 m 0
 384 768 l 0
 512 768 l 0
 512 512 l 0
 384 512 l 0
384 768 m 0
 384 1024 l 0
 512 1024 l 0
 512 768 l 0
 384 768 l 0
384 1024 m 0
 384 1280 l 0
 512 1280 l 0
 512 1024 l 0
 384 1024 l 0
0 1280 m 0
 0 1536 l 0
 128 1536 l 0
 128 1280 l 0
 0 1280 l 0
128 1280 m 0
 128 1536 l 0
 256 1536 l 0
 256 1280 l 0
 128 1280 l 0
256 1280 m 0
 256 1536 l 0
 384 1536 l 0
 384 1280 l 0
 256 1280 l 0
384 1280 m 0
 384 1536 l 0
 512 1536 l 0
 512 1280 l 0
 384 1280 l 0
512 1280 m 0
 512 1536 l 0
 640 1536 l 0
 640 1280 l 0
 512 1280 l 0
640 1280 m 0
 640 1536 l 0
 768 1536 l 0
 768 1280 l 0
 640 1280 l 0
768 1280 m 0
 768 1536 l 0
 896 1536 l 0
 896 1280 l 0
 768 1280 l 0
EndSplineSet
EndChar

StartChar: glyph105
Encoding: 308 65332 105
Width: 2048
VWidth: 0
Flags: HW
LayerCount: 2
Fore
SplineSet
768 0 m 0
 768 256 l 0
 1024 256 l 0
 1024 0 l 0
 768 0 l 0
768 256 m 0
 768 512 l 0
 1024 512 l 0
 1024 256 l 0
 768 256 l 0
768 512 m 0
 768 768 l 0
 1024 768 l 0
 1024 512 l 0
 768 512 l 0
768 768 m 0
 768 1024 l 0
 1024 1024 l 0
 1024 768 l 0
 768 768 l 0
768 1024 m 0
 768 1280 l 0
 1024 1280 l 0
 1024 1024 l 0
 768 1024 l 0
0 1280 m 0
 0 1536 l 0
 256 1536 l 0
 256 1280 l 0
 0 1280 l 0
256 1280 m 0
 256 1536 l 0
 512 1536 l 0
 512 1280 l 0
 256 1280 l 0
512 1280 m 0
 512 1536 l 0
 768 1536 l 0
 768 1280 l 0
 512 1280 l 0
768 1280 m 0
 768 1536 l 0
 1024 1536 l 0
 1024 1280 l 0
 768 1280 l 0
1024 1280 m 0
 1024 1536 l 0
 1280 1536 l 0
 1280 1280 l 0
 1024 1280 l 0
1280 1280 m 0
 1280 1536 l 0
 1536 1536 l 0
 1536 1280 l 0
 1280 1280 l 0
1536 1280 m 0
 1536 1536 l 0
 1792 1536 l 0
 1792 1280 l 0
 1536 1280 l 0
EndSplineSet
EndChar

StartChar: U
Encoding: 85 85 106
Width: 1024
Flags: HW
LayerCount: 2
Fore
SplineSet
256 0 m 0
 256 256 l 0
 384 256 l 0
 384 0 l 0
 256 0 l 0
384 0 m 0
 384 256 l 0
 512 256 l 0
 512 0 l 0
 384 0 l 0
512 0 m 0
 512 256 l 0
 640 256 l 0
 640 0 l 0
 512 0 l 0
640 0 m 0
 640 256 l 0
 768 256 l 0
 768 0 l 0
 640 0 l 0
128 256 m 0
 128 512 l 0
 256 512 l 0
 256 256 l 0
 128 256 l 0
768 256 m 0
 768 512 l 0
 896 512 l 0
 896 256 l 0
 768 256 l 0
128 512 m 0
 128 768 l 0
 256 768 l 0
 256 512 l 0
 128 512 l 0
768 512 m 0
 768 768 l 0
 896 768 l 0
 896 512 l 0
 768 512 l 0
128 768 m 0
 128 1024 l 0
 256 1024 l 0
 256 768 l 0
 128 768 l 0
768 768 m 0
 768 1024 l 0
 896 1024 l 0
 896 768 l 0
 768 768 l 0
128 1024 m 0
 128 1280 l 0
 256 1280 l 0
 256 1024 l 0
 128 1024 l 0
768 1024 m 0
 768 1280 l 0
 896 1280 l 0
 896 1024 l 0
 768 1024 l 0
128 1280 m 0
 128 1536 l 0
 256 1536 l 0
 256 1280 l 0
 128 1280 l 0
768 1280 m 0
 768 1536 l 0
 896 1536 l 0
 896 1280 l 0
 768 1280 l 0
EndSplineSet
EndChar

StartChar: glyph107
Encoding: 309 65333 107
Width: 2048
VWidth: 0
Flags: HW
LayerCount: 2
Fore
SplineSet
512 0 m 0
 512 256 l 0
 768 256 l 0
 768 0 l 0
 512 0 l 0
768 0 m 0
 768 256 l 0
 1024 256 l 0
 1024 0 l 0
 768 0 l 0
1024 0 m 0
 1024 256 l 0
 1280 256 l 0
 1280 0 l 0
 1024 0 l 0
1280 0 m 0
 1280 256 l 0
 1536 256 l 0
 1536 0 l 0
 1280 0 l 0
256 256 m 0
 256 512 l 0
 512 512 l 0
 512 256 l 0
 256 256 l 0
1536 256 m 0
 1536 512 l 0
 1792 512 l 0
 1792 256 l 0
 1536 256 l 0
256 512 m 0
 256 768 l 0
 512 768 l 0
 512 512 l 0
 256 512 l 0
1536 512 m 0
 1536 768 l 0
 1792 768 l 0
 1792 512 l 0
 1536 512 l 0
256 768 m 0
 256 1024 l 0
 512 1024 l 0
 512 768 l 0
 256 768 l 0
1536 768 m 0
 1536 1024 l 0
 1792 1024 l 0
 1792 768 l 0
 1536 768 l 0
256 1024 m 0
 256 1280 l 0
 512 1280 l 0
 512 1024 l 0
 256 1024 l 0
1536 1024 m 0
 1536 1280 l 0
 1792 1280 l 0
 1792 1024 l 0
 1536 1024 l 0
256 1280 m 0
 256 1536 l 0
 512 1536 l 0
 512 1280 l 0
 256 1280 l 0
1536 1280 m 0
 1536 1536 l 0
 1792 1536 l 0
 1792 1280 l 0
 1536 1280 l 0
EndSplineSet
EndChar

StartChar: V
Encoding: 86 86 108
Width: 1024
Flags: HW
LayerCount: 2
Fore
SplineSet
384 0 m 0
 384 256 l 0
 512 256 l 0
 512 0 l 0
 384 0 l 0
512 0 m 0
 512 256 l 0
 640 256 l 0
 640 0 l 0
 512 0 l 0
256 256 m 0
 256 512 l 0
 384 512 l 0
 384 256 l 0
 256 256 l 0
640 256 m 0
 640 512 l 0
 768 512 l 0
 768 256 l 0
 640 256 l 0
128 512 m 0
 128 768 l 0
 256 768 l 0
 256 512 l 0
 128 512 l 0
768 512 m 0
 768 768 l 0
 896 768 l 0
 896 512 l 0
 768 512 l 0
128 768 m 0
 128 1024 l 0
 256 1024 l 0
 256 768 l 0
 128 768 l 0
768 768 m 0
 768 1024 l 0
 896 1024 l 0
 896 768 l 0
 768 768 l 0
128 1024 m 0
 128 1280 l 0
 256 1280 l 0
 256 1024 l 0
 128 1024 l 0
768 1024 m 0
 768 1280 l 0
 896 1280 l 0
 896 1024 l 0
 768 1024 l 0
128 1280 m 0
 128 1536 l 0
 256 1536 l 0
 256 1280 l 0
 128 1280 l 0
768 1280 m 0
 768 1536 l 0
 896 1536 l 0
 896 1280 l 0
 768 1280 l 0
EndSplineSet
EndChar

StartChar: glyph109
Encoding: 310 65334 109
Width: 2048
VWidth: 0
Flags: HW
LayerCount: 2
Fore
SplineSet
768 0 m 0
 768 256 l 0
 1024 256 l 0
 1024 0 l 0
 768 0 l 0
1024 0 m 0
 1024 256 l 0
 1280 256 l 0
 1280 0 l 0
 1024 0 l 0
512 256 m 0
 512 512 l 0
 768 512 l 0
 768 256 l 0
 512 256 l 0
1280 256 m 0
 1280 512 l 0
 1536 512 l 0
 1536 256 l 0
 1280 256 l 0
256 512 m 0
 256 768 l 0
 512 768 l 0
 512 512 l 0
 256 512 l 0
1536 512 m 0
 1536 768 l 0
 1792 768 l 0
 1792 512 l 0
 1536 512 l 0
256 768 m 0
 256 1024 l 0
 512 1024 l 0
 512 768 l 0
 256 768 l 0
1536 768 m 0
 1536 1024 l 0
 1792 1024 l 0
 1792 768 l 0
 1536 768 l 0
256 1024 m 0
 256 1280 l 0
 512 1280 l 0
 512 1024 l 0
 256 1024 l 0
1536 1024 m 0
 1536 1280 l 0
 1792 1280 l 0
 1792 1024 l 0
 1536 1024 l 0
256 1280 m 0
 256 1536 l 0
 512 1536 l 0
 512 1280 l 0
 256 1280 l 0
1536 1280 m 0
 1536 1536 l 0
 1792 1536 l 0
 1792 1280 l 0
 1536 1280 l 0
EndSplineSet
EndChar

StartChar: W
Encoding: 87 87 110
Width: 1024
Flags: HW
LayerCount: 2
Fore
SplineSet
256 0 m 0
 256 256 l 0
 384 256 l 0
 384 0 l 0
 256 0 l 0
640 0 m 0
 640 256 l 0
 768 256 l 0
 768 0 l 0
 640 0 l 0
128 256 m 0
 128 512 l 0
 256 512 l 0
 256 256 l 0
 128 256 l 0
384 256 m 0
 384 512 l 0
 512 512 l 0
 512 256 l 0
 384 256 l 0
512 256 m 0
 512 512 l 0
 640 512 l 0
 640 256 l 0
 512 256 l 0
768 256 m 0
 768 512 l 0
 896 512 l 0
 896 256 l 0
 768 256 l 0
128 512 m 0
 128 768 l 0
 256 768 l 0
 256 512 l 0
 128 512 l 0
768 512 m 0
 768 768 l 0
 896 768 l 0
 896 512 l 0
 768 512 l 0
128 768 m 0
 128 1024 l 0
 256 1024 l 0
 256 768 l 0
 128 768 l 0
768 768 m 0
 768 1024 l 0
 896 1024 l 0
 896 768 l 0
 768 768 l 0
128 1024 m 0
 128 1280 l 0
 256 1280 l 0
 256 1024 l 0
 128 1024 l 0
768 1024 m 0
 768 1280 l 0
 896 1280 l 0
 896 1024 l 0
 768 1024 l 0
128 1280 m 0
 128 1536 l 0
 256 1536 l 0
 256 1280 l 0
 128 1280 l 0
768 1280 m 0
 768 1536 l 0
 896 1536 l 0
 896 1280 l 0
 768 1280 l 0
EndSplineSet
EndChar

StartChar: glyph111
Encoding: 311 65335 111
Width: 2048
VWidth: 0
Flags: HW
LayerCount: 2
Fore
SplineSet
512 0 m 0
 512 256 l 0
 768 256 l 0
 768 0 l 0
 512 0 l 0
1280 0 m 0
 1280 256 l 0
 1536 256 l 0
 1536 0 l 0
 1280 0 l 0
256 256 m 0
 256 512 l 0
 512 512 l 0
 512 256 l 0
 256 256 l 0
768 256 m 0
 768 512 l 0
 1024 512 l 0
 1024 256 l 0
 768 256 l 0
1024 256 m 0
 1024 512 l 0
 1280 512 l 0
 1280 256 l 0
 1024 256 l 0
1536 256 m 0
 1536 512 l 0
 1792 512 l 0
 1792 256 l 0
 1536 256 l 0
256 512 m 0
 256 768 l 0
 512 768 l 0
 512 512 l 0
 256 512 l 0
1536 512 m 0
 1536 768 l 0
 1792 768 l 0
 1792 512 l 0
 1536 512 l 0
256 768 m 0
 256 1024 l 0
 512 1024 l 0
 512 768 l 0
 256 768 l 0
1536 768 m 0
 1536 1024 l 0
 1792 1024 l 0
 1792 768 l 0
 1536 768 l 0
256 1024 m 0
 256 1280 l 0
 512 1280 l 0
 512 1024 l 0
 256 1024 l 0
1536 1024 m 0
 1536 1280 l 0
 1792 1280 l 0
 1792 1024 l 0
 1536 1024 l 0
256 1280 m 0
 256 1536 l 0
 512 1536 l 0
 512 1280 l 0
 256 1280 l 0
1536 1280 m 0
 1536 1536 l 0
 1792 1536 l 0
 1792 1280 l 0
 1536 1280 l 0
EndSplineSet
EndChar

StartChar: X
Encoding: 88 88 112
Width: 1024
Flags: HW
LayerCount: 2
Fore
SplineSet
128 0 m 0
 128 256 l 0
 256 256 l 0
 256 0 l 0
 128 0 l 0
768 0 m 0
 768 256 l 0
 896 256 l 0
 896 0 l 0
 768 0 l 0
256 256 m 0
 256 512 l 0
 384 512 l 0
 384 256 l 0
 256 256 l 0
640 256 m 0
 640 512 l 0
 768 512 l 0
 768 256 l 0
 640 256 l 0
384 512 m 0
 384 768 l 0
 512 768 l 0
 512 512 l 0
 384 512 l 0
512 512 m 0
 512 768 l 0
 640 768 l 0
 640 512 l 0
 512 512 l 0
384 768 m 0
 384 1024 l 0
 512 1024 l 0
 512 768 l 0
 384 768 l 0
512 768 m 0
 512 1024 l 0
 640 1024 l 0
 640 768 l 0
 512 768 l 0
256 1024 m 0
 256 1280 l 0
 384 1280 l 0
 384 1024 l 0
 256 1024 l 0
640 1024 m 0
 640 1280 l 0
 768 1280 l 0
 768 1024 l 0
 640 1024 l 0
128 1280 m 0
 128 1536 l 0
 256 1536 l 0
 256 1280 l 0
 128 1280 l 0
768 1280 m 0
 768 1536 l 0
 896 1536 l 0
 896 1280 l 0
 768 1280 l 0
EndSplineSet
EndChar

StartChar: glyph113
Encoding: 312 65336 113
Width: 2048
VWidth: 0
Flags: HW
LayerCount: 2
Fore
SplineSet
256 0 m 0
 256 256 l 0
 512 256 l 0
 512 0 l 0
 256 0 l 0
1536 0 m 0
 1536 256 l 0
 1792 256 l 0
 1792 0 l 0
 1536 0 l 0
512 256 m 0
 512 512 l 0
 768 512 l 0
 768 256 l 0
 512 256 l 0
1280 256 m 0
 1280 512 l 0
 1536 512 l 0
 1536 256 l 0
 1280 256 l 0
768 512 m 0
 768 768 l 0
 1024 768 l 0
 1024 512 l 0
 768 512 l 0
1024 512 m 0
 1024 768 l 0
 1280 768 l 0
 1280 512 l 0
 1024 512 l 0
768 768 m 0
 768 1024 l 0
 1024 1024 l 0
 1024 768 l 0
 768 768 l 0
1024 768 m 0
 1024 1024 l 0
 1280 1024 l 0
 1280 768 l 0
 1024 768 l 0
512 1024 m 0
 512 1280 l 0
 768 1280 l 0
 768 1024 l 0
 512 1024 l 0
1280 1024 m 0
 1280 1280 l 0
 1536 1280 l 0
 1536 1024 l 0
 1280 1024 l 0
256 1280 m 0
 256 1536 l 0
 512 1536 l 0
 512 1280 l 0
 256 1280 l 0
1536 1280 m 0
 1536 1536 l 0
 1792 1536 l 0
 1792 1280 l 0
 1536 1280 l 0
EndSplineSet
EndChar

StartChar: Y
Encoding: 89 89 114
Width: 1024
Flags: HW
LayerCount: 2
Fore
SplineSet
384 0 m 0
 384 256 l 0
 512 256 l 0
 512 0 l 0
 384 0 l 0
384 256 m 0
 384 512 l 0
 512 512 l 0
 512 256 l 0
 384 256 l 0
384 512 m 0
 384 768 l 0
 512 768 l 0
 512 512 l 0
 384 512 l 0
256 768 m 0
 256 1024 l 0
 384 1024 l 0
 384 768 l 0
 256 768 l 0
512 768 m 0
 512 1024 l 0
 640 1024 l 0
 640 768 l 0
 512 768 l 0
128 1024 m 0
 128 1280 l 0
 256 1280 l 0
 256 1024 l 0
 128 1024 l 0
640 1024 m 0
 640 1280 l 0
 768 1280 l 0
 768 1024 l 0
 640 1024 l 0
0 1280 m 0
 0 1536 l 0
 128 1536 l 0
 128 1280 l 0
 0 1280 l 0
768 1280 m 0
 768 1536 l 0
 896 1536 l 0
 896 1280 l 0
 768 1280 l 0
EndSplineSet
EndChar

StartChar: glyph115
Encoding: 313 65337 115
Width: 2048
VWidth: 0
Flags: HW
LayerCount: 2
Fore
SplineSet
768 0 m 0
 768 256 l 0
 1024 256 l 0
 1024 0 l 0
 768 0 l 0
768 256 m 0
 768 512 l 0
 1024 512 l 0
 1024 256 l 0
 768 256 l 0
768 512 m 0
 768 768 l 0
 1024 768 l 0
 1024 512 l 0
 768 512 l 0
512 768 m 0
 512 1024 l 0
 768 1024 l 0
 768 768 l 0
 512 768 l 0
1024 768 m 0
 1024 1024 l 0
 1280 1024 l 0
 1280 768 l 0
 1024 768 l 0
256 1024 m 0
 256 1280 l 0
 512 1280 l 0
 512 1024 l 0
 256 1024 l 0
1280 1024 m 0
 1280 1280 l 0
 1536 1280 l 0
 1536 1024 l 0
 1280 1024 l 0
0 1280 m 0
 0 1536 l 0
 256 1536 l 0
 256 1280 l 0
 0 1280 l 0
1536 1280 m 0
 1536 1536 l 0
 1792 1536 l 0
 1792 1280 l 0
 1536 1280 l 0
EndSplineSet
EndChar

StartChar: Z
Encoding: 90 90 116
Width: 1024
Flags: HW
LayerCount: 2
Fore
SplineSet
128 0 m 0
 128 256 l 0
 256 256 l 0
 256 0 l 0
 128 0 l 0
256 0 m 0
 256 256 l 0
 384 256 l 0
 384 0 l 0
 256 0 l 0
384 0 m 0
 384 256 l 0
 512 256 l 0
 512 0 l 0
 384 0 l 0
512 0 m 0
 512 256 l 0
 640 256 l 0
 640 0 l 0
 512 0 l 0
640 0 m 0
 640 256 l 0
 768 256 l 0
 768 0 l 0
 640 0 l 0
768 0 m 0
 768 256 l 0
 896 256 l 0
 896 0 l 0
 768 0 l 0
256 256 m 0
 256 512 l 0
 384 512 l 0
 384 256 l 0
 256 256 l 0
384 512 m 0
 384 768 l 0
 512 768 l 0
 512 512 l 0
 384 512 l 0
512 768 m 0
 512 1024 l 0
 640 1024 l 0
 640 768 l 0
 512 768 l 0
640 1024 m 0
 640 1280 l 0
 768 1280 l 0
 768 1024 l 0
 640 1024 l 0
128 1280 m 0
 128 1536 l 0
 256 1536 l 0
 256 1280 l 0
 128 1280 l 0
256 1280 m 0
 256 1536 l 0
 384 1536 l 0
 384 1280 l 0
 256 1280 l 0
384 1280 m 0
 384 1536 l 0
 512 1536 l 0
 512 1280 l 0
 384 1280 l 0
512 1280 m 0
 512 1536 l 0
 640 1536 l 0
 640 1280 l 0
 512 1280 l 0
640 1280 m 0
 640 1536 l 0
 768 1536 l 0
 768 1280 l 0
 640 1280 l 0
768 1280 m 0
 768 1536 l 0
 896 1536 l 0
 896 1280 l 0
 768 1280 l 0
EndSplineSet
EndChar

StartChar: glyph117
Encoding: 314 65338 117
Width: 2048
VWidth: 0
Flags: HW
LayerCount: 2
Fore
SplineSet
256 0 m 0
 256 256 l 0
 512 256 l 0
 512 0 l 0
 256 0 l 0
512 0 m 0
 512 256 l 0
 768 256 l 0
 768 0 l 0
 512 0 l 0
768 0 m 0
 768 256 l 0
 1024 256 l 0
 1024 0 l 0
 768 0 l 0
1024 0 m 0
 1024 256 l 0
 1280 256 l 0
 1280 0 l 0
 1024 0 l 0
1280 0 m 0
 1280 256 l 0
 1536 256 l 0
 1536 0 l 0
 1280 0 l 0
1536 0 m 0
 1536 256 l 0
 1792 256 l 0
 1792 0 l 0
 1536 0 l 0
512 256 m 0
 512 512 l 0
 768 512 l 0
 768 256 l 0
 512 256 l 0
768 512 m 0
 768 768 l 0
 1024 768 l 0
 1024 512 l 0
 768 512 l 0
1024 768 m 0
 1024 1024 l 0
 1280 1024 l 0
 1280 768 l 0
 1024 768 l 0
1280 1024 m 0
 1280 1280 l 0
 1536 1280 l 0
 1536 1024 l 0
 1280 1024 l 0
256 1280 m 0
 256 1536 l 0
 512 1536 l 0
 512 1280 l 0
 256 1280 l 0
512 1280 m 0
 512 1536 l 0
 768 1536 l 0
 768 1280 l 0
 512 1280 l 0
768 1280 m 0
 768 1536 l 0
 1024 1536 l 0
 1024 1280 l 0
 768 1280 l 0
1024 1280 m 0
 1024 1536 l 0
 1280 1536 l 0
 1280 1280 l 0
 1024 1280 l 0
1280 1280 m 0
 1280 1536 l 0
 1536 1536 l 0
 1536 1280 l 0
 1280 1280 l 0
1536 1280 m 0
 1536 1536 l 0
 1792 1536 l 0
 1792 1280 l 0
 1536 1280 l 0
EndSplineSet
EndChar

StartChar: bracketleft
Encoding: 91 91 118
Width: 1024
Flags: HW
LayerCount: 2
Fore
SplineSet
512 0 m 0
 512 256 l 0
 640 256 l 0
 640 0 l 0
 512 0 l 0
640 0 m 0
 640 256 l 0
 768 256 l 0
 768 0 l 0
 640 0 l 0
768 0 m 0
 768 256 l 0
 896 256 l 0
 896 0 l 0
 768 0 l 0
512 256 m 0
 512 512 l 0
 640 512 l 0
 640 256 l 0
 512 256 l 0
512 512 m 0
 512 768 l 0
 640 768 l 0
 640 512 l 0
 512 512 l 0
512 768 m 0
 512 1024 l 0
 640 1024 l 0
 640 768 l 0
 512 768 l 0
512 1024 m 0
 512 1280 l 0
 640 1280 l 0
 640 1024 l 0
 512 1024 l 0
512 1280 m 0
 512 1536 l 0
 640 1536 l 0
 640 1280 l 0
 512 1280 l 0
640 1280 m 0
 640 1536 l 0
 768 1536 l 0
 768 1280 l 0
 640 1280 l 0
768 1280 m 0
 768 1536 l 0
 896 1536 l 0
 896 1280 l 0
 768 1280 l 0
EndSplineSet
EndChar

StartChar: glyph119
Encoding: 315 65339 119
Width: 2048
VWidth: 0
Flags: HW
LayerCount: 2
Fore
SplineSet
1024 0 m 0
 1024 256 l 0
 1280 256 l 0
 1280 0 l 0
 1024 0 l 0
1280 0 m 0
 1280 256 l 0
 1536 256 l 0
 1536 0 l 0
 1280 0 l 0
1536 0 m 0
 1536 256 l 0
 1792 256 l 0
 1792 0 l 0
 1536 0 l 0
1024 256 m 0
 1024 512 l 0
 1280 512 l 0
 1280 256 l 0
 1024 256 l 0
1024 512 m 0
 1024 768 l 0
 1280 768 l 0
 1280 512 l 0
 1024 512 l 0
1024 768 m 0
 1024 1024 l 0
 1280 1024 l 0
 1280 768 l 0
 1024 768 l 0
1024 1024 m 0
 1024 1280 l 0
 1280 1280 l 0
 1280 1024 l 0
 1024 1024 l 0
1024 1280 m 0
 1024 1536 l 0
 1280 1536 l 0
 1280 1280 l 0
 1024 1280 l 0
1280 1280 m 0
 1280 1536 l 0
 1536 1536 l 0
 1536 1280 l 0
 1280 1280 l 0
1536 1280 m 0
 1536 1536 l 0
 1792 1536 l 0
 1792 1280 l 0
 1536 1280 l 0
EndSplineSet
EndChar

StartChar: backslash
Encoding: 92 92 120
Width: 1024
Flags: HW
LayerCount: 2
Fore
SplineSet
640 0 m 0
 640 256 l 0
 768 256 l 0
 768 0 l 0
 640 0 l 0
512 256 m 0
 512 512 l 0
 640 512 l 0
 640 256 l 0
 512 256 l 0
384 512 m 0
 384 768 l 0
 512 768 l 0
 512 512 l 0
 384 512 l 0
256 768 m 0
 256 1024 l 0
 384 1024 l 0
 384 768 l 0
 256 768 l 0
128 1024 m 0
 128 1280 l 0
 256 1280 l 0
 256 1024 l 0
 128 1024 l 0
EndSplineSet
EndChar

StartChar: glyph121
Encoding: 316 65340 121
Width: 2048
VWidth: 0
Flags: HW
LayerCount: 2
Fore
SplineSet
1280 0 m 0
 1280 256 l 0
 1536 256 l 0
 1536 0 l 0
 1280 0 l 0
1024 256 m 0
 1024 512 l 0
 1280 512 l 0
 1280 256 l 0
 1024 256 l 0
768 512 m 0
 768 768 l 0
 1024 768 l 0
 1024 512 l 0
 768 512 l 0
512 768 m 0
 512 1024 l 0
 768 1024 l 0
 768 768 l 0
 512 768 l 0
256 1024 m 0
 256 1280 l 0
 512 1280 l 0
 512 1024 l 0
 256 1024 l 0
EndSplineSet
EndChar

StartChar: bracketright
Encoding: 93 93 122
Width: 1024
Flags: HW
LayerCount: 2
Fore
SplineSet
128 0 m 0
 128 256 l 0
 256 256 l 0
 256 0 l 0
 128 0 l 0
256 0 m 0
 256 256 l 0
 384 256 l 0
 384 0 l 0
 256 0 l 0
384 0 m 0
 384 256 l 0
 512 256 l 0
 512 0 l 0
 384 0 l 0
384 256 m 0
 384 512 l 0
 512 512 l 0
 512 256 l 0
 384 256 l 0
384 512 m 0
 384 768 l 0
 512 768 l 0
 512 512 l 0
 384 512 l 0
384 768 m 0
 384 1024 l 0
 512 1024 l 0
 512 768 l 0
 384 768 l 0
384 1024 m 0
 384 1280 l 0
 512 1280 l 0
 512 1024 l 0
 384 1024 l 0
128 1280 m 0
 128 1536 l 0
 256 1536 l 0
 256 1280 l 0
 128 1280 l 0
256 1280 m 0
 256 1536 l 0
 384 1536 l 0
 384 1280 l 0
 256 1280 l 0
384 1280 m 0
 384 1536 l 0
 512 1536 l 0
 512 1280 l 0
 384 1280 l 0
EndSplineSet
EndChar

StartChar: glyph123
Encoding: 317 65341 123
Width: 2048
VWidth: 0
Flags: HW
LayerCount: 2
Fore
SplineSet
256 0 m 0
 256 256 l 0
 512 256 l 0
 512 0 l 0
 256 0 l 0
512 0 m 0
 512 256 l 0
 768 256 l 0
 768 0 l 0
 512 0 l 0
768 0 m 0
 768 256 l 0
 1024 256 l 0
 1024 0 l 0
 768 0 l 0
768 256 m 0
 768 512 l 0
 1024 512 l 0
 1024 256 l 0
 768 256 l 0
768 512 m 0
 768 768 l 0
 1024 768 l 0
 1024 512 l 0
 768 512 l 0
768 768 m 0
 768 1024 l 0
 1024 1024 l 0
 1024 768 l 0
 768 768 l 0
768 1024 m 0
 768 1280 l 0
 1024 1280 l 0
 1024 1024 l 0
 768 1024 l 0
256 1280 m 0
 256 1536 l 0
 512 1536 l 0
 512 1280 l 0
 256 1280 l 0
512 1280 m 0
 512 1536 l 0
 768 1536 l 0
 768 1280 l 0
 512 1280 l 0
768 1280 m 0
 768 1536 l 0
 1024 1536 l 0
 1024 1280 l 0
 768 1280 l 0
EndSplineSet
EndChar

StartChar: asciicircum
Encoding: 94 94 124
Width: 1024
Flags: HW
LayerCount: 2
Fore
SplineSet
384 0 m 0
 384 256 l 0
 512 256 l 0
 512 0 l 0
 384 0 l 0
384 256 m 0
 384 512 l 0
 512 512 l 0
 512 256 l 0
 384 256 l 0
384 512 m 0
 384 768 l 0
 512 768 l 0
 512 512 l 0
 384 512 l 0
128 768 m 0
 128 1024 l 0
 256 1024 l 0
 256 768 l 0
 128 768 l 0
384 768 m 0
 384 1024 l 0
 512 1024 l 0
 512 768 l 0
 384 768 l 0
640 768 m 0
 640 1024 l 0
 768 1024 l 0
 768 768 l 0
 640 768 l 0
256 1024 m 0
 256 1280 l 0
 384 1280 l 0
 384 1024 l 0
 256 1024 l 0
384 1024 m 0
 384 1280 l 0
 512 1280 l 0
 512 1024 l 0
 384 1024 l 0
512 1024 m 0
 512 1280 l 0
 640 1280 l 0
 640 1024 l 0
 512 1024 l 0
384 1280 m 0
 384 1536 l 0
 512 1536 l 0
 512 1280 l 0
 384 1280 l 0
EndSplineSet
EndChar

StartChar: glyph125
Encoding: 318 65342 125
Width: 2048
VWidth: 0
Flags: HW
LayerCount: 2
Fore
SplineSet
768 0 m 0
 768 256 l 0
 1024 256 l 0
 1024 0 l 0
 768 0 l 0
768 256 m 0
 768 512 l 0
 1024 512 l 0
 1024 256 l 0
 768 256 l 0
768 512 m 0
 768 768 l 0
 1024 768 l 0
 1024 512 l 0
 768 512 l 0
256 768 m 0
 256 1024 l 0
 512 1024 l 0
 512 768 l 0
 256 768 l 0
768 768 m 0
 768 1024 l 0
 1024 1024 l 0
 1024 768 l 0
 768 768 l 0
1280 768 m 0
 1280 1024 l 0
 1536 1024 l 0
 1536 768 l 0
 1280 768 l 0
512 1024 m 0
 512 1280 l 0
 768 1280 l 0
 768 1024 l 0
 512 1024 l 0
768 1024 m 0
 768 1280 l 0
 1024 1280 l 0
 1024 1024 l 0
 768 1024 l 0
1024 1024 m 0
 1024 1280 l 0
 1280 1280 l 0
 1280 1024 l 0
 1024 1024 l 0
768 1280 m 0
 768 1536 l 0
 1024 1536 l 0
 1024 1280 l 0
 768 1280 l 0
EndSplineSet
EndChar

StartChar: underscore
Encoding: 95 95 126
Width: 1024
Flags: HW
LayerCount: 2
Fore
SplineSet
0 -256 m 0
 0 0 l 0
 128 0 l 0
 128 -256 l 0
 0 -256 l 0
128 -256 m 0
 128 0 l 0
 256 0 l 0
 256 -256 l 0
 128 -256 l 0
256 -256 m 0
 256 0 l 0
 384 0 l 0
 384 -256 l 0
 256 -256 l 0
384 -256 m 0
 384 0 l 0
 512 0 l 0
 512 -256 l 0
 384 -256 l 0
512 -256 m 0
 512 0 l 0
 640 0 l 0
 640 -256 l 0
 512 -256 l 0
640 -256 m 0
 640 0 l 0
 768 0 l 0
 768 -256 l 0
 640 -256 l 0
768 -256 m 0
 768 0 l 0
 896 0 l 0
 896 -256 l 0
 768 -256 l 0
896 -256 m 0
 896 0 l 0
 1024 0 l 0
 1024 -256 l 0
 896 -256 l 0
EndSplineSet
EndChar

StartChar: glyph127
Encoding: 319 65343 127
Width: 2048
VWidth: 0
Flags: HW
LayerCount: 2
Fore
SplineSet
0 -256 m 0
 0 0 l 0
 256 0 l 0
 256 -256 l 0
 0 -256 l 0
256 -256 m 0
 256 0 l 0
 512 0 l 0
 512 -256 l 0
 256 -256 l 0
512 -256 m 0
 512 0 l 0
 768 0 l 0
 768 -256 l 0
 512 -256 l 0
768 -256 m 0
 768 0 l 0
 1024 0 l 0
 1024 -256 l 0
 768 -256 l 0
1024 -256 m 0
 1024 0 l 0
 1280 0 l 0
 1280 -256 l 0
 1024 -256 l 0
1280 -256 m 0
 1280 0 l 0
 1536 0 l 0
 1536 -256 l 0
 1280 -256 l 0
1536 -256 m 0
 1536 0 l 0
 1792 0 l 0
 1792 -256 l 0
 1536 -256 l 0
1792 -256 m 0
 1792 0 l 0
 2048 0 l 0
 2048 -256 l 0
 1792 -256 l 0
EndSplineSet
EndChar

StartChar: grave
Encoding: 96 96 128
Width: 1024
Flags: HW
LayerCount: 2
Fore
SplineSet
128 0 m 0
 128 256 l 0
 256 256 l 0
 256 0 l 0
 128 0 l 0
256 0 m 0
 256 256 l 0
 384 256 l 0
 384 0 l 0
 256 0 l 0
384 0 m 0
 384 256 l 0
 512 256 l 0
 512 0 l 0
 384 0 l 0
512 0 m 0
 512 256 l 0
 640 256 l 0
 640 0 l 0
 512 0 l 0
640 0 m 0
 640 256 l 0
 768 256 l 0
 768 0 l 0
 640 0 l 0
768 0 m 0
 768 256 l 0
 896 256 l 0
 896 0 l 0
 768 0 l 0
256 256 m 0
 256 512 l 0
 384 512 l 0
 384 256 l 0
 256 256 l 0
256 512 m 0
 256 768 l 0
 384 768 l 0
 384 512 l 0
 256 512 l 0
128 768 m 0
 128 1024 l 0
 256 1024 l 0
 256 768 l 0
 128 768 l 0
256 768 m 0
 256 1024 l 0
 384 1024 l 0
 384 768 l 0
 256 768 l 0
384 768 m 0
 384 1024 l 0
 512 1024 l 0
 512 768 l 0
 384 768 l 0
512 768 m 0
 512 1024 l 0
 640 1024 l 0
 640 768 l 0
 512 768 l 0
256 1024 m 0
 256 1280 l 0
 384 1280 l 0
 384 1024 l 0
 256 1024 l 0
768 1024 m 0
 768 1280 l 0
 896 1280 l 0
 896 1024 l 0
 768 1024 l 0
384 1280 m 0
 384 1536 l 0
 512 1536 l 0
 512 1280 l 0
 384 1280 l 0
512 1280 m 0
 512 1536 l 0
 640 1536 l 0
 640 1280 l 0
 512 1280 l 0
640 1280 m 0
 640 1536 l 0
 768 1536 l 0
 768 1280 l 0
 640 1280 l 0
EndSplineSet
EndChar

StartChar: glyph129
Encoding: 320 65344 129
Width: 2048
VWidth: 0
Flags: HW
LayerCount: 2
Fore
SplineSet
256 0 m 0
 256 256 l 0
 512 256 l 0
 512 0 l 0
 256 0 l 0
512 0 m 0
 512 256 l 0
 768 256 l 0
 768 0 l 0
 512 0 l 0
768 0 m 0
 768 256 l 0
 1024 256 l 0
 1024 0 l 0
 768 0 l 0
1024 0 m 0
 1024 256 l 0
 1280 256 l 0
 1280 0 l 0
 1024 0 l 0
1280 0 m 0
 1280 256 l 0
 1536 256 l 0
 1536 0 l 0
 1280 0 l 0
1536 0 m 0
 1536 256 l 0
 1792 256 l 0
 1792 0 l 0
 1536 0 l 0
512 256 m 0
 512 512 l 0
 768 512 l 0
 768 256 l 0
 512 256 l 0
512 512 m 0
 512 768 l 0
 768 768 l 0
 768 512 l 0
 512 512 l 0
256 768 m 0
 256 1024 l 0
 512 1024 l 0
 512 768 l 0
 256 768 l 0
512 768 m 0
 512 1024 l 0
 768 1024 l 0
 768 768 l 0
 512 768 l 0
768 768 m 0
 768 1024 l 0
 1024 1024 l 0
 1024 768 l 0
 768 768 l 0
1024 768 m 0
 1024 1024 l 0
 1280 1024 l 0
 1280 768 l 0
 1024 768 l 0
512 1024 m 0
 512 1280 l 0
 768 1280 l 0
 768 1024 l 0
 512 1024 l 0
1536 1024 m 0
 1536 1280 l 0
 1792 1280 l 0
 1792 1024 l 0
 1536 1024 l 0
768 1280 m 0
 768 1536 l 0
 1024 1536 l 0
 1024 1280 l 0
 768 1280 l 0
1024 1280 m 0
 1024 1536 l 0
 1280 1536 l 0
 1280 1280 l 0
 1024 1280 l 0
1280 1280 m 0
 1280 1536 l 0
 1536 1536 l 0
 1536 1280 l 0
 1280 1280 l 0
EndSplineSet
EndChar

StartChar: a
Encoding: 97 97 130
Width: 1024
Flags: HW
LayerCount: 2
Fore
SplineSet
256 0 m 0
 256 256 l 0
 384 256 l 0
 384 0 l 0
 256 0 l 0
384 0 m 0
 384 256 l 0
 512 256 l 0
 512 0 l 0
 384 0 l 0
512 0 m 0
 512 256 l 0
 640 256 l 0
 640 0 l 0
 512 0 l 0
640 0 m 0
 640 256 l 0
 768 256 l 0
 768 0 l 0
 640 0 l 0
128 256 m 0
 128 512 l 0
 256 512 l 0
 256 256 l 0
 128 256 l 0
640 256 m 0
 640 512 l 0
 768 512 l 0
 768 256 l 0
 640 256 l 0
256 512 m 0
 256 768 l 0
 384 768 l 0
 384 512 l 0
 256 512 l 0
384 512 m 0
 384 768 l 0
 512 768 l 0
 512 512 l 0
 384 512 l 0
512 512 m 0
 512 768 l 0
 640 768 l 0
 640 512 l 0
 512 512 l 0
640 512 m 0
 640 768 l 0
 768 768 l 0
 768 512 l 0
 640 512 l 0
640 768 m 0
 640 1024 l 0
 768 1024 l 0
 768 768 l 0
 640 768 l 0
256 1024 m 0
 256 1280 l 0
 384 1280 l 0
 384 1024 l 0
 256 1024 l 0
384 1024 m 0
 384 1280 l 0
 512 1280 l 0
 512 1024 l 0
 384 1024 l 0
512 1024 m 0
 512 1280 l 0
 640 1280 l 0
 640 1024 l 0
 512 1024 l 0
EndSplineSet
EndChar

StartChar: glyph131
Encoding: 321 65345 131
Width: 2048
VWidth: 0
Flags: HW
LayerCount: 2
Fore
SplineSet
512 0 m 0
 512 256 l 0
 768 256 l 0
 768 0 l 0
 512 0 l 0
768 0 m 0
 768 256 l 0
 1024 256 l 0
 1024 0 l 0
 768 0 l 0
1024 0 m 0
 1024 256 l 0
 1280 256 l 0
 1280 0 l 0
 1024 0 l 0
1280 0 m 0
 1280 256 l 0
 1536 256 l 0
 1536 0 l 0
 1280 0 l 0
256 256 m 0
 256 512 l 0
 512 512 l 0
 512 256 l 0
 256 256 l 0
1280 256 m 0
 1280 512 l 0
 1536 512 l 0
 1536 256 l 0
 1280 256 l 0
512 512 m 0
 512 768 l 0
 768 768 l 0
 768 512 l 0
 512 512 l 0
768 512 m 0
 768 768 l 0
 1024 768 l 0
 1024 512 l 0
 768 512 l 0
1024 512 m 0
 1024 768 l 0
 1280 768 l 0
 1280 512 l 0
 1024 512 l 0
1280 512 m 0
 1280 768 l 0
 1536 768 l 0
 1536 512 l 0
 1280 512 l 0
1280 768 m 0
 1280 1024 l 0
 1536 1024 l 0
 1536 768 l 0
 1280 768 l 0
512 1024 m 0
 512 1280 l 0
 768 1280 l 0
 768 1024 l 0
 512 1024 l 0
768 1024 m 0
 768 1280 l 0
 1024 1280 l 0
 1024 1024 l 0
 768 1024 l 0
1024 1024 m 0
 1024 1280 l 0
 1280 1280 l 0
 1280 1024 l 0
 1024 1024 l 0
EndSplineSet
EndChar

StartChar: b
Encoding: 98 98 132
Width: 1024
Flags: HW
LayerCount: 2
Fore
SplineSet
256 0 m 0
 256 256 l 0
 384 256 l 0
 384 0 l 0
 256 0 l 0
384 0 m 0
 384 256 l 0
 512 256 l 0
 512 0 l 0
 384 0 l 0
512 0 m 0
 512 256 l 0
 640 256 l 0
 640 0 l 0
 512 0 l 0
640 0 m 0
 640 256 l 0
 768 256 l 0
 768 0 l 0
 640 0 l 0
256 256 m 0
 256 512 l 0
 384 512 l 0
 384 256 l 0
 256 256 l 0
768 256 m 0
 768 512 l 0
 896 512 l 0
 896 256 l 0
 768 256 l 0
256 512 m 0
 256 768 l 0
 384 768 l 0
 384 512 l 0
 256 512 l 0
768 512 m 0
 768 768 l 0
 896 768 l 0
 896 512 l 0
 768 512 l 0
256 768 m 0
 256 1024 l 0
 384 1024 l 0
 384 768 l 0
 256 768 l 0
384 768 m 0
 384 1024 l 0
 512 1024 l 0
 512 768 l 0
 384 768 l 0
512 768 m 0
 512 1024 l 0
 640 1024 l 0
 640 768 l 0
 512 768 l 0
640 768 m 0
 640 1024 l 0
 768 1024 l 0
 768 768 l 0
 640 768 l 0
256 1024 m 0
 256 1280 l 0
 384 1280 l 0
 384 1024 l 0
 256 1024 l 0
256 1280 m 0
 256 1536 l 0
 384 1536 l 0
 384 1280 l 0
 256 1280 l 0
EndSplineSet
EndChar

StartChar: glyph133
Encoding: 322 65346 133
Width: 2048
VWidth: 0
Flags: HW
LayerCount: 2
Fore
SplineSet
512 0 m 0
 512 256 l 0
 768 256 l 0
 768 0 l 0
 512 0 l 0
768 0 m 0
 768 256 l 0
 1024 256 l 0
 1024 0 l 0
 768 0 l 0
1024 0 m 0
 1024 256 l 0
 1280 256 l 0
 1280 0 l 0
 1024 0 l 0
1280 0 m 0
 1280 256 l 0
 1536 256 l 0
 1536 0 l 0
 1280 0 l 0
512 256 m 0
 512 512 l 0
 768 512 l 0
 768 256 l 0
 512 256 l 0
1536 256 m 0
 1536 512 l 0
 1792 512 l 0
 1792 256 l 0
 1536 256 l 0
512 512 m 0
 512 768 l 0
 768 768 l 0
 768 512 l 0
 512 512 l 0
1536 512 m 0
 1536 768 l 0
 1792 768 l 0
 1792 512 l 0
 1536 512 l 0
512 768 m 0
 512 1024 l 0
 768 1024 l 0
 768 768 l 0
 512 768 l 0
768 768 m 0
 768 1024 l 0
 1024 1024 l 0
 1024 768 l 0
 768 768 l 0
1024 768 m 0
 1024 1024 l 0
 1280 1024 l 0
 1280 768 l 0
 1024 768 l 0
1280 768 m 0
 1280 1024 l 0
 1536 1024 l 0
 1536 768 l 0
 1280 768 l 0
512 1024 m 0
 512 1280 l 0
 768 1280 l 0
 768 1024 l 0
 512 1024 l 0
512 1280 m 0
 512 1536 l 0
 768 1536 l 0
 768 1280 l 0
 512 1280 l 0
EndSplineSet
EndChar

StartChar: c
Encoding: 99 99 134
Width: 1024
Flags: HW
LayerCount: 2
Fore
SplineSet
384 0 m 0
 384 256 l 0
 512 256 l 0
 512 0 l 0
 384 0 l 0
512 0 m 0
 512 256 l 0
 640 256 l 0
 640 0 l 0
 512 0 l 0
640 0 m 0
 640 256 l 0
 768 256 l 0
 768 0 l 0
 640 0 l 0
256 256 m 0
 256 512 l 0
 384 512 l 0
 384 256 l 0
 256 256 l 0
256 512 m 0
 256 768 l 0
 384 768 l 0
 384 512 l 0
 256 512 l 0
256 768 m 0
 256 1024 l 0
 384 1024 l 0
 384 768 l 0
 256 768 l 0
384 1024 m 0
 384 1280 l 0
 512 1280 l 0
 512 1024 l 0
 384 1024 l 0
512 1024 m 0
 512 1280 l 0
 640 1280 l 0
 640 1024 l 0
 512 1024 l 0
640 1024 m 0
 640 1280 l 0
 768 1280 l 0
 768 1024 l 0
 640 1024 l 0
EndSplineSet
EndChar

StartChar: glyph135
Encoding: 323 65347 135
Width: 2048
VWidth: 0
Flags: HW
LayerCount: 2
Fore
SplineSet
768 0 m 0
 768 256 l 0
 1024 256 l 0
 1024 0 l 0
 768 0 l 0
1024 0 m 0
 1024 256 l 0
 1280 256 l 0
 1280 0 l 0
 1024 0 l 0
1280 0 m 0
 1280 256 l 0
 1536 256 l 0
 1536 0 l 0
 1280 0 l 0
512 256 m 0
 512 512 l 0
 768 512 l 0
 768 256 l 0
 512 256 l 0
512 512 m 0
 512 768 l 0
 768 768 l 0
 768 512 l 0
 512 512 l 0
512 768 m 0
 512 1024 l 0
 768 1024 l 0
 768 768 l 0
 512 768 l 0
768 1024 m 0
 768 1280 l 0
 1024 1280 l 0
 1024 1024 l 0
 768 1024 l 0
1024 1024 m 0
 1024 1280 l 0
 1280 1280 l 0
 1280 1024 l 0
 1024 1024 l 0
1280 1024 m 0
 1280 1280 l 0
 1536 1280 l 0
 1536 1024 l 0
 1280 1024 l 0
EndSplineSet
EndChar

StartChar: d
Encoding: 100 100 136
Width: 1024
Flags: HW
LayerCount: 2
Fore
SplineSet
256 0 m 0
 256 256 l 0
 384 256 l 0
 384 0 l 0
 256 0 l 0
384 0 m 0
 384 256 l 0
 512 256 l 0
 512 0 l 0
 384 0 l 0
512 0 m 0
 512 256 l 0
 640 256 l 0
 640 0 l 0
 512 0 l 0
640 0 m 0
 640 256 l 0
 768 256 l 0
 768 0 l 0
 640 0 l 0
128 256 m 0
 128 512 l 0
 256 512 l 0
 256 256 l 0
 128 256 l 0
640 256 m 0
 640 512 l 0
 768 512 l 0
 768 256 l 0
 640 256 l 0
128 512 m 0
 128 768 l 0
 256 768 l 0
 256 512 l 0
 128 512 l 0
640 512 m 0
 640 768 l 0
 768 768 l 0
 768 512 l 0
 640 512 l 0
256 768 m 0
 256 1024 l 0
 384 1024 l 0
 384 768 l 0
 256 768 l 0
384 768 m 0
 384 1024 l 0
 512 1024 l 0
 512 768 l 0
 384 768 l 0
512 768 m 0
 512 1024 l 0
 640 1024 l 0
 640 768 l 0
 512 768 l 0
640 768 m 0
 640 1024 l 0
 768 1024 l 0
 768 768 l 0
 640 768 l 0
640 1024 m 0
 640 1280 l 0
 768 1280 l 0
 768 1024 l 0
 640 1024 l 0
640 1280 m 0
 640 1536 l 0
 768 1536 l 0
 768 1280 l 0
 640 1280 l 0
EndSplineSet
EndChar

StartChar: glyph137
Encoding: 324 65348 137
Width: 2048
VWidth: 0
Flags: HW
LayerCount: 2
Fore
SplineSet
512 0 m 0
 512 256 l 0
 768 256 l 0
 768 0 l 0
 512 0 l 0
768 0 m 0
 768 256 l 0
 1024 256 l 0
 1024 0 l 0
 768 0 l 0
1024 0 m 0
 1024 256 l 0
 1280 256 l 0
 1280 0 l 0
 1024 0 l 0
1280 0 m 0
 1280 256 l 0
 1536 256 l 0
 1536 0 l 0
 1280 0 l 0
256 256 m 0
 256 512 l 0
 512 512 l 0
 512 256 l 0
 256 256 l 0
1280 256 m 0
 1280 512 l 0
 1536 512 l 0
 1536 256 l 0
 1280 256 l 0
256 512 m 0
 256 768 l 0
 512 768 l 0
 512 512 l 0
 256 512 l 0
1280 512 m 0
 1280 768 l 0
 1536 768 l 0
 1536 512 l 0
 1280 512 l 0
512 768 m 0
 512 1024 l 0
 768 1024 l 0
 768 768 l 0
 512 768 l 0
768 768 m 0
 768 1024 l 0
 1024 1024 l 0
 1024 768 l 0
 768 768 l 0
1024 768 m 0
 1024 1024 l 0
 1280 1024 l 0
 1280 768 l 0
 1024 768 l 0
1280 768 m 0
 1280 1024 l 0
 1536 1024 l 0
 1536 768 l 0
 1280 768 l 0
1280 1024 m 0
 1280 1280 l 0
 1536 1280 l 0
 1536 1024 l 0
 1280 1024 l 0
1280 1280 m 0
 1280 1536 l 0
 1536 1536 l 0
 1536 1280 l 0
 1280 1280 l 0
EndSplineSet
EndChar

StartChar: e
Encoding: 101 101 138
Width: 1024
Flags: HW
LayerCount: 2
Fore
SplineSet
256 0 m 0
 256 256 l 0
 384 256 l 0
 384 0 l 0
 256 0 l 0
384 0 m 0
 384 256 l 0
 512 256 l 0
 512 0 l 0
 384 0 l 0
512 0 m 0
 512 256 l 0
 640 256 l 0
 640 0 l 0
 512 0 l 0
640 0 m 0
 640 256 l 0
 768 256 l 0
 768 0 l 0
 640 0 l 0
128 256 m 0
 128 512 l 0
 256 512 l 0
 256 256 l 0
 128 256 l 0
128 512 m 0
 128 768 l 0
 256 768 l 0
 256 512 l 0
 128 512 l 0
256 512 m 0
 256 768 l 0
 384 768 l 0
 384 512 l 0
 256 512 l 0
384 512 m 0
 384 768 l 0
 512 768 l 0
 512 512 l 0
 384 512 l 0
512 512 m 0
 512 768 l 0
 640 768 l 0
 640 512 l 0
 512 512 l 0
128 768 m 0
 128 1024 l 0
 256 1024 l 0
 256 768 l 0
 128 768 l 0
640 768 m 0
 640 1024 l 0
 768 1024 l 0
 768 768 l 0
 640 768 l 0
256 1024 m 0
 256 1280 l 0
 384 1280 l 0
 384 1024 l 0
 256 1024 l 0
384 1024 m 0
 384 1280 l 0
 512 1280 l 0
 512 1024 l 0
 384 1024 l 0
512 1024 m 0
 512 1280 l 0
 640 1280 l 0
 640 1024 l 0
 512 1024 l 0
EndSplineSet
EndChar

StartChar: glyph139
Encoding: 325 65349 139
Width: 2048
VWidth: 0
Flags: HW
LayerCount: 2
Fore
SplineSet
512 0 m 0
 512 256 l 0
 768 256 l 0
 768 0 l 0
 512 0 l 0
768 0 m 0
 768 256 l 0
 1024 256 l 0
 1024 0 l 0
 768 0 l 0
1024 0 m 0
 1024 256 l 0
 1280 256 l 0
 1280 0 l 0
 1024 0 l 0
1280 0 m 0
 1280 256 l 0
 1536 256 l 0
 1536 0 l 0
 1280 0 l 0
256 256 m 0
 256 512 l 0
 512 512 l 0
 512 256 l 0
 256 256 l 0
256 512 m 0
 256 768 l 0
 512 768 l 0
 512 512 l 0
 256 512 l 0
512 512 m 0
 512 768 l 0
 768 768 l 0
 768 512 l 0
 512 512 l 0
768 512 m 0
 768 768 l 0
 1024 768 l 0
 1024 512 l 0
 768 512 l 0
1024 512 m 0
 1024 768 l 0
 1280 768 l 0
 1280 512 l 0
 1024 512 l 0
256 768 m 0
 256 1024 l 0
 512 1024 l 0
 512 768 l 0
 256 768 l 0
1280 768 m 0
 1280 1024 l 0
 1536 1024 l 0
 1536 768 l 0
 1280 768 l 0
512 1024 m 0
 512 1280 l 0
 768 1280 l 0
 768 1024 l 0
 512 1024 l 0
768 1024 m 0
 768 1280 l 0
 1024 1280 l 0
 1024 1024 l 0
 768 1024 l 0
1024 1024 m 0
 1024 1280 l 0
 1280 1280 l 0
 1280 1024 l 0
 1024 1024 l 0
EndSplineSet
EndChar

StartChar: f
Encoding: 102 102 140
Width: 1024
Flags: HW
LayerCount: 2
Fore
SplineSet
384 0 m 0
 384 256 l 0
 512 256 l 0
 512 0 l 0
 384 0 l 0
384 256 m 0
 384 512 l 0
 512 512 l 0
 512 256 l 0
 384 256 l 0
384 512 m 0
 384 768 l 0
 512 768 l 0
 512 512 l 0
 384 512 l 0
384 768 m 0
 384 1024 l 0
 512 1024 l 0
 512 768 l 0
 384 768 l 0
512 768 m 0
 512 1024 l 0
 640 1024 l 0
 640 768 l 0
 512 768 l 0
384 1024 m 0
 384 1280 l 0
 512 1280 l 0
 512 1024 l 0
 384 1024 l 0
512 1280 m 0
 512 1536 l 0
 640 1536 l 0
 640 1280 l 0
 512 1280 l 0
640 1280 m 0
 640 1536 l 0
 768 1536 l 0
 768 1280 l 0
 640 1280 l 0
EndSplineSet
EndChar

StartChar: glyph141
Encoding: 326 65350 141
Width: 2048
VWidth: 0
Flags: HW
LayerCount: 2
Fore
SplineSet
768 0 m 0
 768 256 l 0
 1024 256 l 0
 1024 0 l 0
 768 0 l 0
768 256 m 0
 768 512 l 0
 1024 512 l 0
 1024 256 l 0
 768 256 l 0
768 512 m 0
 768 768 l 0
 1024 768 l 0
 1024 512 l 0
 768 512 l 0
768 768 m 0
 768 1024 l 0
 1024 1024 l 0
 1024 768 l 0
 768 768 l 0
1024 768 m 0
 1024 1024 l 0
 1280 1024 l 0
 1280 768 l 0
 1024 768 l 0
768 1024 m 0
 768 1280 l 0
 1024 1280 l 0
 1024 1024 l 0
 768 1024 l 0
1024 1280 m 0
 1024 1536 l 0
 1280 1536 l 0
 1280 1280 l 0
 1024 1280 l 0
1280 1280 m 0
 1280 1536 l 0
 1536 1536 l 0
 1536 1280 l 0
 1280 1280 l 0
EndSplineSet
EndChar

StartChar: g
Encoding: 103 103 142
Width: 1024
Flags: HW
LayerCount: 2
Fore
SplineSet
256 -256 m 0
 256 0 l 0
 384 0 l 0
 384 -256 l 0
 256 -256 l 0
384 -256 m 0
 384 0 l 0
 512 0 l 0
 512 -256 l 0
 384 -256 l 0
512 -256 m 0
 512 0 l 0
 640 0 l 0
 640 -256 l 0
 512 -256 l 0
640 0 m 0
 640 256 l 0
 768 256 l 0
 768 0 l 0
 640 0 l 0
256 256 m 0
 256 512 l 0
 384 512 l 0
 384 256 l 0
 256 256 l 0
384 256 m 0
 384 512 l 0
 512 512 l 0
 512 256 l 0
 384 256 l 0
512 256 m 0
 512 512 l 0
 640 512 l 0
 640 256 l 0
 512 256 l 0
640 256 m 0
 640 512 l 0
 768 512 l 0
 768 256 l 0
 640 256 l 0
128 512 m 0
 128 768 l 0
 256 768 l 0
 256 512 l 0
 128 512 l 0
640 512 m 0
 640 768 l 0
 768 768 l 0
 768 512 l 0
 640 512 l 0
128 768 m 0
 128 1024 l 0
 256 1024 l 0
 256 768 l 0
 128 768 l 0
640 768 m 0
 640 1024 l 0
 768 1024 l 0
 768 768 l 0
 640 768 l 0
256 1024 m 0
 256 1280 l 0
 384 1280 l 0
 384 1024 l 0
 256 1024 l 0
384 1024 m 0
 384 1280 l 0
 512 1280 l 0
 512 1024 l 0
 384 1024 l 0
512 1024 m 0
 512 1280 l 0
 640 1280 l 0
 640 1024 l 0
 512 1024 l 0
640 1024 m 0
 640 1280 l 0
 768 1280 l 0
 768 1024 l 0
 640 1024 l 0
EndSplineSet
EndChar

StartChar: glyph143
Encoding: 327 65351 143
Width: 2048
VWidth: 0
Flags: HW
LayerCount: 2
Fore
SplineSet
512 -256 m 0
 512 0 l 0
 768 0 l 0
 768 -256 l 0
 512 -256 l 0
768 -256 m 0
 768 0 l 0
 1024 0 l 0
 1024 -256 l 0
 768 -256 l 0
1024 -256 m 0
 1024 0 l 0
 1280 0 l 0
 1280 -256 l 0
 1024 -256 l 0
1280 0 m 0
 1280 256 l 0
 1536 256 l 0
 1536 0 l 0
 1280 0 l 0
512 256 m 0
 512 512 l 0
 768 512 l 0
 768 256 l 0
 512 256 l 0
768 256 m 0
 768 512 l 0
 1024 512 l 0
 1024 256 l 0
 768 256 l 0
1024 256 m 0
 1024 512 l 0
 1280 512 l 0
 1280 256 l 0
 1024 256 l 0
1280 256 m 0
 1280 512 l 0
 1536 512 l 0
 1536 256 l 0
 1280 256 l 0
256 512 m 0
 256 768 l 0
 512 768 l 0
 512 512 l 0
 256 512 l 0
1280 512 m 0
 1280 768 l 0
 1536 768 l 0
 1536 512 l 0
 1280 512 l 0
256 768 m 0
 256 1024 l 0
 512 1024 l 0
 512 768 l 0
 256 768 l 0
1280 768 m 0
 1280 1024 l 0
 1536 1024 l 0
 1536 768 l 0
 1280 768 l 0
512 1024 m 0
 512 1280 l 0
 768 1280 l 0
 768 1024 l 0
 512 1024 l 0
768 1024 m 0
 768 1280 l 0
 1024 1280 l 0
 1024 1024 l 0
 768 1024 l 0
1024 1024 m 0
 1024 1280 l 0
 1280 1280 l 0
 1280 1024 l 0
 1024 1024 l 0
1280 1024 m 0
 1280 1280 l 0
 1536 1280 l 0
 1536 1024 l 0
 1280 1024 l 0
EndSplineSet
EndChar

StartChar: h
Encoding: 104 104 144
Width: 1024
Flags: HW
LayerCount: 2
Fore
SplineSet
128 0 m 0
 128 256 l 0
 256 256 l 0
 256 0 l 0
 128 0 l 0
640 0 m 0
 640 256 l 0
 768 256 l 0
 768 0 l 0
 640 0 l 0
128 256 m 0
 128 512 l 0
 256 512 l 0
 256 256 l 0
 128 256 l 0
640 256 m 0
 640 512 l 0
 768 512 l 0
 768 256 l 0
 640 256 l 0
128 512 m 0
 128 768 l 0
 256 768 l 0
 256 512 l 0
 128 512 l 0
640 512 m 0
 640 768 l 0
 768 768 l 0
 768 512 l 0
 640 512 l 0
128 768 m 0
 128 1024 l 0
 256 1024 l 0
 256 768 l 0
 128 768 l 0
256 768 m 0
 256 1024 l 0
 384 1024 l 0
 384 768 l 0
 256 768 l 0
384 768 m 0
 384 1024 l 0
 512 1024 l 0
 512 768 l 0
 384 768 l 0
512 768 m 0
 512 1024 l 0
 640 1024 l 0
 640 768 l 0
 512 768 l 0
128 1024 m 0
 128 1280 l 0
 256 1280 l 0
 256 1024 l 0
 128 1024 l 0
128 1280 m 0
 128 1536 l 0
 256 1536 l 0
 256 1280 l 0
 128 1280 l 0
EndSplineSet
EndChar

StartChar: glyph145
Encoding: 328 65352 145
Width: 2048
VWidth: 0
Flags: HW
LayerCount: 2
Fore
SplineSet
256 0 m 0
 256 256 l 0
 512 256 l 0
 512 0 l 0
 256 0 l 0
1280 0 m 0
 1280 256 l 0
 1536 256 l 0
 1536 0 l 0
 1280 0 l 0
256 256 m 0
 256 512 l 0
 512 512 l 0
 512 256 l 0
 256 256 l 0
1280 256 m 0
 1280 512 l 0
 1536 512 l 0
 1536 256 l 0
 1280 256 l 0
256 512 m 0
 256 768 l 0
 512 768 l 0
 512 512 l 0
 256 512 l 0
1280 512 m 0
 1280 768 l 0
 1536 768 l 0
 1536 512 l 0
 1280 512 l 0
256 768 m 0
 256 1024 l 0
 512 1024 l 0
 512 768 l 0
 256 768 l 0
512 768 m 0
 512 1024 l 0
 768 1024 l 0
 768 768 l 0
 512 768 l 0
768 768 m 0
 768 1024 l 0
 1024 1024 l 0
 1024 768 l 0
 768 768 l 0
1024 768 m 0
 1024 1024 l 0
 1280 1024 l 0
 1280 768 l 0
 1024 768 l 0
256 1024 m 0
 256 1280 l 0
 512 1280 l 0
 512 1024 l 0
 256 1024 l 0
256 1280 m 0
 256 1536 l 0
 512 1536 l 0
 512 1280 l 0
 256 1280 l 0
EndSplineSet
EndChar

StartChar: i
Encoding: 105 105 146
Width: 1024
Flags: HW
LayerCount: 2
Fore
SplineSet
256 0 m 0
 256 256 l 0
 384 256 l 0
 384 0 l 0
 256 0 l 0
384 0 m 0
 384 256 l 0
 512 256 l 0
 512 0 l 0
 384 0 l 0
512 0 m 0
 512 256 l 0
 640 256 l 0
 640 0 l 0
 512 0 l 0
384 256 m 0
 384 512 l 0
 512 512 l 0
 512 256 l 0
 384 256 l 0
384 512 m 0
 384 768 l 0
 512 768 l 0
 512 512 l 0
 384 512 l 0
256 768 m 0
 256 1024 l 0
 384 1024 l 0
 384 768 l 0
 256 768 l 0
384 768 m 0
 384 1024 l 0
 512 1024 l 0
 512 768 l 0
 384 768 l 0
384 1280 m 0
 384 1536 l 0
 512 1536 l 0
 512 1280 l 0
 384 1280 l 0
EndSplineSet
EndChar

StartChar: glyph147
Encoding: 329 65353 147
Width: 2048
VWidth: 0
Flags: HW
LayerCount: 2
Fore
SplineSet
512 0 m 0
 512 256 l 0
 768 256 l 0
 768 0 l 0
 512 0 l 0
768 0 m 0
 768 256 l 0
 1024 256 l 0
 1024 0 l 0
 768 0 l 0
1024 0 m 0
 1024 256 l 0
 1280 256 l 0
 1280 0 l 0
 1024 0 l 0
768 256 m 0
 768 512 l 0
 1024 512 l 0
 1024 256 l 0
 768 256 l 0
768 512 m 0
 768 768 l 0
 1024 768 l 0
 1024 512 l 0
 768 512 l 0
512 768 m 0
 512 1024 l 0
 768 1024 l 0
 768 768 l 0
 512 768 l 0
768 768 m 0
 768 1024 l 0
 1024 1024 l 0
 1024 768 l 0
 768 768 l 0
768 1280 m 0
 768 1536 l 0
 1024 1536 l 0
 1024 1280 l 0
 768 1280 l 0
EndSplineSet
EndChar

StartChar: j
Encoding: 106 106 148
Width: 1024
Flags: HW
LayerCount: 2
Fore
SplineSet
384 -256 m 0
 384 0 l 0
 512 0 l 0
 512 -256 l 0
 384 -256 l 0
512 -256 m 0
 512 0 l 0
 640 0 l 0
 640 -256 l 0
 512 -256 l 0
256 0 m 0
 256 256 l 0
 384 256 l 0
 384 0 l 0
 256 0 l 0
640 0 m 0
 640 256 l 0
 768 256 l 0
 768 0 l 0
 640 0 l 0
640 256 m 0
 640 512 l 0
 768 512 l 0
 768 256 l 0
 640 256 l 0
640 512 m 0
 640 768 l 0
 768 768 l 0
 768 512 l 0
 640 512 l 0
640 768 m 0
 640 1024 l 0
 768 1024 l 0
 768 768 l 0
 640 768 l 0
640 1280 m 0
 640 1536 l 0
 768 1536 l 0
 768 1280 l 0
 640 1280 l 0
EndSplineSet
EndChar

StartChar: glyph149
Encoding: 330 65354 149
Width: 2048
VWidth: 0
Flags: HW
LayerCount: 2
Fore
SplineSet
768 -256 m 0
 768 0 l 0
 1024 0 l 0
 1024 -256 l 0
 768 -256 l 0
1024 -256 m 0
 1024 0 l 0
 1280 0 l 0
 1280 -256 l 0
 1024 -256 l 0
512 0 m 0
 512 256 l 0
 768 256 l 0
 768 0 l 0
 512 0 l 0
1280 0 m 0
 1280 256 l 0
 1536 256 l 0
 1536 0 l 0
 1280 0 l 0
1280 256 m 0
 1280 512 l 0
 1536 512 l 0
 1536 256 l 0
 1280 256 l 0
1280 512 m 0
 1280 768 l 0
 1536 768 l 0
 1536 512 l 0
 1280 512 l 0
1280 768 m 0
 1280 1024 l 0
 1536 1024 l 0
 1536 768 l 0
 1280 768 l 0
1280 1280 m 0
 1280 1536 l 0
 1536 1536 l 0
 1536 1280 l 0
 1280 1280 l 0
EndSplineSet
EndChar

StartChar: k
Encoding: 107 107 150
Width: 1024
Flags: HW
LayerCount: 2
Fore
SplineSet
256 0 m 0
 256 256 l 0
 384 256 l 0
 384 0 l 0
 256 0 l 0
640 0 m 0
 640 256 l 0
 768 256 l 0
 768 0 l 0
 640 0 l 0
256 256 m 0
 256 512 l 0
 384 512 l 0
 384 256 l 0
 256 256 l 0
512 256 m 0
 512 512 l 0
 640 512 l 0
 640 256 l 0
 512 256 l 0
256 512 m 0
 256 768 l 0
 384 768 l 0
 384 512 l 0
 256 512 l 0
384 512 m 0
 384 768 l 0
 512 768 l 0
 512 512 l 0
 384 512 l 0
256 768 m 0
 256 1024 l 0
 384 1024 l 0
 384 768 l 0
 256 768 l 0
384 768 m 0
 384 1024 l 0
 512 1024 l 0
 512 768 l 0
 384 768 l 0
256 1024 m 0
 256 1280 l 0
 384 1280 l 0
 384 1024 l 0
 256 1024 l 0
512 1024 m 0
 512 1280 l 0
 640 1280 l 0
 640 1024 l 0
 512 1024 l 0
256 1280 m 0
 256 1536 l 0
 384 1536 l 0
 384 1280 l 0
 256 1280 l 0
EndSplineSet
EndChar

StartChar: glyph151
Encoding: 331 65355 151
Width: 2048
VWidth: 0
Flags: HW
LayerCount: 2
Fore
SplineSet
512 0 m 0
 512 256 l 0
 768 256 l 0
 768 0 l 0
 512 0 l 0
1280 0 m 0
 1280 256 l 0
 1536 256 l 0
 1536 0 l 0
 1280 0 l 0
512 256 m 0
 512 512 l 0
 768 512 l 0
 768 256 l 0
 512 256 l 0
1024 256 m 0
 1024 512 l 0
 1280 512 l 0
 1280 256 l 0
 1024 256 l 0
512 512 m 0
 512 768 l 0
 768 768 l 0
 768 512 l 0
 512 512 l 0
768 512 m 0
 768 768 l 0
 1024 768 l 0
 1024 512 l 0
 768 512 l 0
512 768 m 0
 512 1024 l 0
 768 1024 l 0
 768 768 l 0
 512 768 l 0
768 768 m 0
 768 1024 l 0
 1024 1024 l 0
 1024 768 l 0
 768 768 l 0
512 1024 m 0
 512 1280 l 0
 768 1280 l 0
 768 1024 l 0
 512 1024 l 0
1024 1024 m 0
 1024 1280 l 0
 1280 1280 l 0
 1280 1024 l 0
 1024 1024 l 0
512 1280 m 0
 512 1536 l 0
 768 1536 l 0
 768 1280 l 0
 512 1280 l 0
EndSplineSet
EndChar

StartChar: l
Encoding: 108 108 152
Width: 1024
Flags: HW
LayerCount: 2
Fore
SplineSet
512 0 m 0
 512 256 l 0
 640 256 l 0
 640 0 l 0
 512 0 l 0
640 0 m 0
 640 256 l 0
 768 256 l 0
 768 0 l 0
 640 0 l 0
384 256 m 0
 384 512 l 0
 512 512 l 0
 512 256 l 0
 384 256 l 0
384 512 m 0
 384 768 l 0
 512 768 l 0
 512 512 l 0
 384 512 l 0
384 768 m 0
 384 1024 l 0
 512 1024 l 0
 512 768 l 0
 384 768 l 0
384 1024 m 0
 384 1280 l 0
 512 1280 l 0
 512 1024 l 0
 384 1024 l 0
384 1280 m 0
 384 1536 l 0
 512 1536 l 0
 512 1280 l 0
 384 1280 l 0
EndSplineSet
EndChar

StartChar: glyph153
Encoding: 332 65356 153
Width: 2048
VWidth: 0
Flags: HW
LayerCount: 2
Fore
SplineSet
1024 0 m 0
 1024 256 l 0
 1280 256 l 0
 1280 0 l 0
 1024 0 l 0
1280 0 m 0
 1280 256 l 0
 1536 256 l 0
 1536 0 l 0
 1280 0 l 0
768 256 m 0
 768 512 l 0
 1024 512 l 0
 1024 256 l 0
 768 256 l 0
768 512 m 0
 768 768 l 0
 1024 768 l 0
 1024 512 l 0
 768 512 l 0
768 768 m 0
 768 1024 l 0
 1024 1024 l 0
 1024 768 l 0
 768 768 l 0
768 1024 m 0
 768 1280 l 0
 1024 1280 l 0
 1024 1024 l 0
 768 1024 l 0
768 1280 m 0
 768 1536 l 0
 1024 1536 l 0
 1024 1280 l 0
 768 1280 l 0
EndSplineSet
EndChar

StartChar: m
Encoding: 109 109 154
Width: 1024
Flags: HW
LayerCount: 2
Fore
SplineSet
128 0 m 0
 128 256 l 0
 256 256 l 0
 256 0 l 0
 128 0 l 0
384 0 m 0
 384 256 l 0
 512 256 l 0
 512 0 l 0
 384 0 l 0
640 0 m 0
 640 256 l 0
 768 256 l 0
 768 0 l 0
 640 0 l 0
128 256 m 0
 128 512 l 0
 256 512 l 0
 256 256 l 0
 128 256 l 0
384 256 m 0
 384 512 l 0
 512 512 l 0
 512 256 l 0
 384 256 l 0
640 256 m 0
 640 512 l 0
 768 512 l 0
 768 256 l 0
 640 256 l 0
128 512 m 0
 128 768 l 0
 256 768 l 0
 256 512 l 0
 128 512 l 0
384 512 m 0
 384 768 l 0
 512 768 l 0
 512 512 l 0
 384 512 l 0
640 512 m 0
 640 768 l 0
 768 768 l 0
 768 512 l 0
 640 512 l 0
128 768 m 0
 128 1024 l 0
 256 1024 l 0
 256 768 l 0
 128 768 l 0
384 768 m 0
 384 1024 l 0
 512 1024 l 0
 512 768 l 0
 384 768 l 0
640 768 m 0
 640 1024 l 0
 768 1024 l 0
 768 768 l 0
 640 768 l 0
128 1024 m 0
 128 1280 l 0
 256 1280 l 0
 256 1024 l 0
 128 1024 l 0
256 1024 m 0
 256 1280 l 0
 384 1280 l 0
 384 1024 l 0
 256 1024 l 0
512 1024 m 0
 512 1280 l 0
 640 1280 l 0
 640 1024 l 0
 512 1024 l 0
EndSplineSet
EndChar

StartChar: glyph155
Encoding: 333 65357 155
Width: 2048
VWidth: 0
Flags: HW
LayerCount: 2
Fore
SplineSet
256 0 m 0
 256 256 l 0
 512 256 l 0
 512 0 l 0
 256 0 l 0
768 0 m 0
 768 256 l 0
 1024 256 l 0
 1024 0 l 0
 768 0 l 0
1280 0 m 0
 1280 256 l 0
 1536 256 l 0
 1536 0 l 0
 1280 0 l 0
256 256 m 0
 256 512 l 0
 512 512 l 0
 512 256 l 0
 256 256 l 0
768 256 m 0
 768 512 l 0
 1024 512 l 0
 1024 256 l 0
 768 256 l 0
1280 256 m 0
 1280 512 l 0
 1536 512 l 0
 1536 256 l 0
 1280 256 l 0
256 512 m 0
 256 768 l 0
 512 768 l 0
 512 512 l 0
 256 512 l 0
768 512 m 0
 768 768 l 0
 1024 768 l 0
 1024 512 l 0
 768 512 l 0
1280 512 m 0
 1280 768 l 0
 1536 768 l 0
 1536 512 l 0
 1280 512 l 0
256 768 m 0
 256 1024 l 0
 512 1024 l 0
 512 768 l 0
 256 768 l 0
768 768 m 0
 768 1024 l 0
 1024 1024 l 0
 1024 768 l 0
 768 768 l 0
1280 768 m 0
 1280 1024 l 0
 1536 1024 l 0
 1536 768 l 0
 1280 768 l 0
256 1024 m 0
 256 1280 l 0
 512 1280 l 0
 512 1024 l 0
 256 1024 l 0
512 1024 m 0
 512 1280 l 0
 768 1280 l 0
 768 1024 l 0
 512 1024 l 0
1024 1024 m 0
 1024 1280 l 0
 1280 1280 l 0
 1280 1024 l 0
 1024 1024 l 0
EndSplineSet
EndChar

StartChar: n
Encoding: 110 110 156
Width: 1024
Flags: HW
LayerCount: 2
Fore
SplineSet
128 0 m 0
 128 256 l 0
 256 256 l 0
 256 0 l 0
 128 0 l 0
640 0 m 0
 640 256 l 0
 768 256 l 0
 768 0 l 0
 640 0 l 0
128 256 m 0
 128 512 l 0
 256 512 l 0
 256 256 l 0
 128 256 l 0
640 256 m 0
 640 512 l 0
 768 512 l 0
 768 256 l 0
 640 256 l 0
128 512 m 0
 128 768 l 0
 256 768 l 0
 256 512 l 0
 128 512 l 0
640 512 m 0
 640 768 l 0
 768 768 l 0
 768 512 l 0
 640 512 l 0
128 768 m 0
 128 1024 l 0
 256 1024 l 0
 256 768 l 0
 128 768 l 0
640 768 m 0
 640 1024 l 0
 768 1024 l 0
 768 768 l 0
 640 768 l 0
128 1024 m 0
 128 1280 l 0
 256 1280 l 0
 256 1024 l 0
 128 1024 l 0
256 1024 m 0
 256 1280 l 0
 384 1280 l 0
 384 1024 l 0
 256 1024 l 0
384 1024 m 0
 384 1280 l 0
 512 1280 l 0
 512 1024 l 0
 384 1024 l 0
512 1024 m 0
 512 1280 l 0
 640 1280 l 0
 640 1024 l 0
 512 1024 l 0
EndSplineSet
EndChar

StartChar: glyph157
Encoding: 334 65358 157
Width: 2048
VWidth: 0
Flags: HW
LayerCount: 2
Fore
SplineSet
256 0 m 0
 256 256 l 0
 512 256 l 0
 512 0 l 0
 256 0 l 0
1280 0 m 0
 1280 256 l 0
 1536 256 l 0
 1536 0 l 0
 1280 0 l 0
256 256 m 0
 256 512 l 0
 512 512 l 0
 512 256 l 0
 256 256 l 0
1280 256 m 0
 1280 512 l 0
 1536 512 l 0
 1536 256 l 0
 1280 256 l 0
256 512 m 0
 256 768 l 0
 512 768 l 0
 512 512 l 0
 256 512 l 0
1280 512 m 0
 1280 768 l 0
 1536 768 l 0
 1536 512 l 0
 1280 512 l 0
256 768 m 0
 256 1024 l 0
 512 1024 l 0
 512 768 l 0
 256 768 l 0
1280 768 m 0
 1280 1024 l 0
 1536 1024 l 0
 1536 768 l 0
 1280 768 l 0
256 1024 m 0
 256 1280 l 0
 512 1280 l 0
 512 1024 l 0
 256 1024 l 0
512 1024 m 0
 512 1280 l 0
 768 1280 l 0
 768 1024 l 0
 512 1024 l 0
768 1024 m 0
 768 1280 l 0
 1024 1280 l 0
 1024 1024 l 0
 768 1024 l 0
1024 1024 m 0
 1024 1280 l 0
 1280 1280 l 0
 1280 1024 l 0
 1024 1024 l 0
EndSplineSet
EndChar

StartChar: o
Encoding: 111 111 158
Width: 1024
Flags: HW
LayerCount: 2
Fore
SplineSet
256 0 m 0
 256 256 l 0
 384 256 l 0
 384 0 l 0
 256 0 l 0
384 0 m 0
 384 256 l 0
 512 256 l 0
 512 0 l 0
 384 0 l 0
512 0 m 0
 512 256 l 0
 640 256 l 0
 640 0 l 0
 512 0 l 0
128 256 m 0
 128 512 l 0
 256 512 l 0
 256 256 l 0
 128 256 l 0
640 256 m 0
 640 512 l 0
 768 512 l 0
 768 256 l 0
 640 256 l 0
128 512 m 0
 128 768 l 0
 256 768 l 0
 256 512 l 0
 128 512 l 0
640 512 m 0
 640 768 l 0
 768 768 l 0
 768 512 l 0
 640 512 l 0
128 768 m 0
 128 1024 l 0
 256 1024 l 0
 256 768 l 0
 128 768 l 0
640 768 m 0
 640 1024 l 0
 768 1024 l 0
 768 768 l 0
 640 768 l 0
256 1024 m 0
 256 1280 l 0
 384 1280 l 0
 384 1024 l 0
 256 1024 l 0
384 1024 m 0
 384 1280 l 0
 512 1280 l 0
 512 1024 l 0
 384 1024 l 0
512 1024 m 0
 512 1280 l 0
 640 1280 l 0
 640 1024 l 0
 512 1024 l 0
EndSplineSet
EndChar

StartChar: glyph159
Encoding: 335 65359 159
Width: 2048
VWidth: 0
Flags: HW
LayerCount: 2
Fore
SplineSet
512 0 m 0
 512 256 l 0
 768 256 l 0
 768 0 l 0
 512 0 l 0
768 0 m 0
 768 256 l 0
 1024 256 l 0
 1024 0 l 0
 768 0 l 0
1024 0 m 0
 1024 256 l 0
 1280 256 l 0
 1280 0 l 0
 1024 0 l 0
256 256 m 0
 256 512 l 0
 512 512 l 0
 512 256 l 0
 256 256 l 0
1280 256 m 0
 1280 512 l 0
 1536 512 l 0
 1536 256 l 0
 1280 256 l 0
256 512 m 0
 256 768 l 0
 512 768 l 0
 512 512 l 0
 256 512 l 0
1280 512 m 0
 1280 768 l 0
 1536 768 l 0
 1536 512 l 0
 1280 512 l 0
256 768 m 0
 256 1024 l 0
 512 1024 l 0
 512 768 l 0
 256 768 l 0
1280 768 m 0
 1280 1024 l 0
 1536 1024 l 0
 1536 768 l 0
 1280 768 l 0
512 1024 m 0
 512 1280 l 0
 768 1280 l 0
 768 1024 l 0
 512 1024 l 0
768 1024 m 0
 768 1280 l 0
 1024 1280 l 0
 1024 1024 l 0
 768 1024 l 0
1024 1024 m 0
 1024 1280 l 0
 1280 1280 l 0
 1280 1024 l 0
 1024 1024 l 0
EndSplineSet
EndChar

StartChar: p
Encoding: 112 112 160
Width: 1024
Flags: HW
LayerCount: 2
Fore
SplineSet
128 -256 m 0
 128 0 l 0
 256 0 l 0
 256 -256 l 0
 128 -256 l 0
128 0 m 0
 128 256 l 0
 256 256 l 0
 256 0 l 0
 128 0 l 0
128 256 m 0
 128 512 l 0
 256 512 l 0
 256 256 l 0
 128 256 l 0
256 256 m 0
 256 512 l 0
 384 512 l 0
 384 256 l 0
 256 256 l 0
384 256 m 0
 384 512 l 0
 512 512 l 0
 512 256 l 0
 384 256 l 0
512 256 m 0
 512 512 l 0
 640 512 l 0
 640 256 l 0
 512 256 l 0
128 512 m 0
 128 768 l 0
 256 768 l 0
 256 512 l 0
 128 512 l 0
640 512 m 0
 640 768 l 0
 768 768 l 0
 768 512 l 0
 640 512 l 0
128 768 m 0
 128 1024 l 0
 256 1024 l 0
 256 768 l 0
 128 768 l 0
640 768 m 0
 640 1024 l 0
 768 1024 l 0
 768 768 l 0
 640 768 l 0
128 1024 m 0
 128 1280 l 0
 256 1280 l 0
 256 1024 l 0
 128 1024 l 0
256 1024 m 0
 256 1280 l 0
 384 1280 l 0
 384 1024 l 0
 256 1024 l 0
384 1024 m 0
 384 1280 l 0
 512 1280 l 0
 512 1024 l 0
 384 1024 l 0
512 1024 m 0
 512 1280 l 0
 640 1280 l 0
 640 1024 l 0
 512 1024 l 0
EndSplineSet
EndChar

StartChar: glyph161
Encoding: 336 65360 161
Width: 2048
VWidth: 0
Flags: HW
LayerCount: 2
Fore
SplineSet
256 -256 m 0
 256 0 l 0
 512 0 l 0
 512 -256 l 0
 256 -256 l 0
256 0 m 0
 256 256 l 0
 512 256 l 0
 512 0 l 0
 256 0 l 0
256 256 m 0
 256 512 l 0
 512 512 l 0
 512 256 l 0
 256 256 l 0
512 256 m 0
 512 512 l 0
 768 512 l 0
 768 256 l 0
 512 256 l 0
768 256 m 0
 768 512 l 0
 1024 512 l 0
 1024 256 l 0
 768 256 l 0
1024 256 m 0
 1024 512 l 0
 1280 512 l 0
 1280 256 l 0
 1024 256 l 0
256 512 m 0
 256 768 l 0
 512 768 l 0
 512 512 l 0
 256 512 l 0
1280 512 m 0
 1280 768 l 0
 1536 768 l 0
 1536 512 l 0
 1280 512 l 0
256 768 m 0
 256 1024 l 0
 512 1024 l 0
 512 768 l 0
 256 768 l 0
1280 768 m 0
 1280 1024 l 0
 1536 1024 l 0
 1536 768 l 0
 1280 768 l 0
256 1024 m 0
 256 1280 l 0
 512 1280 l 0
 512 1024 l 0
 256 1024 l 0
512 1024 m 0
 512 1280 l 0
 768 1280 l 0
 768 1024 l 0
 512 1024 l 0
768 1024 m 0
 768 1280 l 0
 1024 1280 l 0
 1024 1024 l 0
 768 1024 l 0
1024 1024 m 0
 1024 1280 l 0
 1280 1280 l 0
 1280 1024 l 0
 1024 1024 l 0
EndSplineSet
EndChar

StartChar: q
Encoding: 113 113 162
Width: 1024
Flags: HW
LayerCount: 2
Fore
SplineSet
640 -256 m 0
 640 0 l 0
 768 0 l 0
 768 -256 l 0
 640 -256 l 0
768 -256 m 0
 768 0 l 0
 896 0 l 0
 896 -256 l 0
 768 -256 l 0
640 0 m 0
 640 256 l 0
 768 256 l 0
 768 0 l 0
 640 0 l 0
256 256 m 0
 256 512 l 0
 384 512 l 0
 384 256 l 0
 256 256 l 0
384 256 m 0
 384 512 l 0
 512 512 l 0
 512 256 l 0
 384 256 l 0
512 256 m 0
 512 512 l 0
 640 512 l 0
 640 256 l 0
 512 256 l 0
640 256 m 0
 640 512 l 0
 768 512 l 0
 768 256 l 0
 640 256 l 0
128 512 m 0
 128 768 l 0
 256 768 l 0
 256 512 l 0
 128 512 l 0
640 512 m 0
 640 768 l 0
 768 768 l 0
 768 512 l 0
 640 512 l 0
128 768 m 0
 128 1024 l 0
 256 1024 l 0
 256 768 l 0
 128 768 l 0
640 768 m 0
 640 1024 l 0
 768 1024 l 0
 768 768 l 0
 640 768 l 0
256 1024 m 0
 256 1280 l 0
 384 1280 l 0
 384 1024 l 0
 256 1024 l 0
384 1024 m 0
 384 1280 l 0
 512 1280 l 0
 512 1024 l 0
 384 1024 l 0
512 1024 m 0
 512 1280 l 0
 640 1280 l 0
 640 1024 l 0
 512 1024 l 0
640 1024 m 0
 640 1280 l 0
 768 1280 l 0
 768 1024 l 0
 640 1024 l 0
EndSplineSet
EndChar

StartChar: glyph163
Encoding: 337 65361 163
Width: 2048
VWidth: 0
Flags: HW
LayerCount: 2
Fore
SplineSet
1280 -256 m 0
 1280 0 l 0
 1536 0 l 0
 1536 -256 l 0
 1280 -256 l 0
1536 -256 m 0
 1536 0 l 0
 1792 0 l 0
 1792 -256 l 0
 1536 -256 l 0
1280 0 m 0
 1280 256 l 0
 1536 256 l 0
 1536 0 l 0
 1280 0 l 0
512 256 m 0
 512 512 l 0
 768 512 l 0
 768 256 l 0
 512 256 l 0
768 256 m 0
 768 512 l 0
 1024 512 l 0
 1024 256 l 0
 768 256 l 0
1024 256 m 0
 1024 512 l 0
 1280 512 l 0
 1280 256 l 0
 1024 256 l 0
1280 256 m 0
 1280 512 l 0
 1536 512 l 0
 1536 256 l 0
 1280 256 l 0
256 512 m 0
 256 768 l 0
 512 768 l 0
 512 512 l 0
 256 512 l 0
1280 512 m 0
 1280 768 l 0
 1536 768 l 0
 1536 512 l 0
 1280 512 l 0
256 768 m 0
 256 1024 l 0
 512 1024 l 0
 512 768 l 0
 256 768 l 0
1280 768 m 0
 1280 1024 l 0
 1536 1024 l 0
 1536 768 l 0
 1280 768 l 0
512 1024 m 0
 512 1280 l 0
 768 1280 l 0
 768 1024 l 0
 512 1024 l 0
768 1024 m 0
 768 1280 l 0
 1024 1280 l 0
 1024 1024 l 0
 768 1024 l 0
1024 1024 m 0
 1024 1280 l 0
 1280 1280 l 0
 1280 1024 l 0
 1024 1024 l 0
1280 1024 m 0
 1280 1280 l 0
 1536 1280 l 0
 1536 1024 l 0
 1280 1024 l 0
EndSplineSet
EndChar

StartChar: r
Encoding: 114 114 164
Width: 1024
Flags: HW
LayerCount: 2
Fore
SplineSet
256 0 m 0
 256 256 l 0
 384 256 l 0
 384 0 l 0
 256 0 l 0
256 256 m 0
 256 512 l 0
 384 512 l 0
 384 256 l 0
 256 256 l 0
256 512 m 0
 256 768 l 0
 384 768 l 0
 384 512 l 0
 256 512 l 0
256 768 m 0
 256 1024 l 0
 384 1024 l 0
 384 768 l 0
 256 768 l 0
384 1024 m 0
 384 1280 l 0
 512 1280 l 0
 512 1024 l 0
 384 1024 l 0
512 1024 m 0
 512 1280 l 0
 640 1280 l 0
 640 1024 l 0
 512 1024 l 0
640 1024 m 0
 640 1280 l 0
 768 1280 l 0
 768 1024 l 0
 640 1024 l 0
EndSplineSet
EndChar

StartChar: glyph165
Encoding: 338 65362 165
Width: 2048
VWidth: 0
Flags: HW
LayerCount: 2
Fore
SplineSet
512 0 m 0
 512 256 l 0
 768 256 l 0
 768 0 l 0
 512 0 l 0
512 256 m 0
 512 512 l 0
 768 512 l 0
 768 256 l 0
 512 256 l 0
512 512 m 0
 512 768 l 0
 768 768 l 0
 768 512 l 0
 512 512 l 0
512 768 m 0
 512 1024 l 0
 768 1024 l 0
 768 768 l 0
 512 768 l 0
768 1024 m 0
 768 1280 l 0
 1024 1280 l 0
 1024 1024 l 0
 768 1024 l 0
1024 1024 m 0
 1024 1280 l 0
 1280 1280 l 0
 1280 1024 l 0
 1024 1024 l 0
1280 1024 m 0
 1280 1280 l 0
 1536 1280 l 0
 1536 1024 l 0
 1280 1024 l 0
EndSplineSet
EndChar

StartChar: s
Encoding: 115 115 166
Width: 1024
Flags: HW
LayerCount: 2
Fore
SplineSet
128 0 m 0
 128 256 l 0
 256 256 l 0
 256 0 l 0
 128 0 l 0
256 0 m 0
 256 256 l 0
 384 256 l 0
 384 0 l 0
 256 0 l 0
384 0 m 0
 384 256 l 0
 512 256 l 0
 512 0 l 0
 384 0 l 0
512 0 m 0
 512 256 l 0
 640 256 l 0
 640 0 l 0
 512 0 l 0
640 256 m 0
 640 512 l 0
 768 512 l 0
 768 256 l 0
 640 256 l 0
256 512 m 0
 256 768 l 0
 384 768 l 0
 384 512 l 0
 256 512 l 0
384 512 m 0
 384 768 l 0
 512 768 l 0
 512 512 l 0
 384 512 l 0
512 512 m 0
 512 768 l 0
 640 768 l 0
 640 512 l 0
 512 512 l 0
128 768 m 0
 128 1024 l 0
 256 1024 l 0
 256 768 l 0
 128 768 l 0
256 1024 m 0
 256 1280 l 0
 384 1280 l 0
 384 1024 l 0
 256 1024 l 0
384 1024 m 0
 384 1280 l 0
 512 1280 l 0
 512 1024 l 0
 384 1024 l 0
512 1024 m 0
 512 1280 l 0
 640 1280 l 0
 640 1024 l 0
 512 1024 l 0
EndSplineSet
EndChar

StartChar: glyph167
Encoding: 339 65363 167
Width: 2048
VWidth: 0
Flags: HW
LayerCount: 2
Fore
SplineSet
256 0 m 0
 256 256 l 0
 512 256 l 0
 512 0 l 0
 256 0 l 0
512 0 m 0
 512 256 l 0
 768 256 l 0
 768 0 l 0
 512 0 l 0
768 0 m 0
 768 256 l 0
 1024 256 l 0
 1024 0 l 0
 768 0 l 0
1024 0 m 0
 1024 256 l 0
 1280 256 l 0
 1280 0 l 0
 1024 0 l 0
1280 256 m 0
 1280 512 l 0
 1536 512 l 0
 1536 256 l 0
 1280 256 l 0
512 512 m 0
 512 768 l 0
 768 768 l 0
 768 512 l 0
 512 512 l 0
768 512 m 0
 768 768 l 0
 1024 768 l 0
 1024 512 l 0
 768 512 l 0
1024 512 m 0
 1024 768 l 0
 1280 768 l 0
 1280 512 l 0
 1024 512 l 0
256 768 m 0
 256 1024 l 0
 512 1024 l 0
 512 768 l 0
 256 768 l 0
512 1024 m 0
 512 1280 l 0
 768 1280 l 0
 768 1024 l 0
 512 1024 l 0
768 1024 m 0
 768 1280 l 0
 1024 1280 l 0
 1024 1024 l 0
 768 1024 l 0
1024 1024 m 0
 1024 1280 l 0
 1280 1280 l 0
 1280 1024 l 0
 1024 1024 l 0
EndSplineSet
EndChar

StartChar: t
Encoding: 116 116 168
Width: 1024
Flags: HW
LayerCount: 2
Fore
SplineSet
512 0 m 0
 512 256 l 0
 640 256 l 0
 640 0 l 0
 512 0 l 0
640 0 m 0
 640 256 l 0
 768 256 l 0
 768 0 l 0
 640 0 l 0
384 256 m 0
 384 512 l 0
 512 512 l 0
 512 256 l 0
 384 256 l 0
384 512 m 0
 384 768 l 0
 512 768 l 0
 512 512 l 0
 384 512 l 0
384 768 m 0
 384 1024 l 0
 512 1024 l 0
 512 768 l 0
 384 768 l 0
256 1024 m 0
 256 1280 l 0
 384 1280 l 0
 384 1024 l 0
 256 1024 l 0
384 1024 m 0
 384 1280 l 0
 512 1280 l 0
 512 1024 l 0
 384 1024 l 0
512 1024 m 0
 512 1280 l 0
 640 1280 l 0
 640 1024 l 0
 512 1024 l 0
384 1280 m 0
 384 1536 l 0
 512 1536 l 0
 512 1280 l 0
 384 1280 l 0
EndSplineSet
EndChar

StartChar: glyph169
Encoding: 340 65364 169
Width: 2048
VWidth: 0
Flags: HW
LayerCount: 2
Fore
SplineSet
1024 0 m 0
 1024 256 l 0
 1280 256 l 0
 1280 0 l 0
 1024 0 l 0
1280 0 m 0
 1280 256 l 0
 1536 256 l 0
 1536 0 l 0
 1280 0 l 0
768 256 m 0
 768 512 l 0
 1024 512 l 0
 1024 256 l 0
 768 256 l 0
768 512 m 0
 768 768 l 0
 1024 768 l 0
 1024 512 l 0
 768 512 l 0
768 768 m 0
 768 1024 l 0
 1024 1024 l 0
 1024 768 l 0
 768 768 l 0
512 1024 m 0
 512 1280 l 0
 768 1280 l 0
 768 1024 l 0
 512 1024 l 0
768 1024 m 0
 768 1280 l 0
 1024 1280 l 0
 1024 1024 l 0
 768 1024 l 0
1024 1024 m 0
 1024 1280 l 0
 1280 1280 l 0
 1280 1024 l 0
 1024 1024 l 0
768 1280 m 0
 768 1536 l 0
 1024 1536 l 0
 1024 1280 l 0
 768 1280 l 0
EndSplineSet
EndChar

StartChar: u
Encoding: 117 117 170
Width: 1024
Flags: HW
LayerCount: 2
Fore
SplineSet
256 0 m 0
 256 256 l 0
 384 256 l 0
 384 0 l 0
 256 0 l 0
384 0 m 0
 384 256 l 0
 512 256 l 0
 512 0 l 0
 384 0 l 0
512 0 m 0
 512 256 l 0
 640 256 l 0
 640 0 l 0
 512 0 l 0
128 256 m 0
 128 512 l 0
 256 512 l 0
 256 256 l 0
 128 256 l 0
640 256 m 0
 640 512 l 0
 768 512 l 0
 768 256 l 0
 640 256 l 0
128 512 m 0
 128 768 l 0
 256 768 l 0
 256 512 l 0
 128 512 l 0
640 512 m 0
 640 768 l 0
 768 768 l 0
 768 512 l 0
 640 512 l 0
128 768 m 0
 128 1024 l 0
 256 1024 l 0
 256 768 l 0
 128 768 l 0
640 768 m 0
 640 1024 l 0
 768 1024 l 0
 768 768 l 0
 640 768 l 0
128 1024 m 0
 128 1280 l 0
 256 1280 l 0
 256 1024 l 0
 128 1024 l 0
640 1024 m 0
 640 1280 l 0
 768 1280 l 0
 768 1024 l 0
 640 1024 l 0
EndSplineSet
EndChar

StartChar: glyph171
Encoding: 341 65365 171
Width: 2048
VWidth: 0
Flags: HW
LayerCount: 2
Fore
SplineSet
512 0 m 0
 512 256 l 0
 768 256 l 0
 768 0 l 0
 512 0 l 0
768 0 m 0
 768 256 l 0
 1024 256 l 0
 1024 0 l 0
 768 0 l 0
1024 0 m 0
 1024 256 l 0
 1280 256 l 0
 1280 0 l 0
 1024 0 l 0
256 256 m 0
 256 512 l 0
 512 512 l 0
 512 256 l 0
 256 256 l 0
1280 256 m 0
 1280 512 l 0
 1536 512 l 0
 1536 256 l 0
 1280 256 l 0
256 512 m 0
 256 768 l 0
 512 768 l 0
 512 512 l 0
 256 512 l 0
1280 512 m 0
 1280 768 l 0
 1536 768 l 0
 1536 512 l 0
 1280 512 l 0
256 768 m 0
 256 1024 l 0
 512 1024 l 0
 512 768 l 0
 256 768 l 0
1280 768 m 0
 1280 1024 l 0
 1536 1024 l 0
 1536 768 l 0
 1280 768 l 0
256 1024 m 0
 256 1280 l 0
 512 1280 l 0
 512 1024 l 0
 256 1024 l 0
1280 1024 m 0
 1280 1280 l 0
 1536 1280 l 0
 1536 1024 l 0
 1280 1024 l 0
EndSplineSet
EndChar

StartChar: v
Encoding: 118 118 172
Width: 1024
Flags: HW
LayerCount: 2
Fore
SplineSet
384 0 m 0
 384 256 l 0
 512 256 l 0
 512 0 l 0
 384 0 l 0
256 256 m 0
 256 512 l 0
 384 512 l 0
 384 256 l 0
 256 256 l 0
512 256 m 0
 512 512 l 0
 640 512 l 0
 640 256 l 0
 512 256 l 0
256 512 m 0
 256 768 l 0
 384 768 l 0
 384 512 l 0
 256 512 l 0
512 512 m 0
 512 768 l 0
 640 768 l 0
 640 512 l 0
 512 512 l 0
128 768 m 0
 128 1024 l 0
 256 1024 l 0
 256 768 l 0
 128 768 l 0
640 768 m 0
 640 1024 l 0
 768 1024 l 0
 768 768 l 0
 640 768 l 0
128 1024 m 0
 128 1280 l 0
 256 1280 l 0
 256 1024 l 0
 128 1024 l 0
640 1024 m 0
 640 1280 l 0
 768 1280 l 0
 768 1024 l 0
 640 1024 l 0
EndSplineSet
EndChar

StartChar: glyph173
Encoding: 342 65366 173
Width: 2048
VWidth: 0
Flags: HW
LayerCount: 2
Fore
SplineSet
768 0 m 0
 768 256 l 0
 1024 256 l 0
 1024 0 l 0
 768 0 l 0
512 256 m 0
 512 512 l 0
 768 512 l 0
 768 256 l 0
 512 256 l 0
1024 256 m 0
 1024 512 l 0
 1280 512 l 0
 1280 256 l 0
 1024 256 l 0
512 512 m 0
 512 768 l 0
 768 768 l 0
 768 512 l 0
 512 512 l 0
1024 512 m 0
 1024 768 l 0
 1280 768 l 0
 1280 512 l 0
 1024 512 l 0
256 768 m 0
 256 1024 l 0
 512 1024 l 0
 512 768 l 0
 256 768 l 0
1280 768 m 0
 1280 1024 l 0
 1536 1024 l 0
 1536 768 l 0
 1280 768 l 0
256 1024 m 0
 256 1280 l 0
 512 1280 l 0
 512 1024 l 0
 256 1024 l 0
1280 1024 m 0
 1280 1280 l 0
 1536 1280 l 0
 1536 1024 l 0
 1280 1024 l 0
EndSplineSet
EndChar

StartChar: w
Encoding: 119 119 174
Width: 1024
Flags: HW
LayerCount: 2
Fore
SplineSet
256 0 m 0
 256 256 l 0
 384 256 l 0
 384 0 l 0
 256 0 l 0
512 0 m 0
 512 256 l 0
 640 256 l 0
 640 0 l 0
 512 0 l 0
128 256 m 0
 128 512 l 0
 256 512 l 0
 256 256 l 0
 128 256 l 0
384 256 m 0
 384 512 l 0
 512 512 l 0
 512 256 l 0
 384 256 l 0
640 256 m 0
 640 512 l 0
 768 512 l 0
 768 256 l 0
 640 256 l 0
128 512 m 0
 128 768 l 0
 256 768 l 0
 256 512 l 0
 128 512 l 0
384 512 m 0
 384 768 l 0
 512 768 l 0
 512 512 l 0
 384 512 l 0
640 512 m 0
 640 768 l 0
 768 768 l 0
 768 512 l 0
 640 512 l 0
128 768 m 0
 128 1024 l 0
 256 1024 l 0
 256 768 l 0
 128 768 l 0
384 768 m 0
 384 1024 l 0
 512 1024 l 0
 512 768 l 0
 384 768 l 0
640 768 m 0
 640 1024 l 0
 768 1024 l 0
 768 768 l 0
 640 768 l 0
128 1024 m 0
 128 1280 l 0
 256 1280 l 0
 256 1024 l 0
 128 1024 l 0
640 1024 m 0
 640 1280 l 0
 768 1280 l 0
 768 1024 l 0
 640 1024 l 0
EndSplineSet
EndChar

StartChar: glyph175
Encoding: 343 65367 175
Width: 2048
VWidth: 0
Flags: HW
LayerCount: 2
Fore
SplineSet
512 0 m 0
 512 256 l 0
 768 256 l 0
 768 0 l 0
 512 0 l 0
1024 0 m 0
 1024 256 l 0
 1280 256 l 0
 1280 0 l 0
 1024 0 l 0
256 256 m 0
 256 512 l 0
 512 512 l 0
 512 256 l 0
 256 256 l 0
768 256 m 0
 768 512 l 0
 1024 512 l 0
 1024 256 l 0
 768 256 l 0
1280 256 m 0
 1280 512 l 0
 1536 512 l 0
 1536 256 l 0
 1280 256 l 0
256 512 m 0
 256 768 l 0
 512 768 l 0
 512 512 l 0
 256 512 l 0
768 512 m 0
 768 768 l 0
 1024 768 l 0
 1024 512 l 0
 768 512 l 0
1280 512 m 0
 1280 768 l 0
 1536 768 l 0
 1536 512 l 0
 1280 512 l 0
256 768 m 0
 256 1024 l 0
 512 1024 l 0
 512 768 l 0
 256 768 l 0
768 768 m 0
 768 1024 l 0
 1024 1024 l 0
 1024 768 l 0
 768 768 l 0
1280 768 m 0
 1280 1024 l 0
 1536 1024 l 0
 1536 768 l 0
 1280 768 l 0
256 1024 m 0
 256 1280 l 0
 512 1280 l 0
 512 1024 l 0
 256 1024 l 0
1280 1024 m 0
 1280 1280 l 0
 1536 1280 l 0
 1536 1024 l 0
 1280 1024 l 0
EndSplineSet
EndChar

StartChar: x
Encoding: 120 120 176
Width: 1024
Flags: HW
LayerCount: 2
Fore
SplineSet
128 0 m 0
 128 256 l 0
 256 256 l 0
 256 0 l 0
 128 0 l 0
640 0 m 0
 640 256 l 0
 768 256 l 0
 768 0 l 0
 640 0 l 0
256 256 m 0
 256 512 l 0
 384 512 l 0
 384 256 l 0
 256 256 l 0
512 256 m 0
 512 512 l 0
 640 512 l 0
 640 256 l 0
 512 256 l 0
384 512 m 0
 384 768 l 0
 512 768 l 0
 512 512 l 0
 384 512 l 0
256 768 m 0
 256 1024 l 0
 384 1024 l 0
 384 768 l 0
 256 768 l 0
512 768 m 0
 512 1024 l 0
 640 1024 l 0
 640 768 l 0
 512 768 l 0
128 1024 m 0
 128 1280 l 0
 256 1280 l 0
 256 1024 l 0
 128 1024 l 0
640 1024 m 0
 640 1280 l 0
 768 1280 l 0
 768 1024 l 0
 640 1024 l 0
EndSplineSet
EndChar

StartChar: glyph177
Encoding: 344 65368 177
Width: 2048
VWidth: 0
Flags: HW
LayerCount: 2
Fore
SplineSet
256 0 m 0
 256 256 l 0
 512 256 l 0
 512 0 l 0
 256 0 l 0
1280 0 m 0
 1280 256 l 0
 1536 256 l 0
 1536 0 l 0
 1280 0 l 0
512 256 m 0
 512 512 l 0
 768 512 l 0
 768 256 l 0
 512 256 l 0
1024 256 m 0
 1024 512 l 0
 1280 512 l 0
 1280 256 l 0
 1024 256 l 0
768 512 m 0
 768 768 l 0
 1024 768 l 0
 1024 512 l 0
 768 512 l 0
512 768 m 0
 512 1024 l 0
 768 1024 l 0
 768 768 l 0
 512 768 l 0
1024 768 m 0
 1024 1024 l 0
 1280 1024 l 0
 1280 768 l 0
 1024 768 l 0
256 1024 m 0
 256 1280 l 0
 512 1280 l 0
 512 1024 l 0
 256 1024 l 0
1280 1024 m 0
 1280 1280 l 0
 1536 1280 l 0
 1536 1024 l 0
 1280 1024 l 0
EndSplineSet
EndChar

StartChar: y
Encoding: 121 121 178
Width: 1024
Flags: HW
LayerCount: 2
Fore
SplineSet
256 -256 m 0
 256 0 l 0
 384 0 l 0
 384 -256 l 0
 256 -256 l 0
384 -256 m 0
 384 0 l 0
 512 0 l 0
 512 -256 l 0
 384 -256 l 0
512 -256 m 0
 512 0 l 0
 640 0 l 0
 640 -256 l 0
 512 -256 l 0
640 0 m 0
 640 256 l 0
 768 256 l 0
 768 0 l 0
 640 0 l 0
256 256 m 0
 256 512 l 0
 384 512 l 0
 384 256 l 0
 256 256 l 0
384 256 m 0
 384 512 l 0
 512 512 l 0
 512 256 l 0
 384 256 l 0
512 256 m 0
 512 512 l 0
 640 512 l 0
 640 256 l 0
 512 256 l 0
640 256 m 0
 640 512 l 0
 768 512 l 0
 768 256 l 0
 640 256 l 0
128 512 m 0
 128 768 l 0
 256 768 l 0
 256 512 l 0
 128 512 l 0
640 512 m 0
 640 768 l 0
 768 768 l 0
 768 512 l 0
 640 512 l 0
128 768 m 0
 128 1024 l 0
 256 1024 l 0
 256 768 l 0
 128 768 l 0
640 768 m 0
 640 1024 l 0
 768 1024 l 0
 768 768 l 0
 640 768 l 0
128 1024 m 0
 128 1280 l 0
 256 1280 l 0
 256 1024 l 0
 128 1024 l 0
640 1024 m 0
 640 1280 l 0
 768 1280 l 0
 768 1024 l 0
 640 1024 l 0
EndSplineSet
EndChar

StartChar: glyph179
Encoding: 345 65369 179
Width: 2048
VWidth: 0
Flags: HW
LayerCount: 2
Fore
SplineSet
512 -256 m 0
 512 0 l 0
 768 0 l 0
 768 -256 l 0
 512 -256 l 0
768 -256 m 0
 768 0 l 0
 1024 0 l 0
 1024 -256 l 0
 768 -256 l 0
1024 -256 m 0
 1024 0 l 0
 1280 0 l 0
 1280 -256 l 0
 1024 -256 l 0
1280 0 m 0
 1280 256 l 0
 1536 256 l 0
 1536 0 l 0
 1280 0 l 0
512 256 m 0
 512 512 l 0
 768 512 l 0
 768 256 l 0
 512 256 l 0
768 256 m 0
 768 512 l 0
 1024 512 l 0
 1024 256 l 0
 768 256 l 0
1024 256 m 0
 1024 512 l 0
 1280 512 l 0
 1280 256 l 0
 1024 256 l 0
1280 256 m 0
 1280 512 l 0
 1536 512 l 0
 1536 256 l 0
 1280 256 l 0
256 512 m 0
 256 768 l 0
 512 768 l 0
 512 512 l 0
 256 512 l 0
1280 512 m 0
 1280 768 l 0
 1536 768 l 0
 1536 512 l 0
 1280 512 l 0
256 768 m 0
 256 1024 l 0
 512 1024 l 0
 512 768 l 0
 256 768 l 0
1280 768 m 0
 1280 1024 l 0
 1536 1024 l 0
 1536 768 l 0
 1280 768 l 0
256 1024 m 0
 256 1280 l 0
 512 1280 l 0
 512 1024 l 0
 256 1024 l 0
1280 1024 m 0
 1280 1280 l 0
 1536 1280 l 0
 1536 1024 l 0
 1280 1024 l 0
EndSplineSet
EndChar

StartChar: z
Encoding: 122 122 180
Width: 1024
Flags: HW
LayerCount: 2
Fore
SplineSet
128 0 m 0
 128 256 l 0
 256 256 l 0
 256 0 l 0
 128 0 l 0
256 0 m 0
 256 256 l 0
 384 256 l 0
 384 0 l 0
 256 0 l 0
384 0 m 0
 384 256 l 0
 512 256 l 0
 512 0 l 0
 384 0 l 0
512 0 m 0
 512 256 l 0
 640 256 l 0
 640 0 l 0
 512 0 l 0
640 0 m 0
 640 256 l 0
 768 256 l 0
 768 0 l 0
 640 0 l 0
256 256 m 0
 256 512 l 0
 384 512 l 0
 384 256 l 0
 256 256 l 0
384 512 m 0
 384 768 l 0
 512 768 l 0
 512 512 l 0
 384 512 l 0
512 768 m 0
 512 1024 l 0
 640 1024 l 0
 640 768 l 0
 512 768 l 0
128 1024 m 0
 128 1280 l 0
 256 1280 l 0
 256 1024 l 0
 128 1024 l 0
256 1024 m 0
 256 1280 l 0
 384 1280 l 0
 384 1024 l 0
 256 1024 l 0
384 1024 m 0
 384 1280 l 0
 512 1280 l 0
 512 1024 l 0
 384 1024 l 0
512 1024 m 0
 512 1280 l 0
 640 1280 l 0
 640 1024 l 0
 512 1024 l 0
640 1024 m 0
 640 1280 l 0
 768 1280 l 0
 768 1024 l 0
 640 1024 l 0
EndSplineSet
EndChar

StartChar: glyph181
Encoding: 346 65370 181
Width: 2048
VWidth: 0
Flags: HW
LayerCount: 2
Fore
SplineSet
256 0 m 0
 256 256 l 0
 512 256 l 0
 512 0 l 0
 256 0 l 0
512 0 m 0
 512 256 l 0
 768 256 l 0
 768 0 l 0
 512 0 l 0
768 0 m 0
 768 256 l 0
 1024 256 l 0
 1024 0 l 0
 768 0 l 0
1024 0 m 0
 1024 256 l 0
 1280 256 l 0
 1280 0 l 0
 1024 0 l 0
1280 0 m 0
 1280 256 l 0
 1536 256 l 0
 1536 0 l 0
 1280 0 l 0
512 256 m 0
 512 512 l 0
 768 512 l 0
 768 256 l 0
 512 256 l 0
768 512 m 0
 768 768 l 0
 1024 768 l 0
 1024 512 l 0
 768 512 l 0
1024 768 m 0
 1024 1024 l 0
 1280 1024 l 0
 1280 768 l 0
 1024 768 l 0
256 1024 m 0
 256 1280 l 0
 512 1280 l 0
 512 1024 l 0
 256 1024 l 0
512 1024 m 0
 512 1280 l 0
 768 1280 l 0
 768 1024 l 0
 512 1024 l 0
768 1024 m 0
 768 1280 l 0
 1024 1280 l 0
 1024 1024 l 0
 768 1024 l 0
1024 1024 m 0
 1024 1280 l 0
 1280 1280 l 0
 1280 1024 l 0
 1024 1024 l 0
1280 1024 m 0
 1280 1280 l 0
 1536 1280 l 0
 1536 1024 l 0
 1280 1024 l 0
EndSplineSet
EndChar

StartChar: braceleft
Encoding: 123 123 182
Width: 1024
Flags: HW
LayerCount: 2
Fore
SplineSet
512 0 m 0
 512 256 l 0
 640 256 l 0
 640 0 l 0
 512 0 l 0
640 0 m 0
 640 256 l 0
 768 256 l 0
 768 0 l 0
 640 0 l 0
768 0 m 0
 768 256 l 0
 896 256 l 0
 896 0 l 0
 768 0 l 0
512 256 m 0
 512 512 l 0
 640 512 l 0
 640 256 l 0
 512 256 l 0
512 512 m 0
 512 768 l 0
 640 768 l 0
 640 512 l 0
 512 512 l 0
256 768 m 0
 256 1024 l 0
 384 1024 l 0
 384 768 l 0
 256 768 l 0
384 768 m 0
 384 1024 l 0
 512 1024 l 0
 512 768 l 0
 384 768 l 0
512 1024 m 0
 512 1280 l 0
 640 1280 l 0
 640 1024 l 0
 512 1024 l 0
512 1280 m 0
 512 1536 l 0
 640 1536 l 0
 640 1280 l 0
 512 1280 l 0
640 1280 m 0
 640 1536 l 0
 768 1536 l 0
 768 1280 l 0
 640 1280 l 0
768 1280 m 0
 768 1536 l 0
 896 1536 l 0
 896 1280 l 0
 768 1280 l 0
EndSplineSet
EndChar

StartChar: glyph183
Encoding: 347 65371 183
Width: 2048
VWidth: 0
Flags: HW
LayerCount: 2
Fore
SplineSet
1024 0 m 0
 1024 256 l 0
 1280 256 l 0
 1280 0 l 0
 1024 0 l 0
1280 0 m 0
 1280 256 l 0
 1536 256 l 0
 1536 0 l 0
 1280 0 l 0
1536 0 m 0
 1536 256 l 0
 1792 256 l 0
 1792 0 l 0
 1536 0 l 0
1024 256 m 0
 1024 512 l 0
 1280 512 l 0
 1280 256 l 0
 1024 256 l 0
1024 512 m 0
 1024 768 l 0
 1280 768 l 0
 1280 512 l 0
 1024 512 l 0
512 768 m 0
 512 1024 l 0
 768 1024 l 0
 768 768 l 0
 512 768 l 0
768 768 m 0
 768 1024 l 0
 1024 1024 l 0
 1024 768 l 0
 768 768 l 0
1024 1024 m 0
 1024 1280 l 0
 1280 1280 l 0
 1280 1024 l 0
 1024 1024 l 0
1024 1280 m 0
 1024 1536 l 0
 1280 1536 l 0
 1280 1280 l 0
 1024 1280 l 0
1280 1280 m 0
 1280 1536 l 0
 1536 1536 l 0
 1536 1280 l 0
 1280 1280 l 0
1536 1280 m 0
 1536 1536 l 0
 1792 1536 l 0
 1792 1280 l 0
 1536 1280 l 0
EndSplineSet
EndChar

StartChar: bar
Encoding: 124 124 184
Width: 1024
Flags: HW
LayerCount: 2
Fore
SplineSet
512 0 m 0
 512 256 l 0
 640 256 l 0
 640 0 l 0
 512 0 l 0
512 256 m 0
 512 512 l 0
 640 512 l 0
 640 256 l 0
 512 256 l 0
512 512 m 0
 512 768 l 0
 640 768 l 0
 640 512 l 0
 512 512 l 0
512 768 m 0
 512 1024 l 0
 640 1024 l 0
 640 768 l 0
 512 768 l 0
512 1024 m 0
 512 1280 l 0
 640 1280 l 0
 640 1024 l 0
 512 1024 l 0
512 1280 m 0
 512 1536 l 0
 640 1536 l 0
 640 1280 l 0
 512 1280 l 0
EndSplineSet
EndChar

StartChar: glyph185
Encoding: 348 65372 185
Width: 2048
VWidth: 0
Flags: HW
LayerCount: 2
Fore
SplineSet
1024 0 m 0
 1024 256 l 0
 1280 256 l 0
 1280 0 l 0
 1024 0 l 0
1024 256 m 0
 1024 512 l 0
 1280 512 l 0
 1280 256 l 0
 1024 256 l 0
1024 512 m 0
 1024 768 l 0
 1280 768 l 0
 1280 512 l 0
 1024 512 l 0
1024 768 m 0
 1024 1024 l 0
 1280 1024 l 0
 1280 768 l 0
 1024 768 l 0
1024 1024 m 0
 1024 1280 l 0
 1280 1280 l 0
 1280 1024 l 0
 1024 1024 l 0
1024 1280 m 0
 1024 1536 l 0
 1280 1536 l 0
 1280 1280 l 0
 1024 1280 l 0
EndSplineSet
EndChar

StartChar: braceright
Encoding: 125 125 186
Width: 1024
Flags: HW
LayerCount: 2
Fore
SplineSet
128 0 m 0
 128 256 l 0
 256 256 l 0
 256 0 l 0
 128 0 l 0
256 0 m 0
 256 256 l 0
 384 256 l 0
 384 0 l 0
 256 0 l 0
384 0 m 0
 384 256 l 0
 512 256 l 0
 512 0 l 0
 384 0 l 0
384 256 m 0
 384 512 l 0
 512 512 l 0
 512 256 l 0
 384 256 l 0
384 512 m 0
 384 768 l 0
 512 768 l 0
 512 512 l 0
 384 512 l 0
512 768 m 0
 512 1024 l 0
 640 1024 l 0
 640 768 l 0
 512 768 l 0
640 768 m 0
 640 1024 l 0
 768 1024 l 0
 768 768 l 0
 640 768 l 0
384 1024 m 0
 384 1280 l 0
 512 1280 l 0
 512 1024 l 0
 384 1024 l 0
128 1280 m 0
 128 1536 l 0
 256 1536 l 0
 256 1280 l 0
 128 1280 l 0
256 1280 m 0
 256 1536 l 0
 384 1536 l 0
 384 1280 l 0
 256 1280 l 0
384 1280 m 0
 384 1536 l 0
 512 1536 l 0
 512 1280 l 0
 384 1280 l 0
EndSplineSet
EndChar

StartChar: glyph187
Encoding: 349 65373 187
Width: 2048
VWidth: 0
Flags: HW
LayerCount: 2
Fore
SplineSet
256 0 m 0
 256 256 l 0
 512 256 l 0
 512 0 l 0
 256 0 l 0
512 0 m 0
 512 256 l 0
 768 256 l 0
 768 0 l 0
 512 0 l 0
768 0 m 0
 768 256 l 0
 1024 256 l 0
 1024 0 l 0
 768 0 l 0
768 256 m 0
 768 512 l 0
 1024 512 l 0
 1024 256 l 0
 768 256 l 0
768 512 m 0
 768 768 l 0
 1024 768 l 0
 1024 512 l 0
 768 512 l 0
1024 768 m 0
 1024 1024 l 0
 1280 1024 l 0
 1280 768 l 0
 1024 768 l 0
1280 768 m 0
 1280 1024 l 0
 1536 1024 l 0
 1536 768 l 0
 1280 768 l 0
768 1024 m 0
 768 1280 l 0
 1024 1280 l 0
 1024 1024 l 0
 768 1024 l 0
256 1280 m 0
 256 1536 l 0
 512 1536 l 0
 512 1280 l 0
 256 1280 l 0
512 1280 m 0
 512 1536 l 0
 768 1536 l 0
 768 1280 l 0
 512 1280 l 0
768 1280 m 0
 768 1536 l 0
 1024 1536 l 0
 1024 1280 l 0
 768 1280 l 0
EndSplineSet
EndChar

StartChar: asciitilde
Encoding: 126 126 188
Width: 1024
Flags: HW
LayerCount: 2
Fore
SplineSet
256 1024 m 0
 256 1280 l 0
 384 1280 l 0
 384 1024 l 0
 256 1024 l 0
512 1024 m 0
 512 1280 l 0
 640 1280 l 0
 640 1024 l 0
 512 1024 l 0
384 1280 m 0
 384 1536 l 0
 512 1536 l 0
 512 1280 l 0
 384 1280 l 0
640 1280 m 0
 640 1536 l 0
 768 1536 l 0
 768 1280 l 0
 640 1280 l 0
EndSplineSet
EndChar

StartChar: glyph189
Encoding: 350 65374 189
Width: 2048
VWidth: 0
Flags: HW
LayerCount: 2
Fore
SplineSet
512 1024 m 0
 512 1280 l 0
 768 1280 l 0
 768 1024 l 0
 512 1024 l 0
1024 1024 m 0
 1024 1280 l 0
 1280 1280 l 0
 1280 1024 l 0
 1024 1024 l 0
768 1280 m 0
 768 1536 l 0
 1024 1536 l 0
 1024 1280 l 0
 768 1280 l 0
1280 1280 m 0
 1280 1536 l 0
 1536 1536 l 0
 1536 1280 l 0
 1280 1280 l 0
EndSplineSet
EndChar

StartChar: uni007F
Encoding: 127 127 190
Width: 1024
Flags: HW
LayerCount: 2
Fore
SplineSet
256 -256 m 0
 256 0 l 0
 384 0 l 0
 384 -256 l 0
 256 -256 l 0
384 -256 m 0
 384 0 l 0
 512 0 l 0
 512 -256 l 0
 384 -256 l 0
512 -256 m 0
 512 0 l 0
 640 0 l 0
 640 -256 l 0
 512 -256 l 0
640 -256 m 0
 640 0 l 0
 768 0 l 0
 768 -256 l 0
 640 -256 l 0
128 0 m 0
 128 256 l 0
 256 256 l 0
 256 0 l 0
 128 0 l 0
768 0 m 0
 768 256 l 0
 896 256 l 0
 896 0 l 0
 768 0 l 0
0 256 m 0
 0 512 l 0
 128 512 l 0
 128 256 l 0
 0 256 l 0
384 256 m 0
 384 512 l 0
 512 512 l 0
 512 256 l 0
 384 256 l 0
512 256 m 0
 512 512 l 0
 640 512 l 0
 640 256 l 0
 512 256 l 0
896 256 m 0
 896 512 l 0
 1024 512 l 0
 1024 256 l 0
 896 256 l 0
0 512 m 0
 0 768 l 0
 128 768 l 0
 128 512 l 0
 0 512 l 0
256 512 m 0
 256 768 l 0
 384 768 l 0
 384 512 l 0
 256 512 l 0
896 512 m 0
 896 768 l 0
 1024 768 l 0
 1024 512 l 0
 896 512 l 0
0 768 m 0
 0 1024 l 0
 128 1024 l 0
 128 768 l 0
 0 768 l 0
256 768 m 0
 256 1024 l 0
 384 1024 l 0
 384 768 l 0
 256 768 l 0
896 768 m 0
 896 1024 l 0
 1024 1024 l 0
 1024 768 l 0
 896 768 l 0
0 1024 m 0
 0 1280 l 0
 128 1280 l 0
 128 1024 l 0
 0 1024 l 0
384 1024 m 0
 384 1280 l 0
 512 1280 l 0
 512 1024 l 0
 384 1024 l 0
512 1024 m 0
 512 1280 l 0
 640 1280 l 0
 640 1024 l 0
 512 1024 l 0
896 1024 m 0
 896 1280 l 0
 1024 1280 l 0
 1024 1024 l 0
 896 1024 l 0
128 1280 m 0
 128 1536 l 0
 256 1536 l 0
 256 1280 l 0
 128 1280 l 0
768 1280 m 0
 768 1536 l 0
 896 1536 l 0
 896 1280 l 0
 768 1280 l 0
256 1536 m 0
 256 1792 l 0
 384 1792 l 0
 384 1536 l 0
 256 1536 l 0
384 1536 m 0
 384 1792 l 0
 512 1792 l 0
 512 1536 l 0
 384 1536 l 0
512 1536 m 0
 512 1792 l 0
 640 1792 l 0
 640 1536 l 0
 512 1536 l 0
640 1536 m 0
 640 1792 l 0
 768 1792 l 0
 768 1536 l 0
 640 1536 l 0
EndSplineSet
EndChar

StartChar: glyph191
Encoding: 351 65375 191
Width: 2048
VWidth: 0
Flags: HW
LayerCount: 2
Fore
SplineSet
512 -256 m 0
 512 0 l 0
 768 0 l 0
 768 -256 l 0
 512 -256 l 0
768 -256 m 0
 768 0 l 0
 1024 0 l 0
 1024 -256 l 0
 768 -256 l 0
1024 -256 m 0
 1024 0 l 0
 1280 0 l 0
 1280 -256 l 0
 1024 -256 l 0
1280 -256 m 0
 1280 0 l 0
 1536 0 l 0
 1536 -256 l 0
 1280 -256 l 0
256 0 m 0
 256 256 l 0
 512 256 l 0
 512 0 l 0
 256 0 l 0
1536 0 m 0
 1536 256 l 0
 1792 256 l 0
 1792 0 l 0
 1536 0 l 0
0 256 m 0
 0 512 l 0
 256 512 l 0
 256 256 l 0
 0 256 l 0
768 256 m 0
 768 512 l 0
 1024 512 l 0
 1024 256 l 0
 768 256 l 0
1024 256 m 0
 1024 512 l 0
 1280 512 l 0
 1280 256 l 0
 1024 256 l 0
1792 256 m 0
 1792 512 l 0
 2048 512 l 0
 2048 256 l 0
 1792 256 l 0
0 512 m 0
 0 768 l 0
 256 768 l 0
 256 512 l 0
 0 512 l 0
512 512 m 0
 512 768 l 0
 768 768 l 0
 768 512 l 0
 512 512 l 0
1792 512 m 0
 1792 768 l 0
 2048 768 l 0
 2048 512 l 0
 1792 512 l 0
0 768 m 0
 0 1024 l 0
 256 1024 l 0
 256 768 l 0
 0 768 l 0
512 768 m 0
 512 1024 l 0
 768 1024 l 0
 768 768 l 0
 512 768 l 0
1792 768 m 0
 1792 1024 l 0
 2048 1024 l 0
 2048 768 l 0
 1792 768 l 0
0 1024 m 0
 0 1280 l 0
 256 1280 l 0
 256 1024 l 0
 0 1024 l 0
768 1024 m 0
 768 1280 l 0
 1024 1280 l 0
 1024 1024 l 0
 768 1024 l 0
1024 1024 m 0
 1024 1280 l 0
 1280 1280 l 0
 1280 1024 l 0
 1024 1024 l 0
1792 1024 m 0
 1792 1280 l 0
 2048 1280 l 0
 2048 1024 l 0
 1792 1024 l 0
256 1280 m 0
 256 1536 l 0
 512 1536 l 0
 512 1280 l 0
 256 1280 l 0
1536 1280 m 0
 1536 1536 l 0
 1792 1536 l 0
 1792 1280 l 0
 1536 1280 l 0
512 1536 m 0
 512 1792 l 0
 768 1792 l 0
 768 1536 l 0
 512 1536 l 0
768 1536 m 0
 768 1792 l 0
 1024 1792 l 0
 1024 1536 l 0
 768 1536 l 0
1024 1536 m 0
 1024 1792 l 0
 1280 1792 l 0
 1280 1536 l 0
 1024 1536 l 0
1280 1536 m 0
 1280 1792 l 0
 1536 1792 l 0
 1536 1536 l 0
 1280 1536 l 0
EndSplineSet
EndChar

StartChar: mark1
Encoding: 353 769 193
Width: 0
VWidth: 0
Flags: HW
AnchorPoint: "mkmk" 0 -256 mark 0
AnchorPoint: "mkmk" 0 0 basemark 0
AnchorPoint: "mark" 0 -256 mark 0
LayerCount: 2
Fore
SplineSet
768 -256 m 0
 768 0 l 0
 1024 0 l 0
 1024 -256 l 0
 768 -256 l 0
EndSplineSet
EndChar

StartChar: mark2
Encoding: 354 770 194
Width: 0
VWidth: 0
Flags: HW
AnchorPoint: "mkmk" 0 -256 mark 0
AnchorPoint: "mkmk" 0 0 basemark 0
AnchorPoint: "mark" 0 -256 mark 0
LayerCount: 2
Fore
SplineSet
512 -256 m 0
 512 0 l 0
 768 0 l 0
 768 -256 l 0
 512 -256 l 0
EndSplineSet
EndChar

StartChar: mark3
Encoding: 355 771 195
Width: 0
VWidth: 0
Flags: HW
AnchorPoint: "mkmk" 0 -256 mark 0
AnchorPoint: "mkmk" 0 0 basemark 0
AnchorPoint: "mark" 0 -256 mark 0
LayerCount: 2
Fore
SplineSet
512 -256 m 0
 512 0 l 0
 768 0 l 0
 768 -256 l 0
 512 -256 l 0
768 -256 m 0
 768 0 l 0
 1024 0 l 0
 1024 -256 l 0
 768 -256 l 0
EndSplineSet
EndChar

StartChar: mark4
Encoding: 356 772 196
Width: 0
VWidth: 0
Flags: HW
AnchorPoint: "mkmk" 0 -256 mark 0
AnchorPoint: "mkmk" 0 0 basemark 0
AnchorPoint: "mark" 0 -256 mark 0
LayerCount: 2
Fore
SplineSet
256 -256 m 0
 256 0 l 0
 512 0 l 0
 512 -256 l 0
 256 -256 l 0
EndSplineSet
EndChar

StartChar: mark5
Encoding: 357 773 197
Width: 0
VWidth: 0
Flags: HW
AnchorPoint: "mkmk" 0 -256 mark 0
AnchorPoint: "mkmk" 0 0 basemark 0
AnchorPoint: "mark" 0 -256 mark 0
LayerCount: 2
Fore
SplineSet
256 -256 m 0
 256 0 l 0
 512 0 l 0
 512 -256 l 0
 256 -256 l 0
768 -256 m 0
 768 0 l 0
 1024 0 l 0
 1024 -256 l 0
 768 -256 l 0
EndSplineSet
EndChar

StartChar: mark6
Encoding: 358 774 198
Width: 0
VWidth: 0
Flags: HW
AnchorPoint: "mkmk" 0 -256 mark 0
AnchorPoint: "mkmk" 0 0 basemark 0
AnchorPoint: "mark" 0 -256 mark 0
LayerCount: 2
Fore
SplineSet
256 -256 m 0
 256 0 l 0
 512 0 l 0
 512 -256 l 0
 256 -256 l 0
512 -256 m 0
 512 0 l 0
 768 0 l 0
 768 -256 l 0
 512 -256 l 0
EndSplineSet
EndChar

StartChar: mark7
Encoding: 359 775 199
Width: 0
VWidth: 0
Flags: HW
AnchorPoint: "mkmk" 0 -256 mark 0
AnchorPoint: "mkmk" 0 0 basemark 0
AnchorPoint: "mark" 0 -256 mark 0
LayerCount: 2
Fore
SplineSet
256 -256 m 0
 256 0 l 0
 512 0 l 0
 512 -256 l 0
 256 -256 l 0
512 -256 m 0
 512 0 l 0
 768 0 l 0
 768 -256 l 0
 512 -256 l 0
768 -256 m 0
 768 0 l 0
 1024 0 l 0
 1024 -256 l 0
 768 -256 l 0
EndSplineSet
EndChar

StartChar: mark8
Encoding: 360 776 200
Width: 0
VWidth: 0
Flags: HW
AnchorPoint: "mkmk" 0 -256 mark 0
AnchorPoint: "mkmk" 0 0 basemark 0
AnchorPoint: "mark" 0 -256 mark 0
LayerCount: 2
Fore
SplineSet
0 -256 m 0
 0 0 l 0
 256 0 l 0
 256 -256 l 0
 0 -256 l 0
EndSplineSet
EndChar

StartChar: mark9
Encoding: 361 777 201
Width: 0
VWidth: 0
Flags: HW
AnchorPoint: "mkmk" 0 -256 mark 0
AnchorPoint: "mkmk" 0 0 basemark 0
AnchorPoint: "mark" 0 -256 mark 0
LayerCount: 2
Fore
SplineSet
0 -256 m 0
 0 0 l 0
 256 0 l 0
 256 -256 l 0
 0 -256 l 0
768 -256 m 0
 768 0 l 0
 1024 0 l 0
 1024 -256 l 0
 768 -256 l 0
EndSplineSet
EndChar

StartChar: mark10
Encoding: 362 778 202
Width: 0
VWidth: 0
Flags: HW
AnchorPoint: "mkmk" 0 -256 mark 0
AnchorPoint: "mkmk" 0 0 basemark 0
AnchorPoint: "mark" 0 -256 mark 0
LayerCount: 2
Fore
SplineSet
0 -256 m 0
 0 0 l 0
 256 0 l 0
 256 -256 l 0
 0 -256 l 0
512 -256 m 0
 512 0 l 0
 768 0 l 0
 768 -256 l 0
 512 -256 l 0
EndSplineSet
EndChar

StartChar: mark11
Encoding: 363 779 203
Width: 0
VWidth: 0
Flags: HW
AnchorPoint: "mkmk" 0 -256 mark 0
AnchorPoint: "mkmk" 0 0 basemark 0
AnchorPoint: "mark" 0 -256 mark 0
LayerCount: 2
Fore
SplineSet
0 -256 m 0
 0 0 l 0
 256 0 l 0
 256 -256 l 0
 0 -256 l 0
512 -256 m 0
 512 0 l 0
 768 0 l 0
 768 -256 l 0
 512 -256 l 0
768 -256 m 0
 768 0 l 0
 1024 0 l 0
 1024 -256 l 0
 768 -256 l 0
EndSplineSet
EndChar

StartChar: mark12
Encoding: 364 780 204
Width: 0
VWidth: 0
Flags: HW
AnchorPoint: "mkmk" 0 -256 mark 0
AnchorPoint: "mkmk" 0 0 basemark 0
AnchorPoint: "mark" 0 -256 mark 0
LayerCount: 2
Fore
SplineSet
0 -256 m 0
 0 0 l 0
 256 0 l 0
 256 -256 l 0
 0 -256 l 0
256 -256 m 0
 256 0 l 0
 512 0 l 0
 512 -256 l 0
 256 -256 l 0
EndSplineSet
EndChar

StartChar: mark13
Encoding: 365 781 205
Width: 0
VWidth: 0
Flags: HW
AnchorPoint: "mkmk" 0 -256 mark 0
AnchorPoint: "mkmk" 0 0 basemark 0
AnchorPoint: "mark" 0 -256 mark 0
LayerCount: 2
Fore
SplineSet
0 -256 m 0
 0 0 l 0
 256 0 l 0
 256 -256 l 0
 0 -256 l 0
256 -256 m 0
 256 0 l 0
 512 0 l 0
 512 -256 l 0
 256 -256 l 0
768 -256 m 0
 768 0 l 0
 1024 0 l 0
 1024 -256 l 0
 768 -256 l 0
EndSplineSet
EndChar

StartChar: mark14
Encoding: 366 782 206
Width: 0
VWidth: 0
Flags: HW
AnchorPoint: "mkmk" 0 -256 mark 0
AnchorPoint: "mkmk" 0 0 basemark 0
AnchorPoint: "mark" 0 -256 mark 0
LayerCount: 2
Fore
SplineSet
0 -256 m 0
 0 0 l 0
 256 0 l 0
 256 -256 l 0
 0 -256 l 0
256 -256 m 0
 256 0 l 0
 512 0 l 0
 512 -256 l 0
 256 -256 l 0
512 -256 m 0
 512 0 l 0
 768 0 l 0
 768 -256 l 0
 512 -256 l 0
EndSplineSet
EndChar

StartChar: mark15
Encoding: 367 783 207
Width: 0
VWidth: 0
Flags: HW
AnchorPoint: "mkmk" 0 -256 mark 0
AnchorPoint: "mkmk" 0 0 basemark 0
AnchorPoint: "mark" 0 -256 mark 0
LayerCount: 2
Fore
SplineSet
0 -256 m 0
 0 0 l 0
 256 0 l 0
 256 -256 l 0
 0 -256 l 0
256 -256 m 0
 256 0 l 0
 512 0 l 0
 512 -256 l 0
 256 -256 l 0
512 -256 m 0
 512 0 l 0
 768 0 l 0
 768 -256 l 0
 512 -256 l 0
768 -256 m 0
 768 0 l 0
 1024 0 l 0
 1024 -256 l 0
 768 -256 l 0
EndSplineSet
EndChar

StartChar: base1
Encoding: 369 57345 209
Width: 1024
VWidth: 0
Flags: HW
AnchorPoint: "mark" 0 0 basechar 0
LayerCount: 2
Fore
SplineSet
768 -256 m 0
 768 0 l 0
 1024 0 l 0
 1024 -256 l 0
 768 -256 l 0
EndSplineSet
EndChar

StartChar: base2
Encoding: 370 57346 210
Width: 1024
VWidth: 0
Flags: HW
AnchorPoint: "mark" 0 0 basechar 0
LayerCount: 2
Fore
SplineSet
512 -256 m 0
 512 0 l 0
 768 0 l 0
 768 -256 l 0
 512 -256 l 0
EndSplineSet
EndChar

StartChar: base3
Encoding: 371 57347 211
Width: 1024
VWidth: 0
Flags: HW
AnchorPoint: "mark" 0 0 basechar 0
LayerCount: 2
Fore
SplineSet
512 -256 m 0
 512 0 l 0
 768 0 l 0
 768 -256 l 0
 512 -256 l 0
768 -256 m 0
 768 0 l 0
 1024 0 l 0
 1024 -256 l 0
 768 -256 l 0
EndSplineSet
EndChar

StartChar: base4
Encoding: 372 57348 212
Width: 1024
VWidth: 0
Flags: HW
AnchorPoint: "mark" 0 0 basechar 0
LayerCount: 2
Fore
SplineSet
256 -256 m 0
 256 0 l 0
 512 0 l 0
 512 -256 l 0
 256 -256 l 0
EndSplineSet
EndChar

StartChar: base5
Encoding: 373 57349 213
Width: 1024
VWidth: 0
Flags: HW
AnchorPoint: "mark" 0 0 basechar 0
LayerCount: 2
Fore
SplineSet
256 -256 m 0
 256 0 l 0
 512 0 l 0
 512 -256 l 0
 256 -256 l 0
768 -256 m 0
 768 0 l 0
 1024 0 l 0
 1024 -256 l 0
 768 -256 l 0
EndSplineSet
EndChar

StartChar: base6
Encoding: 374 57350 214
Width: 1024
VWidth: 0
Flags: HW
AnchorPoint: "mark" 0 0 basechar 0
LayerCount: 2
Fore
SplineSet
256 -256 m 0
 256 0 l 0
 512 0 l 0
 512 -256 l 0
 256 -256 l 0
512 -256 m 0
 512 0 l 0
 768 0 l 0
 768 -256 l 0
 512 -256 l 0
EndSplineSet
EndChar

StartChar: base7
Encoding: 375 57351 215
Width: 1024
VWidth: 0
Flags: HW
AnchorPoint: "mark" 0 0 basechar 0
LayerCount: 2
Fore
SplineSet
256 -256 m 0
 256 0 l 0
 512 0 l 0
 512 -256 l 0
 256 -256 l 0
512 -256 m 0
 512 0 l 0
 768 0 l 0
 768 -256 l 0
 512 -256 l 0
768 -256 m 0
 768 0 l 0
 1024 0 l 0
 1024 -256 l 0
 768 -256 l 0
EndSplineSet
EndChar

StartChar: base8
Encoding: 376 57352 216
Width: 1024
VWidth: 0
Flags: HW
AnchorPoint: "mark" 0 0 basechar 0
LayerCount: 2
Fore
SplineSet
0 -256 m 0
 0 0 l 0
 256 0 l 0
 256 -256 l 0
 0 -256 l 0
EndSplineSet
EndChar

StartChar: base9
Encoding: 377 57353 217
Width: 1024
VWidth: 0
Flags: HW
AnchorPoint: "mark" 0 0 basechar 0
LayerCount: 2
Fore
SplineSet
0 -256 m 0
 0 0 l 0
 256 0 l 0
 256 -256 l 0
 0 -256 l 0
768 -256 m 0
 768 0 l 0
 1024 0 l 0
 1024 -256 l 0
 768 -256 l 0
EndSplineSet
EndChar

StartChar: base10
Encoding: 378 57354 218
Width: 1024
VWidth: 0
Flags: HW
AnchorPoint: "mark" 0 0 basechar 0
LayerCount: 2
Fore
SplineSet
0 -256 m 0
 0 0 l 0
 256 0 l 0
 256 -256 l 0
 0 -256 l 0
512 -256 m 0
 512 0 l 0
 768 0 l 0
 768 -256 l 0
 512 -256 l 0
EndSplineSet
EndChar

StartChar: base11
Encoding: 379 57355 219
Width: 1024
VWidth: 0
Flags: HW
AnchorPoint: "mark" 0 0 basechar 0
LayerCount: 2
Fore
SplineSet
0 -256 m 0
 0 0 l 0
 256 0 l 0
 256 -256 l 0
 0 -256 l 0
512 -256 m 0
 512 0 l 0
 768 0 l 0
 768 -256 l 0
 512 -256 l 0
768 -256 m 0
 768 0 l 0
 1024 0 l 0
 1024 -256 l 0
 768 -256 l 0
EndSplineSet
EndChar

StartChar: base12
Encoding: 380 57356 220
Width: 1024
VWidth: 0
Flags: HW
AnchorPoint: "mark" 0 0 basechar 0
LayerCount: 2
Fore
SplineSet
0 -256 m 0
 0 0 l 0
 256 0 l 0
 256 -256 l 0
 0 -256 l 0
256 -256 m 0
 256 0 l 0
 512 0 l 0
 512 -256 l 0
 256 -256 l 0
EndSplineSet
EndChar

StartChar: base13
Encoding: 381 57357 221
Width: 1024
VWidth: 0
Flags: HW
AnchorPoint: "mark" 0 0 basechar 0
LayerCount: 2
Fore
SplineSet
0 -256 m 0
 0 0 l 0
 256 0 l 0
 256 -256 l 0
 0 -256 l 0
256 -256 m 0
 256 0 l 0
 512 0 l 0
 512 -256 l 0
 256 -256 l 0
768 -256 m 0
 768 0 l 0
 1024 0 l 0
 1024 -256 l 0
 768 -256 l 0
EndSplineSet
EndChar

StartChar: base14
Encoding: 382 57358 222
Width: 1024
VWidth: 0
Flags: HW
AnchorPoint: "mark" 0 0 basechar 0
LayerCount: 2
Fore
SplineSet
0 -256 m 0
 0 0 l 0
 256 0 l 0
 256 -256 l 0
 0 -256 l 0
256 -256 m 0
 256 0 l 0
 512 0 l 0
 512 -256 l 0
 256 -256 l 0
512 -256 m 0
 512 0 l 0
 768 0 l 0
 768 -256 l 0
 512 -256 l 0
EndSplineSet
EndChar

StartChar: base15
Encoding: 383 57359 223
Width: 1024
VWidth: 0
Flags: HW
AnchorPoint: "mark" 0 0 basechar 0
LayerCount: 2
Fore
SplineSet
0 -256 m 0
 0 0 l 0
 256 0 l 0
 256 -256 l 0
 0 -256 l 0
256 -256 m 0
 256 0 l 0
 512 0 l 0
 512 -256 l 0
 256 -256 l 0
512 -256 m 0
 512 0 l 0
 768 0 l 0
 768 -256 l 0
 512 -256 l 0
768 -256 m 0
 768 0 l 0
 1024 0 l 0
 1024 -256 l 0
 768 -256 l 0
EndSplineSet
EndChar
